<?xml version="1.0" encoding="UTF-8"?>
<svg id="Layer_2" data-name="Layer 2" xmlns="http://www.w3.org/2000/svg" viewBox="0 0 56.37 56.36">
  <defs>
    <style>
      path {
        fill: #000;
        stroke-width: 0px;
      }
      #layer:hover path {
        fill: var(--gold);
        stroke-width: 0px;
      }
    </style>
  </defs>
  
    
      <path class="cls-1" d="M56.37,14.31v27.74c-.03.18-.06.36-.1.54-.21,1-.33,2.04-.65,3-2.17,6.55-7.91,10.74-14.77,10.76-8.44.03-16.87.01-25.31,0-2.67,0-5.22-.59-7.53-1.94C2.78,51.34.07,46.73.03,40.66c-.05-8.33-.02-16.65,0-24.98,0-1.04.06-2.1.29-3.11C1.72,6.26,5.56,2.21,11.79.46,12.62.23,13.48.15,14.32,0c9.25,0,18.49,0,27.74,0,.58.09,1.16.15,1.72.28,6.32,1.43,10.37,5.26,12.12,11.5.23.82.31,1.68.46,2.53ZM43.64,28.17c-.02-8.52-6.9-15.4-15.43-15.43-8.49-.03-15.48,6.95-15.46,15.46.02,8.52,6.9,15.4,15.43,15.43,8.49.03,15.48-6.95,15.46-15.46ZM44.56,7.11c-2.57.01-4.7,2.15-4.69,4.69.02,2.55,2.17,4.7,4.71,4.69,2.56,0,4.68-2.15,4.67-4.7,0-2.58-2.12-4.69-4.69-4.67Z"/>
      <path class="cls-1" d="M28.16,40.29c-6.7-.02-12.14-5.5-12.09-12.17.05-6.69,5.48-12.08,12.15-12.06,6.7.02,12.13,5.5,12.09,12.17-.05,6.69-5.48,12.08-12.15,12.06Z"/>
      <path class="cls-1" d="M44.56,10.44c.75,0,1.36.61,1.36,1.36,0,.74-.64,1.37-1.37,1.36-.7-.01-1.33-.64-1.34-1.34-.01-.73.61-1.37,1.35-1.37Z"/>
    
  
</svg>
