<?xml version="1.0" encoding="UTF-8"?>
<svg id="Layer_2" data-name="Layer 2" xmlns="http://www.w3.org/2000/svg" viewBox="0 0 58.94 67.07">
  <defs>
    <style>
      .cls-1 {
        fill: #000;
        stroke-width: 0px;
      }
    </style>
  </defs>
  <g id="Layer_1-2" data-name="Layer 1">
    <path class="cls-1" d="M41.94,0c.22,8.43,5.82,15.03,14.11,16.59.79.15,1.61.17,2.41.22.31.02.49.08.49.44-.01,3.41-.01,6.82-.02,10.23,0,.06-.04.12-.08.23-3.04.03-5.98-.49-8.86-1.45-2.87-.96-5.5-2.4-8.03-4.28,0,.36,0,.59,0,.83.02,7.63.03,15.26.07,22.89.03,4.19-.87,8.13-3.21,11.64-4.52,6.79-10.92,10.1-19.08,9.7-9.01-.44-16.6-6.61-19-15.23-3.01-10.79,3.42-22.22,14.22-25.32,2.77-.79,5.57-1.05,8.43-.75.24.03.47.08.74.13v11.03c-.2-.04-.38-.07-.56-.11-6.52-1.65-12.67,3.28-12.46,9.99.16,4.96,4.14,9.06,9.24,9.48,4.85.41,9.51-3.12,10.41-7.93.15-.83.2-1.69.2-2.54.02-14.93.02-29.86.03-44.8,0-.33.03-.65.05-.98,3.63,0,7.26,0,10.89,0Z"/>
  </g>
</svg>