<svg xmlns="http://www.w3.org/2000/svg" width="256.433" height="240.948"  xmlns:v="https://vecta.io/nano"><path d="M161.658 116.108v.3c-10.8-14.363-44.415-1.868-56.7 3.225-10.889 2.3-16.771 13.179-1.883 8.1-4.953 9.115-1.195 22.112-4.159 31.827h0l-.951 5.746c-1.137 11.643-10.152 35.186 15.313 28.838 11.182.21 22.669.715 33.711-1.435 20.378-.925 17.794-59.921 14.669-76.601zm-40.3 56.842c-2.173 5.149-2.051 10.9-.536 13.858-28.215 5-10.3-20.553-11.307-32.945 4.9.322 9.8.5 14.7.376-.646 6.043-1.6 12.378-2.861 18.711zm16.394-55.794c25.759-4.134 13.229 17.915 16.377 30.318-6.277-.624-12.718.667-19 .78 1.751-11.492 3.82-25.636 2.625-31.098zm-7.843 60.855a24.18 24.18 0 0 1 .631-3.24h0c.156-.589.16-1.179.316-1.768h0c.315-1.473.475-2.8.79-4.272h0c.155-.441.158-1.031.314-1.473h0c.472-2.209.791-4.566 1.263-6.776h0c1.1-4.712-.419-7.375 7.083-6.6h0c3.526-.423 8.731.2 12.867.366-.7 15.626 1.79 36.431-25.149 32.154a37.412 37.412 0 0 0 1.885-8.4zm-.129-59.72a84.115 84.115 0 0 1-1.738 9.575h0l-.157.589-.315 1.62c-1.105 5.892-1.9 11.934-2.548 17.533l-14.7-.671c1.331-19.014-7.527-23.929 19.461-28.646zm125.933 26.501l-1.838-.01 1.838.01c-.71-10.178-1.261-21.241.175-31.554h.153c.472-2.209-.584-5.311.344-6.928a5.916 5.916 0 0 1-.446-2.362h-.153c3.286-12.515-6.71-5.493-12.647-12.308-11.586-10.239-24.4-19.747-35.68-30.278C191.294 48 178.056 31.854 160.967 19.374 149.518 12.085 136.07 6.113 124 0a25.973 25.973 0 0 0-3.525.276c-2.307 1.609-4.16 4.253-6.315 6.158h0C97.832 23.006 79.824 38.242 62.426 53.923h0l-4.312 4.1C53.8 62.575 47.652 66.08 42.726 70.477h0c-4.773 4.4-9.7 8.646-14.168 13.34h0C23.476 88.8 17.632 92.9 13.618 98.48h0c-3.235 3.226-3.739 11.186 3.94 7.689-.376 12.679-3.509 25.048-4.957 37.574h0c-.794 5.156-2.048 10.31-2.684 14.436h0l-.479 3.536-6.695 47.149c-.642 5.3-.515 10.171-1.616 15.326H.974c-2.351 9.572-.583 22.263 6.815 14.193l125.628-1.812c119.652-1.404 125.883 8.215 122.296-91.779zm-26.938 78.74c-72.017 2.993-144.93 1.7-217.253 4.549a5.1 5.1 0 0 0 .316-1.62h0l.162-1.179c2.433-24.316 7.315-48.472 11.279-72.633h.153c0-.442.316-1.768.319-2.21h0c.64-5.01 1.74-10.017 2.535-15.174h.153l.479-3.536h-.153c.986-12.234 3.812-24.6 1.568-34.349 21.72-21.555 46.487-40.293 72.823-65.509h0c8.006-7.329 16.318-14.361 23.865-21.839 3.209 1.492 5.958 3.129 9.321 4.475 12.528 5.967 25.052 12.82 33.733 22.157C183.767 51.792 199 67.212 216.234 81.316 226 88.3 233.139 99.251 245.679 103.3c-1.416 6.627-1.606 13.409-2.409 20.04h-.153a17.423 17.423 0 0 1-.322 2.8h.153c-.7 15.037 4.433 29.368 3.126 44.254h0c-2.4 17.681 2.984 42.041-17.3 53.136z"/></svg>