<svg xmlns="http://www.w3.org/2000/svg" height="681.333" viewBox="0 0 511 511.9" width="681.333"  xmlns:v="https://vecta.io/nano"><path d="M510.949 150.5c-1.199-27.199-5.598-45.898-11.898-62.102-6.5-17.199-16.5-32.598-29.602-45.398-12.801-13-28.301-23.102-45.301-29.5C407.851 7.199 389.25 2.801 362.05 1.602 334.648.301 325.949 0 256.449 0s-78.199.301-105.5 1.5c-27.199 1.199-45.898 5.602-62.098 11.898-17.203 6.5-32.602 16.5-45.402 29.602-13 12.801-23.098 28.301-29.5 45.301-6.301 16.301-10.699 34.898-11.898 62.098C.75 177.801.449 186.5.449 256l1.5 105.5c1.199 27.199 5.602 45.898 11.902 62.102 6.5 17.199 16.598 32.598 29.598 45.398 12.801 13 28.301 23.102 45.301 29.5 16.301 6.301 34.898 10.699 62.102 11.898 27.297 1.203 36 1.5 105.5 1.5l105.5-1.5c27.199-1.199 45.898-5.598 62.098-11.898 34.402-13.301 61.602-40.5 74.902-74.898 6.297-16.301 10.699-34.902 11.898-62.102 1.199-27.301 1.5-36 1.5-105.5l-1.301-105.5zm-46.098 209c-1.102 25-5.301 38.5-8.801 47.5a84.92 84.92 0 0 1-48.602 48.602c-9 3.5-22.598 7.699-47.5 8.797-27 1.203-35.098 1.5-103.398 1.5s-76.5-.297-103.402-1.5c-25-1.098-38.5-5.297-47.5-8.797C94.551 451.5 84.449 445 76.25 436.5c-8.5-8.301-15-18.301-19.102-29.398-3.5-9-7.699-22.602-8.797-47.5-1.203-27-1.5-35.102-1.5-103.402l1.5-103.398c1.098-25 5.297-38.5 8.797-47.5 4.102-11.103 10.602-21.2 19.204-29.404 8.297-8.5 18.297-15 29.398-19.098 9-3.5 22.602-7.699 47.5-8.801 27-1.199 35.102-1.5 103.398-1.5 68.402 0 76.5.301 103.402 1.5 25 1.102 38.5 5.301 47.5 8.801 11.098 4.098 21.199 10.598 29.398 19.098 8.5 8.301 15 18.301 19.102 29.402 3.5 9 7.699 22.598 8.801 47.5 1.199 27 1.5 35.098 1.5 103.398l-1.5 103.301zm-208.402-235c-72.598 0-131.5 58.898-131.5 131.5s58.902 131.5 131.5 131.5 131.5-58.898 131.5-131.5-58.898-131.5-131.5-131.5zm0 216.801c-47.098 0-85.301-38.199-85.301-85.301s38.203-85.301 85.301-85.301S341.75 208.898 341.75 256s-38.199 85.301-85.301 85.301zm0 0"/><path d="M423.852 119.301c0 16.953-13.746 30.699-30.703 30.699s-30.699-13.746-30.699-30.699 13.746-30.699 30.699-30.699 30.703 13.742 30.703 30.699zm0 0"/></svg>