<?xml version="1.0" encoding="UTF-8"?>
<svg id="b" data-name="Layer 2" xmlns="http://www.w3.org/2000/svg" width="681.577" height="95.979" viewBox="0 0 681.577 95.979">
  <defs>
    <style>
      .e {
        fill: #fff;
      }
    </style>
  </defs>
  <g id="c" data-name="Layer 2">
    <g id="d" data-name="Layer 1-2">
      <g>
        <path class="e" d="M514.506,1.698l24.6,85.6,1.9-1.3,23.4-82.9c.9-1.3,2-1.9,3.5-2,4.8-.6,18.2-.6,23,0,.8,0,1.6.2,2.2.8l26.4,92.3-26.9.4-1.5-1.5-3.5-14.2h-15.7l-.9.5-3,13-2.2,2.3h-50.8l-2.5-1.4-3.7-14.2-16.5-.2c-.6,3.8-1.4,9.3-2.9,12.9-.4,1-1,2.6-2.1,2.9l-27-.3c-.4-.5,2.3-9.9,2.7-11.4,7.4-26.8,15.6-53.4,23-80.2.7-1.1,1.7-1.4,3-1.5,5.4-.6,17-.4,22.5,0,1.1,0,2.1.2,3.1.7h0l-.1-.3ZM497.606,57.398c1.2-.2,6.2.6,6.4-.7l-2.9-12.7c-.9.1-.9,1-1.1,1.6-.6,1.5-2.9,11.3-2.4,11.9h0v-.1ZM582.506,57.398c-.8-3.9-1.3-7.9-2.5-11.7-.2-.7,0-1.5-1-1.7l-3,12.7c.4,1.5,5.1.6,6.5.8h0v-.1Z"/>
        <path class="e" d="M416.206,94.298c-.9.2-1.8.4-2.7.5-4.9.4-16.4.6-21,0-1-.1-1.8-.3-2.1-1.4V2.498c.4-1.4,2.4-1.4,3.6-1.5,4.9-.4,14.7-.5,19.5,0,.7,0,1.7.2,2.2.7,1.6,1.7-.6,28.6.9,32.8,1,1.5,12.7.9,15,.3V3.298c0-1,1.8-2,2.8-2.2,4-.6,16.2-.4,20.5,0,1.9.2,3,.5,3.6,2.4v89c-.6,1.9-1.2,2.2-3.1,2.4-5.1.5-15.9.5-21,0-1.4-.1-2.7-.6-2.7-2.2v-36.1c-2.7-.4-12.7-1.2-14.6,0-.3.2-.8,1.1-.8,1.3v36.6h0l-.1-.2Z"/>
        <path class="e" d="M123.105,94.798c-2.5-.7-4.2-12.8-5-15.5l-16.8-.4c-.7,2.7-2.5,13.9-4.2,15.3-.2.2-.5.4-.8.4-4.4-.4-24.1,1.4-26.7-.2-2-1.2.1-2.9.4-4,8-27.7,14.6-56,23.4-83.4,1-3.2,1.2-5.6,5.1-5.9,5.2-.5,17.4-.6,22.5,0,1.5.2,2.6.8,3.4,2l24.5,85.7.8,5.2c-.1.3-1.1.8-1.3.8h-25.5.2ZM110.406,43.998c-1.2-.2-.8,0-1.1.7-.8,2.4-1.1,4.6-1.6,6.9-.3,1.4-2.3,5.2-.6,5.8h5.7l-2.5-13.4h.1Z"/>
        <path class="e" d="M271.006,67.898c1.5.3,2.2,2.4,2.3,3.7.4,4.6.5,15.5,0,20-.3,2.6-1.3,3-3.7,3.2-16,1.5-34.2-1.2-50.5,0-3.7-.4-2.1-4.4-2.2-6.8-1.2-25.2-.8-53.7-.4-79.3,0-1.1.5-6.4.9-6.9l3.3-.8,49.8.2c.4.2,1,.4,1.2.8.6,1,.6,21.3.3,23.7-.2,2.1-1.4,2.1-3.2,2.2-7.8.7-16.6-.6-24.5,0l-1,.5c-.2,2.3-1.3,6.3,1.6,6.9h21.4c2.3,0,2.6,1.3,2.8,3.3.2,2.3.3,14.7-.4,16.1-.5,1-.8,1-1.9,1.1-4.3.5-20.6-1-22.9.4-.3.2-.8,1.1-.8,1.3v9.5l.8.8h27.5l-.4.1Z"/>
        <path class="e" d="M207.705,33.398c-.1.2-1.7,1-2.1,1-4.6-1.6-17.1-9.2-21.5-6.4-1.1.7-.9,2.9-.5,3.9.9,2,8.6,5.6,10.9,7.1,14.5,9.7,22.5,21.5,14.4,39.3-9.1,20.2-28.7,18.3-47.4,16.5-3.6-.3-9.3,1.5-9.8-3.7s-.6-18.2,0-23c.7-5.5,8.9-.7,12.3-.3,2.2.3,8.3.3,10.4,0,3.6-.6,8-4.6,5.4-8.3-1.4-2.1-11.5-6-14.6-7.9C138.405,34.898,150.606-1.202,181.606.098c6.7.3,16.4,2,22.7,4.2,1.3.4,3.7,1.4,3.5,3v26.1h-.1Z"/>
        <path class="e" d="M676.906,5.698c.5.5.6,1.8.6,2.6.5,5.7.6,17.3,0,23-.2,1.5-.5,2.7-2.2,3.1-4.7-1.7-16.8-9.2-21.5-6.4-.4.2-1.3,1.7-1.2,2.2.2,3.3,9,7,11.6,8.8,13.5,9,20.9,18.5,15.7,35.6-7.2,23.6-29.1,22.2-49.2,20.2-3.1-.3-8.7,1.2-9.3-3.2s-.6-19.2,0-23.5c.7-5.4,8.9-.7,12.3-.3,2.2.3,8.3.3,10.4,0,3.6-.6,8-4.6,5.5-8.3-1.4-2.1-11.5-6-14.6-7.9-27.1-16.7-15-52.8,16.2-51.5,3.6.2,8.9.8,12.4,1.5,1.7.4,12.5,3.4,13.2,4.1h.1Z"/>
        <path class="e" d="M67.906,94.098l-.8.7c-12.1,1.3-25,2.4-36.6-1.7C-4.794,80.698-10.694,30.398,19.306,9.198,33.406-.902,50.406-1.102,67.105,1.198l.8.7v28.4c0,2-7.2-.9-8.4-1.1-6.1-1.2-10.5-1.7-16.6,0-22.3,6.4-18.8,36.7,5.2,38.7,6.5.5,12.6-1.4,18.9-1.9l.8.7v27.4h.1Z"/>
        <path class="e" d="M312.206,30.998c.9.7,1.9-1.6,2.1-2.1,3.4-7.5,5-18.4,8.5-25.4.8-1.5,1.9-2.2,3.6-2.4,5.5-.6,16.2-.3,22,0,.7,0,3.1,0,3.2.9l-.2,2.3-24.8,59c-1.7,9.2.5,19.7-.5,28.9-.1,1.4-.3,2.4-1.9,2.6-6.9-.2-14.6.7-21.4.1-2.8-.2-3-.5-3.2-3.2-.7-8.8.7-18.5-.1-27.3l-25.2-60.6V1.698c.6-.3,1.4-.5,2.1-.6,5.4-.5,17.8-.6,23,0,2.4.3,3.1,1.4,4,3.5l8.8,26.4h0Z"/>
      </g>
    </g>
  </g>
</svg>