<?xml version="1.0" encoding="UTF-8"?>
<svg id="Layer_2" data-name="Layer 2" xmlns="http://www.w3.org/2000/svg" viewBox="0 0 324.47 54.23">
  <defs>
    <style>
      .cls-1 {
        fill: #f9de60;
      }
    </style>
  </defs>
  <g id="Layer_1-2" data-name="Layer 1">
    <g>
      <polygon class="cls-1" points="203.68 .23 203.68 24.07 212.67 24.07 212.67 .23 222.65 .23 222.65 53.87 212.67 53.87 212.67 26.55 203.68 26.55 203.68 53.87 193.7 53.87 193.7 .23 203.68 .23"/>
      <path class="cls-1" d="M95.27.3c1.69,3.68-.25,10.03-4.41,11.12-7.87,2.06-8.93-5.29-14.37-6.13-3.03-.47-4.49,1.35-3.05,4.06,1.21,2.29,12.53,7.89,15.65,10.26,7.79,5.91,16.24,15.52,12.13,25.96-5.33,13.51-37.58,11.8-35.28-9.27.81-7.44,10.04-13.58,16.41-8.48.12.55-3.95,3.66-4.71,4.74-3.72,5.28-5.07,15.5,3.01,17.31,9.82,2.2,13.01-6.28,9.93-14.35-4.3-11.24-20.94-13.66-22.15-24.15-1.86-16.09,17.03-10.02,26.83-11.05Z"/>
      <path class="cls-1" d="M317.44.3c1.69,3.68-.25,10.03-4.41,11.12-7.87,2.06-8.93-5.29-14.37-6.13-3.03-.47-4.49,1.35-3.05,4.06,1.21,2.29,12.53,7.89,15.65,10.26,7.79,5.91,16.24,15.52,12.13,25.96-5.33,13.51-37.58,11.8-35.28-9.27.81-7.44,10.04-13.58,16.41-8.48.12.55-3.95,3.66-4.71,4.74-3.72,5.28-5.07,15.5,3.01,17.31,9.82,2.2,13.01-6.28,9.93-14.35-4.3-11.24-20.94-13.66-22.15-24.15-1.86-16.09,17.03-10.02,26.83-11.05Z"/>
      <path class="cls-1" d="M63.39.23v53.65h-9.99v-20.12l-.75-.75h-10.73c2.28,6.75,4.44,13.59,3.99,20.86h-10.73l-.75-.75V14.38c0-3.24,2.76-7.21,5.33-9.1C42.81,3.03,50.94.23,54.65.23h8.74ZM53.4,3.21c-16.46.29-16.09,15.76-12.48,27.82h12.48V3.21Z"/>
      <path class="cls-1" d="M254.11.23v53.65h-9.99v-20.12l-.75-.75h-10.73c2.28,6.75,4.44,13.59,3.99,20.86h-10.73l-.75-.75V14.38c0-3.24,2.76-7.21,5.33-9.1,3.05-2.25,11.18-5.05,14.89-5.05h8.74ZM244.12,3.21c-16.46.29-16.09,15.76-12.48,27.82h12.48V3.21Z"/>
      <path class="cls-1" d="M285.56.23v53.65h-9.99v-20.12l-.75-.75h-10.73c2.28,6.75,4.44,13.59,3.99,20.86h-10.73l-.75-.75V14.38c0-3.24,2.76-7.21,5.33-9.1,3.05-2.25,11.18-5.05,14.89-5.05h8.74ZM275.58,3.21c-16.46.29-16.09,15.76-12.48,27.82h12.48V3.21Z"/>
      <path class="cls-1" d="M132.29.23v16.89l-4.28-8.4c-2.76-5.48-7.9-5.3-13.19-4.01v24.34l3.52-1.71,2.47-4.25v10.93l-2.02-2.71-3.98-1.26v19.37c5.29,1.29,10.43,1.47,13.19-4.01l4.28-8.4v16.89h-27.46V.23h27.46Z"/>
      <path class="cls-1" d="M25.45,21.09c-.3-4.42-4.28-11.12-8.63-12.53-11.98-3.91-10.1,17.1-7.74,23.6,3.49,9.62,15.34,14.62,22.11,5.33,2.63-.57.2,7.44-.32,8.63-2.54,5.73-8.05,8.22-14.16,7.75C-8.09,51.96-3.33-.14,18.2.19c2.87.04,13.53,3.46,13.71,6.72l-6.46,14.18Z"/>
      <path class="cls-1" d="M146.76.23l9.99,25.83c2.47-2.4,4.59-7.37,4.93-10.73.53-5.29-3.41-9.77-1.44-15.1h11.98l-13.98,28.56v25.08h-9.99v-25.58L135.78.23h10.98Z"/>
    </g>
  </g>
</svg>