<?xml version="1.0" encoding="UTF-8"?>
<svg id="Layer_2" data-name="Layer 2" xmlns="http://www.w3.org/2000/svg" xmlns:xlink="http://www.w3.org/1999/xlink" viewBox="0 0 681.62 95.93">
  <defs>
    <style>
      .cls-1 {
        filter: url(#drop-shadow-1);
      }

      .cls-2 {
        fill: #f9de60;
      }
    </style>
    <filter id="drop-shadow-1" x="-2.48" y="-1.73" width="689" height="103" filterUnits="userSpaceOnUse">
      <feOffset dx="1.08" dy="1.08"/>
      <feGaussianBlur result="blur" stdDeviation=".9"/>
      <feFlood flood-color="#000" flood-opacity=".25"/>
      <feComposite in2="blur" operator="in"/>
      <feComposite in="SourceGraphic"/>
    </filter>
  </defs>
  <g id="Layer_1-2" data-name="Layer 1">
    <g class="cls-1">
      <path class="cls-2" d="M514.45,1.74l24.64,85.6,1.89-1.35,23.36-82.88c.89-1.26,1.95-1.85,3.47-2.03,4.82-.57,18.18-.56,23,0,.82.09,1.58.18,2.21.79l26.39,92.33-26.89.4-1.52-1.48-3.52-14.19-15.69-.1-.88.64-2.96,12.99-2.24,2.26-50.83.07-2.52-1.48-3.74-14.22-16.51-.23c-.64,3.82-1.42,9.27-2.85,12.86-.41,1.04-.96,2.56-2.1,2.88l-26.98-.33c-.4-.47,2.27-9.9,2.69-11.43,7.4-26.81,15.56-53.44,23.02-80.23.72-1.07,1.74-1.39,2.96-1.53,5.36-.62,16.97-.43,22.51,0,1.06.08,2.12.2,3.08.67ZM497.6,57.42c1.23-.2,6.19.58,6.41-.73l-2.92-12.73c-.85.14-.88.99-1.13,1.61-.61,1.46-2.87,11.34-2.36,11.86ZM582.55,57.42c-.76-3.91-1.35-7.91-2.48-11.74-.2-.67-.04-1.55-1.02-1.72l-2.97,12.65c.43,1.49,5.11.57,6.46.81Z"/>
      <path class="cls-2" d="M416.16,94.31c-.92.23-1.76.45-2.72.52-4.88.38-16.41.61-21.03,0-1.02-.14-1.75-.28-2.12-1.37l.12-90.93c.27-1.36,2.3-1.38,3.51-1.47,4.92-.38,14.72-.52,19.51,0,.72.08,1.74.23,2.25.74,1.63,1.65-.56,28.57.94,32.85,1.04,1.45,12.74.86,15.03.32V3.33c0-.98,1.79-2.05,2.78-2.21,3.98-.64,16.18-.43,20.45-.02,1.9.18,2.97.45,3.62,2.36l.03,89.01c-.61,1.92-1.24,2.19-3.11,2.38-5.06.5-15.94.46-21.02-.03-1.35-.13-2.74-.62-2.74-2.24v-36.14c-2.72-.44-12.73-1.22-14.65-.04-.26.16-.84,1.09-.84,1.28v36.64Z"/>
      <path class="cls-2" d="M123.11,94.81c-2.53-.69-4.19-12.82-4.97-15.49l-16.75-.44c-.72,2.69-2.53,13.95-4.16,15.28-.25.2-.49.37-.81.43-4.4-.37-24.12,1.39-26.69-.25-1.96-1.25.11-2.91.43-4.02,7.99-27.65,14.62-55.98,23.37-83.37,1.04-3.25,1.16-5.55,5.08-5.9,5.22-.48,17.42-.59,22.52.01,1.52.18,2.59.76,3.45,2.04l24.53,85.7.76,5.15c-.1.33-1.14.84-1.27.84h-25.48ZM110.36,43.96c-1.21-.15-.8,0-1.05.7-.85,2.37-1.06,4.6-1.57,6.91-.3,1.36-2.31,5.22-.55,5.78l5.67.08-2.5-13.46Z"/>
      <path class="cls-2" d="M271.01,67.89c1.5.27,2.16,2.4,2.28,3.71.43,4.6.51,15.48-.02,19.98-.31,2.58-1.3,3.03-3.73,3.25-16.02,1.47-34.25-1.16-50.51,0-3.67-.44-2.08-4.39-2.19-6.75-1.16-25.16-.81-53.74-.44-79.27.02-1.05.51-6.42.85-6.91l3.27-.84,49.76.24c.42.18,1,.38,1.23.77.61,1.02.56,21.28.27,23.71-.24,2.06-1.42,2.08-3.25,2.24-7.79.69-16.6-.56-24.51-.02l-1.03.47c-.16,2.26-1.31,6.32,1.64,6.9l21.39-.13c2.33.12,2.58,1.47,2.76,3.46.21,2.29.26,14.72-.39,16.11-.47,1-.83,1.02-1.85,1.14-4.26.51-20.64-.98-22.92.43-.26.16-.84,1.09-.84,1.28v9.47l.75.75h27.48Z"/>
      <path class="cls-2" d="M207.69,33.38c-.11.19-1.69,1.03-2.05,1.01-4.57-1.59-17.1-9.2-21.49-6.42-1.09.69-.92,2.86-.46,3.9.89,2.03,8.61,5.62,10.85,7.12,14.47,9.68,22.47,21.55,14.45,39.31-9.11,20.17-28.69,18.26-47.42,16.51-3.64-.34-9.27,1.5-9.77-3.71s-.62-18.19,0-22.99c.72-5.51,8.91-.7,12.31-.26,2.22.28,8.27.35,10.42.01,3.58-.56,7.98-4.58,5.45-8.32-1.42-2.1-11.52-6.01-14.6-7.92C138.38,34.91,150.58-1.19,181.56.1c6.7.28,16.39,2.05,22.74,4.24,1.26.44,3.68,1.37,3.53,2.96l-.14,26.09Z"/>
      <path class="cls-2" d="M676.87,5.69c.55.53.57,1.84.64,2.61.49,5.74.57,17.3.01,22.98-.15,1.55-.47,2.74-2.18,3.13-4.73-1.65-16.85-9.16-21.48-6.42-.41.24-1.28,1.69-1.25,2.19.19,3.32,8.97,7.04,11.63,8.82,13.45,9,20.93,18.55,15.73,35.6-7.19,23.57-29.06,22.15-49.19,20.22-3.11-.3-8.68,1.2-9.26-3.22s-.56-19.2,0-23.48c.71-5.42,8.88-.7,12.31-.26,2.22.28,8.27.35,10.42.01,3.58-.56,7.98-4.58,5.45-8.32-1.41-2.09-11.53-6.03-14.6-7.92-27.1-16.65-14.95-52.82,16.17-51.53,3.62.15,8.87.82,12.44,1.54,1.73.35,12.49,3.37,13.18,4.05Z"/>
      <path class="cls-2" d="M67.9,94.06l-.83.67c-12.06,1.32-25.02,2.41-36.64-1.68C-4.8,80.65-10.66,30.42,19.27,9.16,33.39-.88,50.42-1.09,67.07,1.16l.83.67v28.42c0,2.02-7.21-.86-8.39-1.1-6.12-1.23-10.47-1.67-16.6.09-22.3,6.39-18.75,36.66,5.24,38.67,6.48.54,12.61-1.38,18.92-1.94l.83.68v27.42Z"/>
      <path class="cls-2" d="M312.24,31c.88.66,1.86-1.63,2.09-2.14,3.35-7.48,4.98-18.36,8.53-25.39.77-1.52,1.93-2.2,3.6-2.39,5.55-.65,16.21-.33,22.02-.01.68.04,3.06.05,3.25.85l-.16,2.28-24.82,58.99c-1.69,9.21.45,19.71-.53,28.89-.15,1.37-.28,2.42-1.85,2.61-6.9-.22-14.6.71-21.41.14-2.79-.23-3.02-.48-3.25-3.24-.74-8.77.69-18.45-.1-27.32l-25.25-60.57-.06-2.05c.69-.31,1.43-.49,2.18-.56,5.36-.51,17.75-.62,23-.01,2.43.28,3.1,1.42,3.98,3.51l8.76,26.41Z"/>
    </g>
  </g>
</svg>