<?xml version="1.0" encoding="UTF-8"?>
<svg id="Layer_2" data-name="Layer 2" xmlns="http://www.w3.org/2000/svg" viewBox="0 0 6232.81 4584.83">
  <g id="Layer_1-2" data-name="Layer 1">
    <path d="M6232.81,1336.33h-17.28c1.31-12.86,2.64-25.58,3.1-37.63,1.05-27.39,4.49-97.18-.09-120.2-2.78-13.97-20.29-7.48-20.29-19.91,0-7.43,17.72-19.67,20.02-32.19,2.94-15.99-1.02-38.64.03-55.95,17.83-294.54-1.28-593.73,3.97-887.77.31-17.11,11.47-48.18-1.89-61.71-6.2-6.28-15.65-4.39-23.57-16.43-10.68-16.24-9.77-47.74-30.53-57.45-6.3-2.94-13.59-1.73-19.93-4.07-48.8-17.98-79-5.95-130.04-5.94-20.75,0-44.61-4.47-67.99-4.33-211.84,1.22-423.17.43-635.92-.02-88.47-.19-178.39.8-267.97,0-104.22-.92-214.8,3.7-319.87-3.76-24.98-1.77-46.1,4.05-67.93,4.27-17.3.17-44.04-6.49-62.93-3.62-30.65,4.66-9.5,9.83-49.3,3.52-62.41-9.9-220.99-5-282.7,8.8-8.95,2-16.37,10.25-25.27,10.85-20.48,1.37-31.9-17.51-43.83-19.8-22.49-4.32-47.54,4.36-67.7,4.04-13.51-.21-30.94-9.34-44.3-8.5-12,.75-13.36,8.57-20.97,11.31-11.21,4.04-121.55,14.2-134.75,12.96-14.3-1.35-35.38-23.23-48.12-24.28-10.9-.9-21.08,4.42-31.86,4.53-170.75,1.79-344.87-.38-516.12.23-84.52.3-185.26-12.31-268.16-4.56-18.53,1.73-29.81,15.57-39.08,15.2-12.07-.49-17.62-11.17-25.69-14.03-15.25-5.42-136.47-5.37-163.13-5.18-19.52.14-53.68,9.33-71.69,8.09-21.11-1.46-31.23-3.47-55.98-3.69-23.15-.21-45.88-6.5-68.41-4.38-49.78,4.68-62.27,37.09-130.9,19.33-19.7-5.1-54.75-21.85-76.68-22.68-10.86-.41-37.79,9.76-52.68,11.03-40.05,3.4-73.7-11.78-111.49-11.83-35.22-.05-67.97,11.07-107.9,8.28-93.08-6.49-186.92-.22-279.87.23-23.37.11-58.95,2.98-80.38.06-13.33-1.82-15.66-11.5-23.82-12.26-59.35-5.51-126.94.56-188.09.21-42.98-.25-89.52-4.63-131.89-4.48-21.93.08-49.99,8.2-71.74,8.46-57.19.67-118.61-7.76-176-8.31-95.25-.92-188.02,2.33-282.11,8.18-1.56,12.08,9.53,6.29,17.9,16.05,6.67,7.78,18.84,35.07,12.35,44.18-11.33,15.9-108.21-17.64-122.07-30.46-14.61-13.52-5.84-34.62-36.19-33.8-2.66.07-5.35-.13-8,0-.35.02.43,3.54-5.94,3.88-31.41,1.7-58.63-6.66-70.12,32.11-14.3-9.74-49.06-38.16-64.12-22.22-4.71,4.99-7.3,17.31-8.16,17.94-5.74,4.21-44.87-16.32-53.18-20.38-5.81-2.84-12.48-1.93-10.45-11.34-1.23-.36-2.77.36-4,0-49.41-14.65-73.21-11.63-123.99-12-2.67-.02-5.33.02-8,0-14.28,12.62-34.96,6.49-51.99,8-5.89.52-13.02,3.12-20,4,1.61,14.6-7.02,7.24-16,4-6.25-2.26-7.04.17-12-8-10.14-.11-49.74.37-55.73-4.34-1.24-.97-.16-5.41-.26-7.66-2.67.02-5.33-.03-8,0-16.77.17-39.19,4.26-59.99,4-6.66-.08-13.33.07-20,0-9.46-.1-17.59-3.93-20-4-9.3-.26-18.7.31-28,0-.48-.02-2.66,3.52-5.83,3.43-19.2-.5-41.59-6.64-62.16-3.43-12.2,16.34-10.36,9.98-24,16,1.95,9.95-11.83,13.27-20,16-1.46,1.3-2.67,2.59-4,4-5.61,5.91-13.92,4.16-20.2,21.79C-7.68,111,3.12,288.56,3.01,354.98c-.62,399.36-6.65,806.55,12.14,1207.51.5,10.68,7.39,19.42,7.79,28.23.15,3.38-2.62,36.21-3.76,37.72-1.06,1.4-12.04-2.6-12.05,2.05,0,8.65,20.86,45.85,20.17,59.81-.58,318.59,7.25,638.62-.29,955.68-1.02,42.78,1.9,68.08-11.84,110.13,2.42,13.74-.41,21.91-4.91,46.43l4.87-2.44c-.75,37.95,1.08,76.15.21,114.13-2.53,109.58-4.69,217.71-4.35,327.93.14,45.17-2.23,90.43-4.59,135.97h5.5c-.38,6-.68,11.46-.88,15.63-7.48,150.05.88,303.29.13,452.08-.75,148.84-15.95,312.5.34,459.52,3.24,29.29,5.36,17.51.64,49.26-3.38,22.73-8.35,79.58,3.47,98.59,3.78,6.08,14.23,9.88,19.78,16.21,19.02,21.73,33.65,56.02,66.19,57.83,26.94,1.5,21.38,2.42,44.47,7.43,29.08,6.31,29.36-8.16,39.57-10.18,2.12-.42,40.59-.5,42.74-.18,9.55,1.4,14.8,12.52,21.63,14.46,4.56,1.29,37.22,4.83,43.21,4.84,23.67.05,28.65-23.45,59.03-15.04,6.9,1.91,12.25,10.78,21.28,11.15,9.09.37,13.51-7.78,19.64-8.01,6.25-.24,12.92,7.14,20.36,7.9,8.82.91,16.69-4.52,23.85-4.19,24.28,1.14,77.07,18.55,81.8-18.13,2.15-16.67-14.17-26.51-1.76-45.42,8.41-12.81,23.77-13.21,37.75-12.23-5.74,24.83-17.38,48.34-15.98,75.94,13.54-1,18.63-9.05,34.07-8.43,12.39.5,20.16,9.37,27.7,8.7,7.88-.7,15.73-14.18,29.17-15.44,10.95-1.03,23.72,7.65,39.02,7.5,31.02-.31,67.82-18.6,99.94-12.24,8.68,1.72,11.13,9.45,16.84,11.15,2.36.7,40.93,7.9,43.96,8.2,6.46.65,9.69-8.28,16.28-10.41,52.52-17.01,146.76,1.83,198.48,11.45,32.92,6.13,74.6,23.34,105.3,8.39,12.57-6.12,19.73-22.27,32.98-27.02,4.88-1.75,29.13-5.94,33.96-5.65,18.74,1.13,18.26,18.07,27.96,28.05,16.08,16.56,36.73,3.28,56.22,3.41,32.21.22,68.21,2.62,100.01.69,15.05-.91,48.02-2.07,59.93-4.4,8.63-1.69,11.05-9.36,16.85-11.12,38.92-11.79,51.21,30.69,87.15,27.17,3.08-.3,37.91-25.35,46.43-29.6,9.24-4.61,59.54-26.33,65.6-26.18,21.01.53,39.79,33.83,54.3,41.48,50.73,26.72,131.01-3.06,181.98,2.04,26.04,2.61,32.17,3.63,59.69,3.94,11.98.13,23.05,6.02,36.12,4.65,13.22-1.38,15.45-11.5,23.9-12.36,14.37-1.46,38.09,13.11,47.71,12.09,5.73-.61,10.37-7.06,16.44-7.9,11.99-1.67,24.96,2.21,36.88-2.8,8.5-3.58,7.34-19.1,22.85-17.62,13.06,1.24,11.65,21.47,20.69,23.85,4.73,1.24,10.7-3.08,15.36-2.76,6.73.45,13.03,3.74,19.91,3.41,30.86-1.47,82.86-29.19,112.31-28.4,18.49.5,14.68,14.41,23.5,24.43,14.37,16.33,35.09-.48,52.53.28,9.61.42,16.48,9.18,31.8,7.79,11.42-1.04,14.46-8.25,21.74-10.51,21.34-6.63,67.07,8.47,101.33,1.31,7.58-1.58,15.27-9.7,21.53-10.25,5.52-.48,58.08,17.67,75.41,19.05,38.75,3.08,67.66-12.67,99.72-12.05,17.66.34,41.29,10.39,60.26,12.05,31.24,2.72,144.61,5.79,170.96-.89,20.79-5.28,16.55-26.45,53.22-23.31,25.34,2.17,40.74,24.61,64.08,27.92,31.06,4.4,74.81-.43,107.79.16,116.37,2.06,234.29-.51,352,0,92.72.4,187.34,9.79,279.62,8.38,31.37-.48,59.31-6.98,84.5-8.3,7.97-.42,13.84,6.96,23.43,8.32,44.37,6.29,116.01-.83,164.35-.03,150.44,2.48,304.21.62,455.95,3.65,20.12.4,48.88,10.57,68.89,1.23,13.36-6.24,11.57-26.84,34.92-25.47,18.6,1.09,17.25,16.26,26.26,22.16,24.14,15.8,287.08,1.68,337.9,2.06,31.56.23,78.42,11.33,109.17,1.56,8.97-2.85,13.88-10.84,19.46-12.51,26.42-7.93,30.3,12.34,49.04,17.26,25.34,6.65,44.59-2.77,66.12-2.46,120.44,1.72,239.81-1.58,359.94-.03,54.7.71,113.06,10.23,168.2,4.59,18.07-1.85,31.63-13.14,50.95-7.36,5.86,1.75,9.92,9.56,15.83,12.14,22.84,9.99,64.64-.71,88.82-1.16,43.66-.81,211.57,9.4,236.4-15.56,6.38-6.41,9.14-31.55,9.89-42.09,6.33-89.26-.3-193.11,0-284.24.21-63.01,1.25-116.55-4.13-179.82-6.36-74.78,16.65-165.06,8.05-239.98-3.5-30.5-31.84-24.65-32.12-39.86-.09-4.79,24.05,4.43,27.92-16.15,6.21-33.01-.77-98.4-.05-136.01.31-16.41,7.95-27.43,2.32-46.01-2.59-8.56-14.68-18.6-13.98-30.02.48-7.87,9.94-10.57,11.77-19.83,3.81-19.25-3.34-38.8-4.11-56.1-.77-17.25,9.95-32.15-3.65-51.97-5.81-8.47-20.18-9.89-20.22-11.87-.31-13.25,24.67-10.09,27.54-14.48,2.09-3.21,3.06-9.66,2.85-17.27h9.75c-1.51-194.55-.06-388.1.08-584.2.12-176.58-3.3-355.61-4.37-531.49-.38-63.4,9.56-135.23,4.33-196.27-1-11.73-4.25-30.98-12.51-39.47-6.88-7.06-34.26-11.33-31.61-24.3,3.15-15.38,31.46,16.67,39.15-8.87,7.43-24.67-11.66-42.06-10.8-46.64.74-3.92,9.15-7.57,10.87-13.32,17.17-57.22-3.46-104.13.62-159.31,4-54.04,10.93-113.64,12.31-167.64,1.33-52.01-.98-104.22.02-156.28.73-37.93,1.45-75.95,2.15-114.01ZM6166.45,1964.33c-16.35.41-11.5-21.67-20.01-29.98-4.44-4.34-15.4-4.24-16.27-8.41-2.66-12.71,14.08-34.77,24.14-25.46,2.4,2.22,13.93,55.85,12.15,63.84Z"/>
  </g>
</svg>