<?xml version="1.0" encoding="UTF-8"?>
<svg id="b" data-name="Layer 2" xmlns="http://www.w3.org/2000/svg" width="798.986" height="132.176" viewBox="0 0 798.986 132.176">
  <defs>
    <style>
      .d {
        fill: #ffdd40;
        stroke-width: 0px;
      }
    </style>
  </defs>
  <g id="c" data-name="Layer 1">
    <g>
      <path class="d" d="M551.7,64.719c.213,20.466-5.11,38.218-18.528,51.901-20.679,21.088-47.415,21.206-67.314-2.534-21.35-25.471-22.393-60.517-5.161-89.12,6.6-10.954,15.859-19.001,28.316-22.672,19.346-5.701,40.103,3.602,51.753,23.001,7.509,12.504,11.362,26.039,10.935,39.425ZM470.276,36.232c1.12,23.927,15.321,58.006,32.668,75.454,5.079,5.108,10.869,11.469,18.709,8.246,7.946-3.266,8.296-11.78,8.295-19.37,0-21.673-7.56-41.145-18.716-59.241-6.049-9.812-11.781-20.275-23.418-25.21-6.077-2.577-10.763-1.762-13.341,4.177-2.163,4.985-2.855,10.604-4.198,15.943Z"/>
      <path class="d" d="M.147,65.429c0-19.364.198-38.731-.121-58.09C-.068,1.68,1.892.132,7.286.299c18.651.577,16.255-2.909,16.434,16.294.109,11.664.125,23.331.001,34.994-.056,5.243,1.906,7.404,7.479,7.434,15.851.086,15.849.297,15.851-15.332.001-12.132.139-24.265-.056-36.394-.08-4.986,1.519-7.141,6.873-6.993,18.554.514,16.159-2.58,16.221,15.779.118,35.228-.101,70.458.151,105.684.047,6.618-1.972,9.107-8.788,8.96-16.754-.361-14.266.681-14.378-14.31-.111-14.93-.175-29.865.048-44.792.08-5.326-1.703-7.436-7.258-7.53-16.128-.273-16.124-.465-16.126,15.736-.002,14.465-.155,28.932.066,43.393.082,5.38-1.848,7.532-7.348,7.447-20.288-.315-15.972,1.734-16.252-15.546-.269-16.56-.058-33.128-.057-49.692Z"/>
      <path class="d" d="M372.685,65.287c.002-19.137.168-38.275-.099-57.408-.08-5.764,1.8-7.789,7.667-7.596,17.051.56,15.15-2.453,15.267,15.405.08,12.135.148,24.272-.015,36.405-.067,5.049,1.796,7.05,7.038,6.894,18.263-.544,16.22,2.769,16.377-15.717.101-11.901.185-23.807-.043-35.704-.103-5.397,1.826-7.418,7.388-7.276,17.517.446,15.515-2.007,15.551,15.178.075,35.472-.128,70.946.153,106.417.053,6.725-2.057,8.969-8.802,8.855-14.223-.241-14.226.06-14.23-13.943-.005-14.936-.132-29.873.038-44.807.064-5.574-1.922-7.864-7.796-7.909-15.649-.118-15.646-.337-15.648,15.444-.001,14.469-.189,28.942.084,43.405.109,5.784-2.042,7.829-7.795,7.757-17.861-.224-14.974.801-15.107-14.992-.141-16.802-.032-33.605-.03-50.408Z"/>
      <path class="d" d="M271.054,67.291c-11.665,8.021-17.455,17.767-18.958,29.949-1.049,8.503-.201,16.41,7.825,21.693,6.013,3.958,19.656,4.474,24.937.46,7.54-5.732,10.264-13.572,8.977-22.913-2.299-16.685-13.163-27.362-25.909-36.654-5.476-3.992-11.238-7.594-16.865-11.381-11.438-7.698-16.781-22.034-12.784-34.288,2.74-8.403,8.814-13.346,17.637-13.502,13.591-.24,27.191-.008,40.785-.112,4.126-.031,5.895,1.775,6.189,5.8.609,8.348-3.389,16.655-9.667,19.527-8.038,3.676-14.667,2.156-21.864-4.145-3.809-3.334-8.049-6.621-12.686-8.41-2.783-1.074-6.705.781-10.115,1.32.712,3.124.363,7.573,2.327,9.134,7.083,5.628,14.803,10.513,22.544,15.255,14.903,9.128,28.7,19.491,38.081,34.501,7.996,12.794,10.586,26.172,3.062,40.442-4.461,8.46-11.816,13.38-20.431,14.368-11.947,1.37-24.478,2.267-36.18.166-20.51-3.682-32.644-29.67-24.364-48.844,4.997-11.572,19.983-18.983,31.372-15.423,1.624.508,3.086,1.529,6.086,3.058Z"/>
      <path class="d" d="M675.966,68.427c-10.202,6.277-15.323,15.64-17.863,26.711-2.068,9.016.354,18.965,6.489,22.837,8.017,5.059,16.69,6.342,25.27,1.63,7.885-4.33,11.457-14.105,9.825-23.616-3.11-18.12-15.287-29.233-29.583-38.875-5.992-4.041-12.182-7.941-17.547-12.723-9.007-8.029-11.408-18.41-8.412-29.974,2.3-8.879,8.37-13.747,17.885-13.888,13.348-.197,26.702.083,40.052.011,4.791-.026,6.639,2.088,6.682,6.793.085,9.271-3.633,16.296-11.19,19.167-8.098,3.076-14.876.515-21.2-5.084-3.925-3.474-8.474-6.584-13.278-8.586-2.192-.914-7.052.397-8.195,2.241-1.22,1.966-.556,6.879,1.18,8.525,4.328,4.105,9.503,7.487,14.742,10.448,19.317,10.918,37.404,23.143,48.649,43.041,11.677,20.664,4.115,49.743-24.954,52.564-15.016,1.457-29.964,2.614-43.269-6.856-9.843-7.006-16.395-24.571-13.622-36.958,2.698-12.05,11.206-20.234,24.234-22.065,4.352-.612,9.004.896,13.519,1.435l.585,3.221Z"/>
      <path class="d" d="M628.616,65.86c-.002,18.911-.181,37.825.105,56.732.088,5.826-1.947,8.051-7.715,7.7-10.505-.64-21.175-.054-31.513-1.659-19.268-2.991-30.428-16.831-30.448-36.129-.028-27.549.239-55.101-.058-82.647-.07-6.506,2.026-9.027,8.417-8.358,2.55.267,5.152.039,7.73.04,14.034.005,15.06.195,12.459,14.122-2.114,11.321-6.667,22.272-10.869,33.106-5.822,15.011-9.274,30.298-8.026,46.445,1.259,16.282,11.225,25.772,26.505,25.964,6.594.083,9.078-2.216,9.027-8.986-.252-33.618-.12-67.24-.107-100.86q.004-10.115,10.016-10.147c16.497-.027,14.393-.7,14.462,14.245.078,16.81.018,33.62.016,50.43Z"/>
      <path class="d" d="M147.366,65.175c.002,19.123-.172,38.249.107,57.368.085,5.793-1.92,7.882-7.69,7.776-19.719-.363-15.554,1.674-15.929-15.171-.213-9.557-.221-19.127.029-28.682.127-4.857-1.718-6.787-6.554-6.558-4.906.232-9.834.15-14.747.022-5.637-.147-7.182,1.514-5.616,7.552,3.022,11.651,4.891,23.601,7.17,35.44,1.098,5.707-1.787,7.065-7.075,7.124-19.335.215-19.333.366-19.333-18.877,0-21.922.702-43.872-.183-65.758-1.037-25.633,11.07-35.862,33.54-41.723,9.608-2.506,19.901-2.38,29.871-3.551,4.884-.573,6.547,1.365,6.495,6.269-.21,19.587-.087,39.178-.085,58.768ZM123.805,41.759c0-9.315-.049-18.63.022-27.945.031-4.106-1.026-6.858-5.963-6.342-11.37,1.188-21.146,5.581-26.195,16.142-7.757,16.224-4.184,32.755.932,48.913.485,1.531,4.135,2.757,6.398,2.908,6.052.403,12.152.011,18.225.19,4.763.14,6.753-1.797,6.643-6.621-.208-9.077-.06-18.163-.062-27.245Z"/>
      <path class="d" d="M224.007,64.483c-.001,19.144-.172,38.291.099,57.431.086,6.025-1.867,8.304-8.079,8.139-18.256-.485-14.94,1.836-15.23-15.293-.158-9.336-.22-18.682.035-28.013.143-5.225-1.989-7.121-7.08-6.85-5.142.274-10.311.147-15.466.047-5.362-.104-5.991,1.979-4.735,6.988,2.99,11.931,5.226,24.054,7.583,36.135.997,5.111-1.43,6.869-6.641,6.986-19.841.443-19.839.601-19.837-19.033.001-23.347-.069-46.693.031-70.039.08-18.658,7.973-30.107,26.096-34.975,11.633-3.124,23.9-3.888,35.865-5.817,6.24-1.006,7.501,2.101,7.44,7.564-.211,18.908-.081,37.82-.082,56.731ZM200.74,41.776c0-9.334-.022-18.669.01-28.003.014-4.13-1.267-6.539-6.122-6.37-14.254.495-27.67,10.777-28.754,24.836-.917,11.885.887,24.004,1.831,35.993.469,5.954,4.199,8.188,10.198,7.704,5.354-.432,10.771-.2,16.157-.089,4.75.098,6.787-2.054,6.721-6.77-.128-9.099-.037-18.201-.042-27.302Z"/>
      <path class="d" d="M769.278,61.612v15.275c-14.389-5.89-14.711-5.665-14.713,9.863,0,9.339.115,18.68-.026,28.018-.06,3.981,1.575,5.963,5.495,6.67,11.9,2.145,22.41,1.314,29.325-12.661,2.637-5.328,5.485-10.553,9.593-15.516,0,11.079.155,22.163-.211,33.23-.042,1.279-2.97,3.51-4.583,3.532-18.983.257-37.971.141-56.957.204-5.789.019-5.322-3.994-5.323-7.77-.008-33.389-.011-66.777-.004-100.166.001-5.603-.301-11.243.283-16.788.191-1.818,2.722-4.831,4.221-4.854,20.555-.323,41.116-.218,62.145-.218v39.077c-1.916-3.248-3.038-4.991-4.002-6.817-2.397-4.543-4.627-9.175-7.092-13.679-6.524-11.918-18.649-12.156-28.755-8.837-1.994.655-3.849,4.981-3.918,7.661-.38,14.7-.296,29.416-.077,44.123.037,2.479,1.507,4.938,2.315,7.406,2.475-1.067,5.042-1.969,7.39-3.265,1.373-.758,2.395-2.145,4.895-4.485Z"/>
    </g>
  </g>
</svg>