<?xml version="1.0" encoding="UTF-8"?>
<svg id="Layer_1" xmlns="http://www.w3.org/2000/svg" version="1.1" viewBox="0 0 510.8 512">
  <!-- Generator: Adobe Illustrator 29.0.1, SVG Export Plug-In . SVG Version: 2.1.0 Build 192)  -->
  <defs>
    <style>
      .st0 {
        fill: #5c594b;
      }
    </style>
  </defs>
  <g id="b">
    <g id="c">
      <path class="st0" d="M332.8,512h-154c-3.1-.3-6.3-.7-9.4-.8-20.5-.5-40.9-1.3-61-6.2-42.1-10.3-73.4-34.3-92.1-73.7-11.5-24.4-15.1-50.6-15.4-77.3C.3,298.5-.3,243,.2,187.6c.2-23.2,1.6-46.7,5-69.6C10.5,82.2,27.7,52.5,57,30.5,82.2,11.7,111.2,4.2,141.9,2c12.3-.9,24.6-1.4,36.8-2h153c11.9.7,23.9,1.3,35.8,2,20.9,1.2,41.4,4.8,60.5,13.5,47.1,21.2,71.9,58.9,79.6,108.9,1.4,8.8,2,17.8,3,26.7v206c-.3,1.8-.6,3.6-.8,5.4-1.1,10.1-1.6,20.2-3.3,30.2-5.4,32.1-19.2,60-43.8,81.9-26.7,23.7-58.9,33.2-93.8,35.5-12.1.8-24.2,1.4-36.3,2h.2ZM255.8,466.8v-.8c13.5,0,27,.4,40.5,0,28.9-1,58-1,86.8-4.2,39.1-4.3,67.2-29.5,76-67.2,3.7-15.7,5.1-32.3,5.4-48.5.9-47.5,1.2-95,.9-142.5-.2-24.8-1-49.7-3.9-74.3-4.9-41.1-30.8-69.1-71.3-77.1-17.7-3.5-36-4.6-54.1-4.9-48-.7-96-.8-144-.2-22.3.3-44.7,1.1-66.7,4.3-39,5.7-65.6,31.1-73.5,69.7-3.4,16.7-4.6,34-4.9,51.1-.9,41.1-1.2,82.3-.7,123.5.3,28.8,1,57.7,3.8,86.3,2.8,29.1,16.7,52.8,42.7,68,16.2,9.4,34.1,13.3,52.6,14,36.8,1.3,73.6,1.9,110.4,2.8h0Z"/>
      <path class="st0" d="M124.2,255.9c0-72.6,59.3-131.6,131.8-131.4,72.8.3,131.7,59.4,131.2,131.8-.4,72.7-59.1,131.2-131.5,131.2s-131.7-59.2-131.6-131.7h0ZM255.3,341.2c47.2.2,85.4-37.5,85.7-84.6.3-47.2-37.3-85.4-84.5-85.8-47.4-.4-85.7,37.5-85.9,84.9-.2,47.2,37.6,85.3,84.8,85.5h-.1Z"/>
      <path class="st0" d="M423,119.6c-.1,17.1-13.9,30.6-31.1,30.4-16.7-.2-30.3-14.1-30.2-30.9,0-16.9,13.7-30.4,30.7-30.3,17.2,0,30.7,13.6,30.6,30.8h0Z"/>
    </g>
  </g>
</svg>