<?xml version="1.0" encoding="UTF-8"?>
<svg id="b" data-name="Layer 2" xmlns="http://www.w3.org/2000/svg" width="510.781" height="512" viewBox="0 0 510.781 512">
  <defs>
    <style>
      .d {
        fill: #fff;
        stroke-width: 0px;
      }
    </style>
  </defs>
  <g id="c" data-name="Layer 1">
    <path class="d" d="M332.781,512h-154c-3.13-.274-6.257-.714-9.392-.794-20.487-.524-40.945-1.326-60.974-6.238-42.103-10.326-73.445-34.27-92.106-73.743-11.535-24.398-15.106-50.63-15.393-77.266C.319,298.504-.291,243.04.152,187.588c.186-23.239,1.588-46.672,5.003-69.635C10.478,82.163,27.747,52.454,57.044,30.501,82.15,11.689,111.208,4.206,141.942,2.038c12.267-.866,24.559-1.369,36.84-2.038,51,0,102,0,153,0,11.944.662,23.89,1.289,35.832,1.994,20.904,1.234,41.371,4.836,60.549,13.462,47.064,21.17,71.861,58.879,79.575,108.88,1.363,8.834,2.047,17.773,3.044,26.664v206c-.278,1.785-.629,3.562-.821,5.355-1.081,10.074-1.591,20.243-3.278,30.214-5.434,32.131-19.16,59.988-43.833,81.873-26.74,23.718-58.932,33.181-93.768,35.54-12.09.819-24.199,1.354-36.3,2.018ZM255.827,466.753c.006-.263.012-.526.019-.789,13.499,0,27.012.4,40.494-.082,28.948-1.036,58.041-1.047,86.777-4.194,39.147-4.286,67.172-29.508,75.999-67.155,3.691-15.741,5.089-32.283,5.406-48.503.927-47.48,1.246-94.984.875-142.471-.193-24.783-.988-49.71-3.904-74.288-4.878-41.115-30.819-69.065-71.294-77.11-17.673-3.513-36.031-4.607-54.106-4.871-47.984-.701-95.988-.786-143.973-.23-22.266.258-44.728,1.071-66.714,4.286-39.023,5.708-65.561,31.111-73.477,69.718-3.419,16.677-4.566,34.011-4.93,51.085-.877,41.148-1.198,82.324-.746,123.478.316,28.789,1.05,57.68,3.849,86.305,2.846,29.114,16.727,52.839,42.708,68.003,16.163,9.433,34.128,13.33,52.592,13.979,36.796,1.294,73.615,1.931,110.424,2.839Z"/>
    <path class="d" d="M124.176,255.931c.106-72.626,59.325-131.648,131.788-131.351,72.848.298,131.681,59.398,131.235,131.827-.448,72.707-59.112,131.242-131.464,131.175-72.616-.066-131.665-59.157-131.558-131.651ZM255.283,341.249c47.237.218,85.359-37.45,85.657-84.636.298-47.216-37.349-85.425-84.517-85.779-47.419-.356-85.706,37.476-85.909,84.888-.202,47.166,37.604,85.31,84.769,85.527Z"/>
    <path class="d" d="M423.048,119.577c-.117,17.116-13.92,30.616-31.098,30.416-16.734-.195-30.261-14.062-30.165-30.921.096-16.856,13.74-30.356,30.666-30.344,17.208.013,30.715,13.631,30.596,30.849Z"/>
  </g>
</svg>