<?xml version="1.0" encoding="UTF-8"?>
<svg id="Layer_2" data-name="Layer 2" xmlns="http://www.w3.org/2000/svg" viewBox="0 0 74.05 51.96">
  <defs>
    <style>
      .cls-1 {
        fill: #000;
        stroke-width: 0px;
      }
    </style>
  </defs>
  <g id="Layer_1-2" data-name="Layer 1">
    <path class="cls-1" d="M36.88,0c7.6.3,15.2.57,22.8.91,1.79.08,3.59.32,5.35.64,4.27.78,7.01,3.66,7.82,8.14,1.12,6.2,1.34,12.47,1.14,18.74-.14,4.38-.57,8.76-.99,13.13-.31,3.23-1.61,5.98-4.46,7.81-1.72,1.11-3.67,1.42-5.64,1.63-7.65.81-15.34.99-23.02.95-7.71-.04-15.41-.27-23.12-.52-2.51-.08-5.02-.4-7.51-.77-4.2-.62-7.18-3.49-7.91-7.83-.56-3.31-.86-6.67-1.1-10.02-.38-5.42-.28-10.84.17-16.26.21-2.53.49-5.07,1.01-7.55C2.35,4.57,5.45,1.9,9.93,1.34,17.14.44,24.39.36,31.63.24c1.75-.03,3.49,0,5.24,0,0-.08,0-.16,0-.24ZM29.7,37.17c6.43-3.7,12.77-7.36,19.23-11.07-6.46-3.72-12.81-7.38-19.23-11.07v22.15Z"/>
  </g>
</svg>