<svg xmlns="http://www.w3.org/2000/svg" width="160.588" height="128.235" viewBox="0 0 160.588 128.235">
  <defs>
    <style>
      .a {
        fill: #fff;
      }
    </style>
  </defs>
  <g>
    <rect width="160.588" height="128.235"/>
    <g>
      <path class="a" d="M34.826,72.227V56.009c0-3.376,1.2-4.763,3.661-4.763,2.554,0,3.532,1.387,3.532,4.763v6.057H38.864V55c0-.568-.158-.758-.442-.758s-.441.19-.441.758V73.236c0,.568.157.758.441.758s.442-.19.442-.758V63.96h3.155v8.267c0,3.375-1.2,4.763-3.66,4.763C35.805,76.99,34.826,75.6,34.826,72.227Z"/>
      <path class="a" d="M43.285,72.227V56.009c0-3.376,1.2-4.763,3.661-4.763,2.555,0,3.533,1.387,3.533,4.763V72.227c0,3.375-1.2,4.763-3.66,4.763C44.264,76.99,43.285,75.6,43.285,72.227Zm4.039,1.009V55c0-.568-.158-.758-.442-.758s-.442.19-.442.758V73.236c0,.568.158.758.442.758S47.324,73.8,47.324,73.236Z"/>
      <path class="a" d="M63.892,51.5v25.24H60.738l.377-19.781h-.283L59.191,76.738H56.6l-1.64-19.781H54.68l.378,19.781H51.9V51.5h5.08L57.9,63.549h.221L59.065,51.5Z"/>
      <path class="a" d="M65.476,51.5h3.155v25.24H65.476Z"/>
      <path class="a" d="M78.73,51.5v25.24H74.943l-2.082-16.5h-.284l.7,16.5H70.211V51.5H74L76.08,68h.284l-.7-16.5Z"/>
      <path class="a" d="M84.193,62.066V55c0-.568-.158-.758-.442-.758s-.441.19-.441.758V73.236c0,.568.157.758.441.758s.442-.19.442-.758V63.96h3.156V76.738H85.171V73.961H84.95c-.127,2.24-.883,3.029-2.3,3.029-1.609,0-2.493-.915-2.493-3.659V56.009c0-3.376,1.2-4.763,3.66-4.763,2.556,0,3.535,1.387,3.535,4.763v6.057Z"/>
      <path class="a" d="M91.77,72.227V69.164h3.154v4.072c0,.568.158.758.442.758s.442-.19.442-.758V71.88c0-5.49-4.038-9.151-4.038-15.3v-.567c0-3.376,1.2-4.763,3.659-4.763,2.556,0,3.534,1.387,3.534,4.763v3.059H95.808V55c0-.568-.158-.758-.442-.758s-.442.19-.442.758v1.356c0,5.49,4.039,9.151,4.039,15.3v.568c0,3.375-1.2,4.763-3.66,4.763C92.749,76.99,91.77,75.6,91.77,72.227Z"/>
      <path class="a" d="M100.166,72.227V56.009c0-3.376,1.2-4.763,3.66-4.763,2.556,0,3.535,1.387,3.535,4.763V72.227c0,3.375-1.2,4.763-3.661,4.763C101.145,76.99,100.166,75.6,100.166,72.227Zm4.039,1.009V55c0-.568-.158-.758-.442-.758s-.441.19-.441.758V73.236c0,.568.157.758.441.758S104.205,73.8,104.205,73.236Z"/>
      <path class="a" d="M108.626,72.227V56.009c0-3.376,1.2-4.763,3.66-4.763,2.556,0,3.534,1.387,3.534,4.763V72.227c0,3.375-1.2,4.763-3.66,4.763C109.605,76.99,108.626,75.6,108.626,72.227Zm4.039,1.009V55c0-.568-.158-.758-.442-.758s-.441.19-.441.758V73.236c0,.568.157.758.441.758S112.665,73.8,112.665,73.236Z"/>
      <path class="a" d="M125.762,51.5v25.24h-3.786l-2.082-16.5h-.284l.7,16.5h-3.061V51.5h3.786L123.113,68h.283L122.7,51.5Z"/>
    </g>
  </g>
</svg>
