<svg xmlns="http://www.w3.org/2000/svg" width="498.986" height="396.688" viewBox="0 0 498.986 396.688">
  <defs>
    <style>
      .a {
        fill: #fff;
      }

      .b, .c {
        fill: none;
        stroke: #000;
        stroke-miterlimit: 10;
      }

      .b {
        stroke-width: 14px;
      }

      .c {
        stroke-width: 11px;
      }
    </style>
  </defs>
  <g>
    <rect class="a" x="7.798" y="6.617" width="484.986" height="387.823" rx="14.637"/>
    <path d="M249.779,259.574a21.81,21.81,0,0,1-15.04-5.993L14.584,44.962A21.865,21.865,0,0,1,29.623,7.226H469.934a21.865,21.865,0,0,1,15.039,37.736L264.819,253.581A21.81,21.81,0,0,1,249.779,259.574ZM29.623,21.226A7.865,7.865,0,0,0,24.214,34.8l220.155,208.62a7.868,7.868,0,0,0,10.82,0L475.344,34.8a7.865,7.865,0,0,0-5.41-13.573Z"/>
    <path d="M470.432,394.018H30.121a21.865,21.865,0,0,1-15.039-37.736L235.238,147.664a21.863,21.863,0,0,1,30.078,0L485.471,356.282a21.865,21.865,0,0,1-15.039,37.736ZM250.277,155.67a7.844,7.844,0,0,0-5.41,2.155h0L24.712,366.445a7.864,7.864,0,0,0,5.409,13.573H470.432a7.865,7.865,0,0,0,5.411-13.573L255.686,157.826A7.838,7.838,0,0,0,250.277,155.67Z"/>
    <rect class="b" x="7" y="7" width="484.986" height="382.688" rx="14.637"/>
    <polygon class="a" points="249.166 251.259 490.848 19.261 7.484 19.261 249.166 251.259"/>
    <path class="c" d="M260.826,249.779,487.514,35.007c9.865-9.346,3.25-25.944-10.339-25.944H23.8c-13.589,0-20.2,16.6-10.339,25.944L240.149,249.779A15.032,15.032,0,0,0,260.826,249.779Z"/>
  </g>
</svg>
