<svg xmlns="http://www.w3.org/2000/svg" width="259.552" height="346.217" viewBox="0 0 259.552 346.217">
  <defs>
    <style>
      .a {
        fill: #fff;
      }
    </style>
  </defs>
  <g>
    <path class="a" d="M258.765,91.165l.176-.247L131.654.005l-.079.112L131.493,0,.477,91.165H0V346.217H259.552V91.165ZM9,337.217V96.2L131.5,10.958,250.552,95.986V337.217Z"/>
    <polygon class="a" points="145.878 189.243 145.878 240.53 140.536 240.53 140.536 189.243 140.406 189.243 140.406 59.92 124.228 59.92 124.228 111.206 118.886 111.206 118.886 59.92 102.708 59.92 102.708 189.355 118.886 189.355 118.886 126.581 124.228 126.581 124.228 189.355 124.358 189.355 124.358 318.678 140.536 318.678 140.536 255.904 145.878 255.904 145.878 318.678 162.056 318.678 162.056 189.243 145.878 189.243"/>
  </g>
</svg>
