<svg xmlns="http://www.w3.org/2000/svg" width="256.67" height="379.238" viewBox="0 0 256.67 379.238">
  <defs>
    <style>
      .a {
        fill: none;
        stroke: #000;
        stroke-miterlimit: 10;
        stroke-width: 6px;
      }
    </style>
  </defs>
  <g>
    <polyline class="a" points="253.67 125.687 253.67 376.238 3.119 376.238 3.119 125.687"/>
    <g>
      <line class="a" x1="2.121" y1="130.049" x2="130.049" y2="2.121"/>
      <line class="a" x1="254.003" y1="129.06" x2="128.727" y2="3.784"/>
    </g>
    <g>
      <path d="M88.517,194.716V307.21H74.457V252.652H69.814V307.21H55.754V194.716h14.06V239.29h4.643V194.716Z"/>
      <path d="M113.009,263.62h-5.765l-1.832,43.59H92.336l6.75-112.494h22.779l6.75,112.494H114.7Zm-.424-12.663L110.9,208.776h-1.265l-1.826,42.181Z"/>
      <path d="M149.871,263.62h-5.765l-1.832,43.59H129.2l6.749-112.494h22.78l6.749,112.494H151.56Zm-.424-12.663-1.688-42.181h-1.266l-1.826,42.181Z"/>
      <path d="M168.311,287.1V273.467h14.06V291.6c0,2.53.7,3.377,1.97,3.377s1.969-.847,1.969-3.377v-6.046c0-24.468-18-40.784-18-68.206v-2.531c0-15.045,5.347-21.227,16.31-21.227,11.393,0,15.749,6.182,15.749,21.227V228.47H186.31V210.322c0-2.531-.7-3.378-1.969-3.378s-1.97.847-1.97,3.378v6.045c0,24.468,18,40.784,18,68.207v2.53c0,15.045-5.341,21.228-16.31,21.228C172.673,308.332,168.311,302.149,168.311,287.1Z"/>
    </g>
  </g>
</svg>
