<?xml version="1.0" encoding="utf-8"?>
<!-- Generator: Adobe Illustrator 25.0.1, SVG Export Plug-In . SVG Version: 6.00 Build 0)  -->
<svg version="1.1" id="Layer_1" xmlns="http://www.w3.org/2000/svg" xmlns:xlink="http://www.w3.org/1999/xlink" x="0px" y="0px"
	 viewBox="0 0 157.2 160.5" style="enable-background:new 0 0 157.2 160.5;" xml:space="preserve">
<g>
	<path d="M155.9,153.1c-1.3-14.7-1.5-29.7-1.6-44.2c-0.1-15.1-0.3-30.8-1.8-46.1l0-0.3l-0.5-0.8c-0.4-0.6-0.8-1.2-1.3-1.9
		c-0.2-0.2-0.3-0.5-0.5-0.7l-0.4-0.6l0,0l-2.2-3.2l0,0.2c-0.8-1.2-1.7-2.4-2.7-3.4c-7.7-10.1-16.6-20.6-27.2-32.3
		c-1.5-1.7-3-3.6-4.5-5.5c-3.9-4.8-7.9-9.7-12.6-13.4l-0.5-0.4l-0.1,0c-0.9-0.5-2-0.5-3-0.2l-0.3,0.1l-0.2,0.2
		c-1.8,1.3-3.7,2.4-5.7,3.2v0C89.4,4.3,88.1,5,86.9,6l0,0c-4,2.7-8.1,5.4-12.1,8C56.6,26,37.8,38.4,20,51.5c-0.2-0.4-0.5-0.7-0.8-1
		c-0.9-0.7-2.1-1-3.3-0.8l-0.3,0.1c-2.7,0.9-2.9,3.6-3.1,5.5c0,0.4-0.1,0.9-0.1,1.3v0l0,0l0,0v0l0,0v0l0,0v0c0,0.2-0.1,0.4-0.1,0.6
		c-0.1,0.5-0.2,0.9-0.3,1.5c-3.9,21.2-6.4,43-8.8,64c-1,8.6-2,17.6-3.2,26.3l0,0.1c0,0.2,0,0.3,0,0.5c0,1,0.2,1.9,0.2,2.9
		c0,1.3-0.5,2.5,0.2,3.8c1.2,2.2,4,2,6.1,2.1c1.8,0.1,3.7,0.1,5.5,0c1.1,0.3,2.3,0.3,3.4,0c0.2,0,0.4-0.1,0.5-0.1c0.7,0,1.4,0,2,0
		c0.1,0,0.2,0,0.4,0c10.3-0.2,20.8-0.2,31-0.2c4,0,8,0,12,0h0.3c3,0.1,6,0.2,9,0.3c6.8,0.3,13.9,0.5,20.8,0.4
		c3.6,0.1,7.3,0.1,10.9,0.1c2.8,0,5.6,0,8.5,0l0,0c0.2,0,0.3,0,0.5,0c5.8-0.1,11.9,0.4,17.8,0.8c5.6,0.4,11.4,0.8,17.1,0.8
		c2.6,0,5.2-0.1,7.8-0.3l0.4,0l0.3-0.3c1.3-0.8,2.2-2.3,2.4-3.9C157.2,154.9,156.7,153.8,155.9,153.1z M146.8,63.6
		c-1.5,20.9-1.1,42.2-0.7,62.8c0.2,8,0.3,16.3,0.4,24.5c-4,0-8.1-0.1-12.1-0.2c-5.9-0.1-12-0.3-18-0.1l0,0c-4.2,0-8.4,0-12.6-0.1
		c-3.3,0-6.6-0.1-9.9-0.1l0,0l-1,0v0c-5.2,0.2-10.5,0.3-15.7,0.4c-14.3,0.3-29,0.7-43.5,1.7l-0.1,0c-2.4,0.2-4.8,0.2-7.2,0.1
		c-2.1-0.1-4-0.1-5.7-0.1l-0.1,0c-2.9,0.4-5.9,0.3-8.8-0.2c-1.3-0.2-2.5-0.8-3.4-1.8c-0.7-0.9-1.1-2-1-3.1c0,0-0.1-0.1-0.1-0.1
		l0.1-0.1l0-0.3c0.7-5.4,1.9-10.9,3.1-16.1c0.3-1.1,0.5-2.3,0.8-3.5l0,0l0-0.1l0-0.1l0,0c3.6-20.2,6.4-40.2,8.3-59.2l0-0.1v-0.1
		c0.1-1.4,0.4-2.7,0.9-4c0.7-1.6,1-3.3,1-5.1c3.1-1.7,6-3.8,8.7-6.1c2.5-2.1,5.2-4,8-5.6l0.1-0.1c17-10.7,29.7-19.5,41.3-28.5l0,0
		l0.4-0.3l0,0c5.6-4.4,11.6-8.2,18-11.3c0.9,1.4,1.8,2.7,2.9,4c0.5,0.6,1,1.3,1.5,2l0,0l0,0l0,0h0h0l0,0h0l0,0l0,0l0.2,0.2l0,0
		l0.8,1.1l0,0c7.1,9.8,15.6,18.5,23.9,26.8c1.6,1.6,3.1,3.2,4.7,4.8l0.2,0.2c1.4,1.4,2.8,2.9,4.1,4.4c1.9,2.2,4,4.6,5.9,6.5
		c0.7,0.8,1.5,1.8,2.2,2.8l0,0l0,0c0.1,0.2,0.2,0.3,0.3,0.4c0.2,0.2,0.3,0.4,0.5,0.7c0.3,0.5,0.7,0.9,1.2,1.3l0,0
		c0.1,0.1,0.2,0.2,0.4,0.4l0.1,0.1L146.8,63.6z"/>
	<path d="M107.2,92.4c-0.2-6.5-1.2-14.1-6.4-14.2h-0.1l-0.9,0c-26.5,1.3-33.3,2.2-35.1,3.4l0,0c-0.6-0.6-1.5-0.7-2.3-0.5
		c-0.8,0.3-1.3,0.9-1.5,1.7l0,0.2c-0.4,4.5-1.1,9-1.9,13.4c-0.1,0.6-0.2,1.2-0.3,1.7c-0.5,0-1,0-1.5,0c-3.2,0-6.2,0-7.8,1.6
		c-0.6,0.6-0.9,1.4-0.9,2.3v0.3l0.1,0.3c1,2.3,3.3,1.9,4.4,1.6c0.4-0.1,0.7-0.1,1.1-0.1l0.2,0l0.2,0c1.1,0,2.2-0.1,3.3-0.1
		c-0.4,2.5-0.6,4.6-0.8,6.6l0,0l0,0.5l0,0c0,0.6-0.1,1.3-0.1,1.9h0c-0.1,0.8-0.2,1.7-0.4,2.5c-0.4,2.3-0.9,4.9,0.6,6.7
		c1,1.1,2.5,1.7,4.1,1.6c2.9-0.1,5.9-0.2,8.8-0.3c9.9-0.3,20-0.7,30-2c1.1,0.1,2.3-0.2,3.3-0.8c1-0.2,1.8-0.7,2.5-1.4l0.1-0.1
		c1.4-1.9,1.2-4.2,1-6.2c-0.1-1-0.2-2,0-3l0-0.2l0-0.2c-0.1-1.2,0-3.2,0.2-5.6c0.1-1.3,0.1-2.8,0.2-4.2c1.8-0.2,3.5-1.1,4.6-2.6
		l0.1-0.2l0.1-0.3c0.2-1.1-0.1-2.3-0.9-3.1C109.9,92.4,108.5,92.1,107.2,92.4z M75.9,115.7c-4.2,0.2-8.5,0.4-12.7,0.7
		c0.1-0.4,0.1-0.8,0.1-1.2h0c0.1-3.9,0.5-7.9,0.8-11.8v0c4.4-0.3,8.9-0.6,13.6-1l-0.3,4.1c-0.4,2.5-0.4,5,0,7.5l0.1,0.3l0.2,0.2
		c0.3,0.4,0.6,0.7,1,1C77.7,115.7,76.8,115.7,75.9,115.7z M97.5,113.9c-5.1,0.8-10.2,1.3-15.3,1.5c0.9-0.7,1.5-1.8,1.5-2.9
		c0.2-3.5,0.2-7,0-10.5c4.5-0.4,9.2-0.9,14.3-1.5C97.4,105,97.3,109.4,97.5,113.9z M98.5,93.6c-5.8,0.8-10.7,1.4-15.1,1.9
		c0-0.6,0-1.3,0-1.9l0-0.1c0-0.6,0-1.1,0.1-1.7c0.3-2,0.7-5.3-2.2-6.1l-0.7-0.2l-0.6,0.5c-2,1.6-2,5.7-2,10.2
		c-4.8,0.5-9.2,0.9-13.5,1.3c0.1-1.4,0.2-2.8,0.4-4.2c0.3-2.2,0.5-4.3,0.4-6.5l-1,0.1l1-0.3l-0.4,0.1l0.4-0.1
		c-0.1-0.7-0.1-1.4,0-2.1c1.1,0.4,2.3,0.6,3.5,0.7v0c0.1,0,0.2,0,0.3,0v0c2.8,0,5.7,0,8.5,0.1c7,0.2,14,0,20.9-0.6
		C98.7,87.6,98.8,90.6,98.5,93.6L98.5,93.6z"/>
</g>
</svg>
