<?xml version="1.0" encoding="utf-8"?>
<!-- Generator: Adobe Illustrator 25.1.0, SVG Export Plug-In . SVG Version: 6.00 Build 0)  -->
<svg version="1.1" id="Layer_1" xmlns="http://www.w3.org/2000/svg" xmlns:xlink="http://www.w3.org/1999/xlink" x="0px" y="0px"
	 viewBox="0 0 277.2 93" style="enable-background:new 0 0 277.2 93;" xml:space="preserve">
<style type="text/css">
	.st0{fill:#FFFFFF;}
</style>
<g>
	
		<image style="overflow:visible;opacity:0.45;" width="1231" height="464" xlink:href="D31871463E61753B.png"  transform="matrix(0.24 0 0 0.24 -7.08 -7.177)">
	</image>
	<g>
		<g>
			<path class="st0" d="M26.6,0.9v91.2H15.2V47.9h-3.8v44.2H0V0.9h11.4V37h3.8V0.9H26.6z"/>
			<path class="st0" d="M46.4,56.8h-4.7l-1.5,35.3H29.6l5.5-91.2h18.5l5.5,91.2H47.8L46.4,56.8z M46.1,46.5l-1.4-34.2h-1l-1.5,34.2
				H46.1z"/>
			<path class="st0" d="M76.3,56.8h-4.7l-1.5,35.3H59.5L65,0.9h18.5l5.5,91.2H77.6L76.3,56.8z M75.9,46.5l-1.4-34.2h-1L72,46.5H75.9
				z"/>
			<path class="st0" d="M91.2,75.8V64.8h11.4v14.7c0,2.1,0.6,2.7,1.6,2.7s1.6-0.7,1.6-2.7v-4.9c0-19.8-14.6-33.1-14.6-55.3v-2.1
				C91.2,5,95.5,0,104.4,0c9.2,0,12.8,5,12.8,17.2v11.1h-11.4V13.6c0-2.1-0.6-2.7-1.6-2.7s-1.6,0.7-1.6,2.7v4.9
				c0,19.8,14.6,33.1,14.6,55.3v2.1C117.2,88,112.9,93,104,93C94.7,93,91.2,88,91.2,75.8z"/>
			<path class="st0" d="M160.1,0.9v91.2h-11.4V47.9h-3.8v44.2h-11.4V0.9h11.4V37h3.8V0.9H160.1z"/>
			<path class="st0" d="M165.2,75.8V17.2C165.2,5,169.5,0,178.4,0c9.2,0,12.8,5,12.8,17.2v58.6c0,12.2-4.3,17.2-13.2,17.2
				C168.7,93,165.2,88,165.2,75.8z M179.8,79.5V13.6c0-2.1-0.6-2.7-1.6-2.7s-1.6,0.7-1.6,2.7v65.9c0,2.1,0.6,2.7,1.6,2.7
				S179.8,81.5,179.8,79.5z"/>
			<path class="st0" d="M195.7,75.8V0.9h11.4v78.5c0,2.1,0.6,2.7,1.6,2.7s1.6-0.7,1.6-2.7V0.9h11.4v74.9c0,12.2-4.3,17.2-13.2,17.2
				C199.3,93,195.7,88,195.7,75.8z"/>
			<path class="st0" d="M226.1,75.8V64.8h11.4v14.7c0,2.1,0.6,2.7,1.6,2.7s1.6-0.7,1.6-2.7v-4.9c0-19.8-14.6-33.1-14.6-55.3v-2.1
				C226.1,5,230.4,0,239.3,0c9.2,0,12.8,5,12.8,17.2v11.1h-11.4V13.6c0-2.1-0.6-2.7-1.6-2.7s-1.6,0.7-1.6,2.7v4.9
				c0,19.8,14.6,33.1,14.6,55.3v2.1C252,88,247.7,93,238.8,93C229.6,93,226.1,88,226.1,75.8z"/>
			<path class="st0" d="M277.2,81.3v10.8h-20.3V0.9h19.7v10.8h-8.3V37h7.8v10.8h-7.8v33.4L277.2,81.3z"/>
		</g>
	</g>
</g>
</svg>
