<?xml version="1.0" encoding="utf-8"?>
<!-- Generator: Adobe Illustrator 25.1.0, SVG Export Plug-In . SVG Version: 6.00 Build 0)  -->
<svg version="1.1" id="Layer_1" xmlns="http://www.w3.org/2000/svg" xmlns:xlink="http://www.w3.org/1999/xlink" x="0px" y="0px"
	 viewBox="0 0 167.1 202.9" style="enable-background:new 0 0 167.1 202.9;" xml:space="preserve">
<style type="text/css">
	.st0{fill:#FFFFFF;}
</style>
<g>
	<path class="st0" d="M105,117.6l0,0.2c-7.1-9.7-29-1.1-37,2.4c-7.1,1.6-10.9,9-1.2,5.5c-3.2,6.2-0.7,15-2.6,21.6h0h0
		c-0.2,1.3-0.4,2.6-0.6,3.9c-0.7,7.9-6.5,23.9,10.1,19.5c7.3,0.1,14.8,0.4,22-1.1C109,168.9,107.1,128.9,105,117.6z M78.9,156.3
		c-1.4,3.5-1.3,7.4-0.3,9.4c-18.4,3.5-6.8-13.9-7.5-22.3c3.2,0.2,6.4,0.3,9.6,0.2C80.3,147.7,79.7,152,78.9,156.3L78.9,156.3z
		 M89.4,118.4c16.8-2.9,8.7,12.1,10.8,20.5c-4.1-0.4-8.3,0.5-12.4,0.6C88.9,131.7,90.2,122.1,89.4,118.4z M84.5,159.7
		c0.1-0.7,0.2-1.5,0.4-2.2l0,0c0.1-0.4,0.1-0.8,0.2-1.2l0,0c0.2-1,0.3-1.9,0.5-2.9l0,0c0.1-0.3,0.1-0.7,0.2-1l0,0
		c0.3-1.5,0.5-3.1,0.8-4.6l0,0c0.7-3.2-0.3-5,4.6-4.5h0c2.3-0.3,5.7,0.1,8.4,0.2c-0.4,10.6,1.3,24.7-16.3,21.9
		C83.9,163.6,84.3,161.7,84.5,159.7L84.5,159.7z M84.2,119.2c-0.2,2-0.6,4.2-1.1,6.5l0,0l-0.1,0.4l0,0l-0.2,1.1l0,0
		c-0.7,4-1.2,8.1-1.6,11.9c-3.2-0.1-6.4-0.3-9.6-0.4C72.4,125.8,66.6,122.5,84.2,119.2L84.2,119.2z"/>
	<path class="st0" d="M166.5,136.7l-1.2,0l0,0L166.5,136.7c-0.5-6.9-0.9-14.4,0-21.4h0.1c0.3-1.5-0.4-3.6,0.2-4.7
		c-0.2-0.5-0.3-1-0.3-1.6h-0.1c2.1-8.5-4.4-3.7-8.3-8.3c-7.6-6.9-16-13.3-23.4-20.4c-10.6-9-19.3-19.9-30.5-28.3
		c-7.5-4.9-16.3-8.9-24.2-13c-0.7,0-1.7,0.1-2.3,0.2c-1.5,1.1-2.7,2.9-4.1,4.2l0,0C63,54.7,51.3,65.1,40,75.8l0,0
		c-0.5,0.5-2.3,2.3-2.8,2.8l0,0c-2.8,3.1-6.8,5.5-10,8.5l0,0c-3.1,3-6.3,5.9-9.2,9.1l0,0c-3.3,3.4-7.1,6.2-9.7,10l0,0
		c-2.1,2.2-2.4,7.6,2.6,5.2c-0.2,8.6-2.2,17-3.1,25.5h0c-0.5,3.5-1.3,7-1.7,9.8h0l-0.3,2.4h0c-1.5,10.7-3.1,21.3-4.2,32h0
		c-0.4,3.6-0.3,6.9-1,10.4l-0.1,0c-1.5,6.5-0.3,15.1,4.5,9.6c27.4-0.5,54.5-1.9,82-1.7C165.1,198,169.2,204.5,166.5,136.7z
		 M149.2,190.2c-47,2.3-94.6,1.7-141.8,3.9c0.1-0.3,0.2-0.7,0.2-1.1h0l0.1-0.8h0c1.5-16.5,4.6-32.9,7.1-49.3l0.1,0
		c0-0.3,0.2-1.2,0.2-1.5h0c0.4-3.4,1.1-6.8,1.6-10.3l0.1,0l0.3-2.4l-0.1,0c0.6-8.3,2.4-16.7,0.9-23.3C32,90.7,48.1,77.9,65.2,60.7
		l0,0c5.2-5,10.6-9.8,15.5-14.9c2.1,1,3.9,2.1,6.1,3c8.2,4,16.4,8.6,22.1,14.9c10.3,10.2,20.3,20.6,31.6,30.1
		c6.4,4.7,11.1,12.1,19.3,14.8c-0.9,4.5-1,9.1-1.5,13.6h-0.1c0,0.5-0.1,1.4-0.2,1.9l0.1,0c-0.4,10.2,3,19.9,2.2,30h0
		C158.8,166.1,162.4,182.6,149.2,190.2L149.2,190.2z"/>
</g>
</svg>
