<svg xmlns="http://www.w3.org/2000/svg" width="167.074" height="202.877" viewBox="0 0 167.074 202.877">
  <g>
    <path d="M105.027,97.356l-.027.235c-7.055-12-28.973-1.388-37.037,2.97-7.115,1.95-10.934,11.165-1.207,6.81-3.219,7.694-.7,18.616-2.613,26.7l.007,0-.014,0c-.243,1.6-.412,3.219-.648,4.823-.7,9.8-6.483,29.557,10.123,24.2,7.287.16,14.769.508,21.964-1.378C109.011,160.785,107.124,111.236,105.027,97.356ZM78.851,145.214c-1.362,4.308-1.271,9.112-.259,11.646-18.423,4.329-6.828-17.215-7.488-27.657a81.937,81.937,0,0,0,9.641.3c-.469,5.054-1.018,10.392-1.9,15.709Zm10.508-46.94c16.772-3.641,8.675,14.991,10.792,25.341-4.078-.528-8.285.679-12.374.8C88.927,114.746,90.24,102.853,89.359,98.274Zm-4.9,51.185c.13-.9.238-1.8.366-2.706h0q.108-.733.21-1.471h0c.173-1.195.309-2.389.492-3.582h0c.062-.43.123-.858.183-1.287h0c.279-1.882.487-3.776.776-5.658h0c.683-4.012-.281-6.15,4.616-5.549h.014c2.292-.433,5.711.18,8.359.275-.443,13.145,1.29,30.556-16.33,27.062A28.442,28.442,0,0,0,84.458,149.459Zm-.28-50.12c-.214,2.484-.571,5.143-1.081,8.073h0l-.072.482h0l-.2,1.374h0c-.687,4.959-1.165,10.076-1.582,14.7-3.2-.162-6.352-.354-9.584-.472C72.4,107.442,66.569,103.43,84.178,99.339Z"/>
    <path d="M166.507,120.907l-1.236.057h0l1.236-.061c-.525-8.519-.873-17.856,0-26.52h.07c.309-1.8-.422-4.445.183-5.809a4.639,4.639,0,0,1-.307-1.924h-.057c2.122-10.48-4.383-4.565-8.263-10.284-7.64-8.573-15.989-16.507-23.363-25.31-10.6-11.144-19.3-24.583-30.455-34.975C96.811,10.015,88.049,5.116,80.085,0c-.668.06-1.655.161-2.319.243-1.542,1.337-2.65,3.607-4.11,5.231l.02.017C62.968,19.476,51.331,32.269,39.964,45.532l-.042-.034c-.523.627-2.255,2.837-2.789,3.515l.033.028c-2.811,3.836-6.8,6.818-10,10.478l-.022-.014c-3.074,3.736-6.318,7.277-9.219,11.232l.03.023c-3.278,4.16-7.134,7.666-9.737,12.44l-.049-.024c-2.1,2.676-2.375,9.37,2.612,6.458-.2,10.636-2.161,21.007-3.082,31.607h.016c-.465,4.35-1.268,8.677-1.65,12.093l-.036,0-.3,2.927.012,0c-1.494,13.265-3.131,26.32-4.17,39.659l.041,0c-.391,4.414-.338,8.554-.952,12.923L.6,188.84c-1.487,8.075-.3,18.653,4.529,11.868,27.392-.579,54.533-2.382,81.984-2.166C165.133,196.883,169.217,204.893,166.507,120.907Zm-17.333,66.236c-47.043,2.822-94.645,2.085-141.846,4.774.082-.418.158-.859.217-1.311l.016,0,.107-1.046.012,0c1.487-20.377,4.648-40.67,7.081-60.981l.115.012c.045-.428.151-1.485.168-1.9l.047,0c.435-4.195,1.122-8.367,1.6-12.721l.121.012.307-2.922-.1-.015c.594-10.239,2.353-20.693.858-28.826,14.089-18.241,30.2-34.022,47.288-55.36l-.006-.007C70.355,20.709,75.8,14.747,80.669,8.365c2.111,1.193,3.923,2.649,6.1,3.759C95,17.129,103.19,22.716,108.876,30.6,119.2,43.177,129.209,56.114,140.5,67.839c6.431,5.805,11.061,15.016,19.331,18.261-.925,5.54-.981,11.243-1.549,16.8l-.072,0c-.01.577-.106,1.733-.192,2.3l.09.011c-.4,12.613,2.975,24.642,2.221,37.2h-.045C158.76,157.356,162.414,177.785,149.174,187.143Z"/>
  </g>
</svg>
