<svg xmlns="http://www.w3.org/2000/svg" width="277.238" height="93.023"  xmlns:v="https://vecta.io/nano"><path d="M26.562.912v91.2h-11.4V47.879H11.4v44.232H0V.912h11.4V37.05h3.762V.912zM46.4 56.771h-4.677l-1.482 35.34h-10.6L35.111.912h18.468l5.472 91.2H47.765zm-.341-10.26l-1.368-34.2h-1.03l-1.482 34.2zm30.205 10.26H71.59l-1.482 35.34h-10.6L64.979.912h18.467l5.472 91.2H77.632zm-.342-10.26l-1.368-34.2h-1.026l-1.482 34.2zM91.2 75.809V64.751h11.4v14.706c0 2.052.569 2.736 1.595 2.736s1.6-.684 1.6-2.736v-4.9C105.789 54.719 91.2 41.5 91.2 19.266v-2.052C91.2 5.016 95.529 0 104.421 0c9.234 0 12.768 5.016 12.768 17.214v11.058h-11.4V13.566c0-2.052-.569-2.736-1.6-2.736s-1.595.684-1.595 2.736v4.9c0 19.836 14.591 33.059 14.591 55.289v2.052c0 12.2-4.332 17.214-13.224 17.214-9.23.002-12.761-5.014-12.761-17.212zM160.051.912v91.2h-11.4V47.879h-3.761v44.232h-11.4V.912h11.4V37.05h3.761V.912zm5.13 74.897V17.214C165.181 5.016 169.513 0 178.4 0c9.234 0 12.768 5.016 12.768 17.214v58.6c0 12.2-4.332 17.214-13.224 17.214-9.23-.005-12.763-5.021-12.763-17.219zm14.591 3.648V13.566c0-2.052-.57-2.736-1.6-2.736s-1.6.684-1.6 2.736v65.891c0 2.052.57 2.736 1.6 2.736s1.6-.684 1.6-2.736zm15.959-3.648V.912h11.4v78.545c0 2.052.57 2.736 1.6 2.736s1.6-.684 1.6-2.736V.912h11.4v74.9c0 12.2-4.332 17.214-13.224 17.214-9.242-.003-12.776-5.019-12.776-17.217zm30.323 0V64.751h11.4v14.706c0 2.052.569 2.736 1.6 2.736s1.6-.684 1.6-2.736v-4.9c0-19.836-14.592-33.059-14.592-55.289v-2.054C226.054 5.016 230.386 0 239.277 0c9.235 0 12.769 5.016 12.769 17.214v11.058h-11.4V13.566c0-2.052-.57-2.736-1.6-2.736s-1.6.684-1.6 2.736v4.9c0 19.836 14.592 33.059 14.592 55.289v2.052c0 12.2-4.332 17.214-13.225 17.214-9.225.002-12.759-5.014-12.759-17.212zm51.184 5.472v10.83h-20.292V.912h19.722v10.83h-8.321V37.05h7.753v10.829h-7.752v33.4z"/></svg>