<svg xmlns="http://www.w3.org/2000/svg" width="157.151" height="160.468" viewBox="0 0 157.151 160.468">
  <defs>
    <style>
      .a {
        fill: #fff;
      }
    </style>
  </defs>
  <g>
    <path class="a" d="M155.93,153.068c-1.329-14.7-1.465-29.712-1.6-44.239-.138-15.135-.281-30.786-1.768-46.128l-.033-.342L152,61.524c-.406-.626-.822-1.245-1.274-1.9-.164-.241-.329-.482-.482-.7l-.392-.574.015-.036-2.175-3.163-.015.173a36.774,36.774,0,0,0-2.7-3.446c-7.717-10.075-16.638-20.648-27.249-32.3-1.518-1.742-3.047-3.634-4.527-5.463-3.869-4.784-7.87-9.73-12.629-13.351l-.5-.383L99.938.4A3.686,3.686,0,0,0,96.959.215L96.7.29l-.215.161A26.445,26.445,0,0,1,90.792,3.7l0-.006a16.06,16.06,0,0,0-3.935,2.271v0Q80.8,9.989,74.73,14C56.576,26.006,37.824,38.409,19.969,51.5a3.32,3.32,0,0,0-.774-1.027,3.964,3.964,0,0,0-3.274-.808l-.259.057c-2.7.852-2.95,3.634-3.112,5.475-.039.443-.074.872-.144,1.252l0,.028-.005.02h0l0,.025h0l0,.037h0l0,.035c-.037.2-.078.4-.119.592-.1.466-.2.947-.256,1.458-3.882,21.2-6.406,42.979-8.847,64.036-1,8.638-2.036,17.57-3.15,26.328l-.009.1a3.021,3.021,0,0,0,.015.514c.01.976.184,1.938.18,2.888-.007,1.315-.5,2.519.214,3.774,1.229,2.163,4,1.979,6.119,2.066,1.828.075,3.659.069,5.492.044a7.419,7.419,0,0,0,3.413.025c.178-.028.362-.056.543-.082.678-.009,1.357-.019,2.035-.019a2.631,2.631,0,0,0,.358-.035c10.326-.2,20.808-.2,30.964-.193q6.012,0,12.027-.005l.292,0c3.01.078,6.015.192,9.019.306,6.84.259,13.91.529,20.849.355,3.645.077,7.343.064,10.922.05,2.762-.01,5.615-.019,8.451.012h0c.152,0,.3,0,.456,0,5.846-.053,11.906.391,17.768.818,5.626.41,11.383.829,17.072.829,2.623,0,5.233-.089,7.807-.309l.429-.038.345-.258a5.092,5.092,0,0,0,2.375-3.85A4.125,4.125,0,0,0,155.93,153.068Zm-9.178-89.439c-1.522,20.936-1.1,42.2-.7,62.757.158,8.029.321,16.316.367,24.491-4.028-.011-8.1-.1-12.056-.183-5.886-.125-11.972-.258-17.979-.14v0c-4.184.049-8.439,0-12.556-.051-3.257-.039-6.626-.079-9.945-.071v0l-1.03-.007v.033c-5.246.156-10.493.283-15.74.409-14.278.345-29.042.7-43.539,1.687l-.14.016a51.524,51.524,0,0,1-7.175.094c-2.087-.051-3.994-.081-5.727-.063l-.125.015a27.181,27.181,0,0,1-8.814-.206,6.279,6.279,0,0,1-3.39-1.781,4.08,4.08,0,0,1-.97-3.107c-.032-.03-.055-.069-.089-.1l.075-.132.039-.294c.7-5.408,1.908-10.857,3.074-16.127.252-1.134.5-2.27.76-3.46h0l.016-.076.01-.052h0c3.586-20.247,6.387-40.177,8.326-59.237l.011-.1,0-.105a12.342,12.342,0,0,1,.886-4.027,13.693,13.693,0,0,0,1-5.07,52.813,52.813,0,0,0,8.739-6.089,52.521,52.521,0,0,1,8-5.645l.1-.06C55.148,36.22,67.911,27.433,79.529,18.487l0,0,.362-.282h0a104.545,104.545,0,0,1,18-11.344,42.183,42.183,0,0,0,2.886,4.016,21.548,21.548,0,0,1,1.487,2.029l.024.032,0,0,.02.038-.006,0,.006,0,0,0-.006,0,.014.018.008.011.163.227.018-.012.841,1.145h0c7.058,9.8,15.609,18.465,23.879,26.846q2.355,2.385,4.7,4.779l.231.193a46.942,46.942,0,0,1,4.051,4.443c1.86,2.174,3.967,4.636,5.873,6.545.712.848,1.526,1.831,2.247,2.847l.006.008,0,0c.108.15.217.3.326.447q.24.328.479.658a5.171,5.171,0,0,0,1.156,1.3l.024.021c.111.125.233.246.357.365l.084.082Z"/>
    <path class="a" d="M107.2,92.376c-.166-6.5-1.194-14.13-6.41-14.246h-.06l-.911.047c-26.49,1.319-33.293,2.245-35.062,3.357l-.035-.033a2.385,2.385,0,0,0-2.3-.486A2.208,2.208,0,0,0,60.941,82.7l-.025.173c-.384,4.459-1.137,9.017-1.865,13.424q-.144.868-.287,1.737c-.475.008-.975.009-1.491.01-3.209.008-6.24.014-7.784,1.579a3.092,3.092,0,0,0-.9,2.258l0,.287.109.267c.951,2.31,3.277,1.855,4.4,1.636a4.471,4.471,0,0,1,1.127-.136l.173.034.175-.007q1.65-.061,3.3-.139c-.355,2.507-.592,4.608-.754,6.623h0l-.037.458h0c-.047.626-.093,1.252-.131,1.878l.032,0a19.026,19.026,0,0,1-.351,2.5c-.42,2.316-.9,4.941.566,6.721a5.039,5.039,0,0,0,4.062,1.589c2.929-.128,5.866-.232,8.807-.336,9.852-.349,20.029-.709,29.962-2.022a5.087,5.087,0,0,0,3.272-.8A4.3,4.3,0,0,0,105.779,119l.081-.105c1.374-1.942,1.154-4.186.961-6.166a11.427,11.427,0,0,1-.047-3l.031-.17-.009-.173c-.057-1.152.041-3.232.154-5.641.062-1.316.13-2.75.183-4.241a6.2,6.2,0,0,0,4.562-2.63l.145-.232.053-.268a3.235,3.235,0,0,0-.941-3.061A4.252,4.252,0,0,0,107.2,92.376ZM75.884,115.741c-4.167.19-8.457.385-12.687.742a10.039,10.039,0,0,0,.092-1.153h-.022c.118-3.942.479-7.932.829-11.794l0-.048c4.405-.261,8.886-.587,13.615-.989l-.324,4.113a23.7,23.7,0,0,0,.044,7.49l.059.272.153.233a3.329,3.329,0,0,0,1.017,1.007Q77.269,115.679,75.884,115.741Zm21.649-1.823A145.285,145.285,0,0,1,82.2,115.432a3.537,3.537,0,0,0,1.478-2.936,91.791,91.791,0,0,0,0-10.53c4.453-.42,9.151-.9,14.273-1.467A78.514,78.514,0,0,0,97.533,113.918Zm1-20.349c-5.782.779-10.653,1.4-15.108,1.931q-.024-.957-.029-1.912l-.006-.119a10.286,10.286,0,0,1,.137-1.7c.255-1.98.681-5.294-2.242-6.1l-.738-.2-.6.477c-1.994,1.593-2,5.747-1.958,10.191-4.779.523-9.238.945-13.548,1.283a41.184,41.184,0,0,1,.394-4.212,30.768,30.768,0,0,0,.357-6.512l-1.04.088,1.017-.256-.365.052.352-.094A4.5,4.5,0,0,1,65.2,84.4a12.229,12.229,0,0,0,3.485.7v.008c.105.011.211.02.317.025v-.018c2.837-.02,5.729.016,8.527.052a180.239,180.239,0,0,0,20.919-.55A52.307,52.307,0,0,1,98.538,93.569Z"/>
  </g>
</svg>
