<?xml version="1.0" encoding="utf-8"?>
<!-- Generator: Adobe Illustrator 25.1.0, SVG Export Plug-In . SVG Version: 6.00 Build 0)  -->
<svg version="1.1" id="Layer_1" xmlns="http://www.w3.org/2000/svg" xmlns:xlink="http://www.w3.org/1999/xlink" x="0px" y="0px"
	 viewBox="0 0 167.1 202.9" style="enable-background:new 0 0 167.1 202.9;" xml:space="preserve">
<g>
	<path d="M105,119.2l0,0.2c-7.1-9.5-29-1.1-37,2.4c-7.1,1.5-10.9,8.9-1.2,5.4c-3.2,6.1-0.7,14.8-2.6,21.2h0h0
		c-0.2,1.3-0.4,2.6-0.6,3.8c-0.7,7.8-6.5,23.4,10.1,19.2c7.3,0.1,14.8,0.4,22-1.1C109,169.5,107.1,130.2,105,119.2z M78.9,157.2
		c-1.4,3.4-1.3,7.2-0.3,9.2c-18.4,3.4-6.8-13.7-7.5-21.9c3.2,0.2,6.4,0.3,9.6,0.2C80.3,148.7,79.7,152.9,78.9,157.2L78.9,157.2z
		 M89.4,119.9c16.8-2.9,8.7,11.9,10.8,20.1c-4.1-0.4-8.3,0.5-12.4,0.6C88.9,133,90.2,123.6,89.4,119.9z M84.5,160.5
		c0.1-0.7,0.2-1.4,0.4-2.1l0,0c0.1-0.4,0.1-0.8,0.2-1.2l0,0c0.2-0.9,0.3-1.9,0.5-2.8l0,0c0.1-0.3,0.1-0.7,0.2-1l0,0
		c0.3-1.5,0.5-3,0.8-4.5l0,0c0.7-3.2-0.3-4.9,4.6-4.4h0c2.3-0.3,5.7,0.1,8.4,0.2c-0.4,10.4,1.3,24.2-16.3,21.5
		C83.9,164.3,84.3,162.4,84.5,160.5L84.5,160.5z M84.2,120.8c-0.2,2-0.6,4.1-1.1,6.4l0,0l-0.1,0.4l0,0l-0.2,1.1l0,0
		c-0.7,3.9-1.2,8-1.6,11.7c-3.2-0.1-6.4-0.3-9.6-0.4C72.4,127.2,66.6,124,84.2,120.8L84.2,120.8z"/>
	<path d="M166.5,137.9l-1.2,0l0,0L166.5,137.9c-0.5-6.8-0.9-14.2,0-21h0.1c0.3-1.4-0.4-3.5,0.2-4.6c-0.2-0.5-0.3-1-0.3-1.5h-0.1
		c2.1-8.3-4.4-3.6-8.3-8.2c-7.6-6.8-16-13.1-23.4-20.1c-10.6-8.8-19.3-19.5-30.5-27.7C96.8,49.9,88,46.1,80.1,42
		c-0.7,0-1.7,0.1-2.3,0.2c-1.5,1.1-2.7,2.9-4.1,4.1l0,0C63,57.4,51.3,67.6,40,78.1l0,0c-0.5,0.5-2.3,2.2-2.8,2.8l0,0
		c-2.8,3-6.8,5.4-10,8.3l0,0c-3.1,3-6.3,5.8-9.2,8.9l0,0c-3.3,3.3-7.1,6.1-9.7,9.9l0,0c-2.1,2.1-2.4,7.4,2.6,5.1
		c-0.2,8.4-2.2,16.7-3.1,25.1h0c-0.5,3.4-1.3,6.9-1.7,9.6h0l-0.3,2.3h0c-1.5,10.5-3.1,20.9-4.2,31.4h0c-0.4,3.5-0.3,6.8-1,10.2
		l-0.1,0c-1.5,6.4-0.3,14.8,4.5,9.4c27.4-0.5,54.5-1.9,82-1.7C165.1,198.1,169.2,204.5,166.5,137.9z M149.2,190.4
		c-47,2.2-94.6,1.7-141.8,3.8c0.1-0.3,0.2-0.7,0.2-1h0l0.1-0.8h0c1.5-16.2,4.6-32.3,7.1-48.4l0.1,0c0-0.3,0.2-1.2,0.2-1.5h0
		c0.4-3.3,1.1-6.6,1.6-10.1l0.1,0l0.3-2.3l-0.1,0c0.6-8.1,2.4-16.4,0.9-22.9c14.1-14.5,30.2-27,47.3-43.9l0,0
		c5.2-4.9,10.6-9.6,15.5-14.7c2.1,0.9,3.9,2.1,6.1,3c8.2,4,16.4,8.4,22.1,14.7c10.3,10,20.3,20.2,31.6,29.5
		c6.4,4.6,11.1,11.9,19.3,14.5c-0.9,4.4-1,8.9-1.5,13.3h-0.1c0,0.5-0.1,1.4-0.2,1.8l0.1,0c-0.4,10,3,19.5,2.2,29.5h0
		C158.8,166.8,162.4,183,149.2,190.4L149.2,190.4z"/>
</g>
</svg>
