<svg xmlns="http://www.w3.org/2000/svg" xmlns:xlink="http://www.w3.org/1999/xlink" viewBox="0 0 277.2 93" xmlns:v="https://vecta.io/nano"><image width="1231" height="464" xlink:href="D31871463E61753B.png" transform="matrix(.24 0 0 .24 -7.08 -7.177)" overflow="visible" opacity=".45"/><path d="M26.6.9v91.2H15.2V47.9h-3.8v44.2H0V.9h11.4V37h3.8V.9h11.4zm19.8 55.9h-4.7l-1.5 35.3H29.6L35.1.9h18.5l5.5 91.2H47.8l-1.4-35.3zm-.3-10.3l-1.4-34.2h-1l-1.5 34.2h3.9zm30.2 10.3h-4.7l-1.5 35.3H59.5L65 .9h18.5L89 92.1H77.6l-1.3-35.3zm-.4-10.3l-1.4-34.2h-1L72 46.5h3.9zm15.3 29.3v-11h11.4v14.7c0 2.1.6 2.7 1.6 2.7s1.6-.7 1.6-2.7v-4.9c0-19.8-14.6-33.1-14.6-55.3v-2.1C91.2 5 95.5 0 104.4 0c9.2 0 12.8 5 12.8 17.2v11.1h-11.4V13.6c0-2.1-.6-2.7-1.6-2.7s-1.6.7-1.6 2.7v4.9c0 19.8 14.6 33.1 14.6 55.3v2.1C117.2 88 112.9 93 104 93c-9.3 0-12.8-5-12.8-17.2zM160.1.9v91.2h-11.4V47.9h-3.8v44.2h-11.4V.9h11.4V37h3.8V.9h11.4zm5.1 74.9V17.2C165.2 5 169.5 0 178.4 0c9.2 0 12.8 5 12.8 17.2v58.6C191.2 88 186.9 93 178 93c-9.3 0-12.8-5-12.8-17.2zm14.6 3.7V13.6c0-2.1-.6-2.7-1.6-2.7s-1.6.7-1.6 2.7v65.9c0 2.1.6 2.7 1.6 2.7s1.6-.7 1.6-2.7zm15.9-3.7V.9h11.4v78.5c0 2.1.6 2.7 1.6 2.7s1.6-.7 1.6-2.7V.9h11.4v74.9c0 12.2-4.3 17.2-13.2 17.2-9.2 0-12.8-5-12.8-17.2zm30.4 0v-11h11.4v14.7c0 2.1.6 2.7 1.6 2.7s1.6-.7 1.6-2.7v-4.9c0-19.8-14.6-33.1-14.6-55.3v-2.1C226.1 5 230.4 0 239.3 0c9.2 0 12.8 5 12.8 17.2v11.1h-11.4V13.6c0-2.1-.6-2.7-1.6-2.7s-1.6.7-1.6 2.7v4.9c0 19.8 14.6 33.1 14.6 55.3v2.1C252 88 247.7 93 238.8 93c-9.2 0-12.7-5-12.7-17.2zm51.1 5.5v10.8h-20.3V.9h19.7v10.8h-8.3V37h7.8v10.8h-7.8v33.4l8.9.1z" fill="#fff"/></svg>