<svg xmlns="http://www.w3.org/2000/svg" width="277.238" height="93.023" viewBox="0 0 277.238 93.023">
  <defs>
    <style>
      .a {
        fill: #fff;
      }
    </style>
  </defs>
  <g>
    <path class="a" d="M26.562.912v91.2h-11.4V47.879H11.4V92.111H0V.912H11.4V37.05h3.762V.912Z"/>
    <path class="a" d="M46.4,56.771H41.723l-1.482,35.34h-10.6L35.111.912H53.579l5.472,91.2H47.765Zm-.341-10.26-1.368-34.2H43.661l-1.482,34.2Z"/>
    <path class="a" d="M76.264,56.771H71.59l-1.482,35.34h-10.6L64.979.912H83.446l5.472,91.2H77.632Zm-.342-10.26-1.368-34.2H73.528l-1.482,34.2Z"/>
    <path class="a" d="M91.2,75.809V64.751h11.4V79.457c0,2.052.569,2.736,1.595,2.736s1.6-.684,1.6-2.736v-4.9C105.789,54.719,91.2,41.5,91.2,19.266V17.214C91.2,5.016,95.529,0,104.421,0c9.234,0,12.768,5.016,12.768,17.214V28.272h-11.4V13.566c0-2.052-.569-2.736-1.6-2.736s-1.595.684-1.595,2.736v4.9c0,19.836,14.591,33.059,14.591,55.289v2.052c0,12.2-4.332,17.214-13.224,17.214C94.731,93.023,91.2,88.007,91.2,75.809Z"/>
    <path class="a" d="M160.051.912v91.2h-11.4V47.879H144.89V92.111h-11.4V.912h11.4V37.05h3.761V.912Z"/>
    <path class="a" d="M165.181,75.809V17.214C165.181,5.016,169.513,0,178.4,0c9.234,0,12.768,5.016,12.768,17.214v58.6c0,12.2-4.332,17.214-13.224,17.214C168.714,93.023,165.181,88.007,165.181,75.809Zm14.591,3.648V13.566c0-2.052-.57-2.736-1.6-2.736s-1.6.684-1.6,2.736V79.457c0,2.052.57,2.736,1.6,2.736S179.772,81.509,179.772,79.457Z"/>
    <path class="a" d="M195.731,75.809V.912h11.4V79.457c0,2.052.57,2.736,1.6,2.736s1.6-.684,1.6-2.736V.912h11.4v74.9c0,12.2-4.332,17.214-13.224,17.214C199.265,93.023,195.731,88.007,195.731,75.809Z"/>
    <path class="a" d="M226.054,75.809V64.751h11.4V79.457c0,2.052.569,2.736,1.6,2.736s1.6-.684,1.6-2.736v-4.9c0-19.836-14.592-33.059-14.592-55.289V17.214C226.054,5.016,230.386,0,239.277,0c9.235,0,12.769,5.016,12.769,17.214V28.272h-11.4V13.566c0-2.052-.57-2.736-1.6-2.736s-1.6.684-1.6,2.736v4.9c0,19.836,14.592,33.059,14.592,55.289v2.052c0,12.2-4.332,17.214-13.225,17.214C229.588,93.023,226.054,88.007,226.054,75.809Z"/>
    <path class="a" d="M277.238,81.281v10.83H256.946V.912h19.722v10.83h-8.321V37.05H276.1V47.879h-7.752v33.4Z"/>
  </g>
</svg>
