<svg xmlns="http://www.w3.org/2000/svg" width="199.719" height="242.658" viewBox="0 0 199.719 242.658">
  <g>
    <g>
      <path d="M112.017,112.061c-10.794.888-21.35,3.507-30.491,9.555-9.464,3.744-11.658,11.108.3,3.828-.106.042-.213.083-.319.123,5.9-3.316,12.028-6.417,18.584-8.218l-.055.006c.725-.182,1.419-.345,2.1-.5a109.557,109.557,0,0,1-1.487,12.025l.012-.084c-.028.192-.058.383-.085.575l.041-.274q-.144.971-.283,1.943c.013-.089.027-.177.042-.266-.9,6.457-1.491,12.947-2.073,19.438-4.867-.232-9.739-.553-14.6-.693.722-8.281.682-16.223-1.462-23.166-5.954,8.745-1.942,24.022-4.572,34.887.006-.043.011-.086.017-.129-.3,1.945-.5,3.9-.785,5.84.033-.2.062-.409.095-.614.257,11.535-9.783,33.9,10.5,28.218,8.86.19,18.02.639,26.654-1.677,14.123,1.063,10.474-53.333,11.829-65.194l.007.058C126.449,118.455,122.958,109.294,112.017,112.061Zm9.422,36.866c-.083.349-.154.711-.226,1.071-5.57-1.383-11.989.933-18.05.686,1.005-9.016,3.759-29.663,1.718-34.389C128.885,111.942,118.812,129.464,121.439,148.927Zm-18.732,40.652c-6.622-.319-19.335,2.49-22.89-1.242-.219-10.935,2.2-23.232,3.5-35.047,3.456.6,9.358.642,14.647.538-.633,6.951-1.324,13.9-2.46,20.791l.016-.1c-.032.2-.061.4-.09.594.012-.09.026-.18.039-.27-3.6,11.075,2.017,23.918,3.856,4.55-.014.094-.03.187-.043.281l.006-.044,0,.015c.179-1.2.32-2.4.49-3.6-.028.2-.062.4-.09.595.119-.79.233-1.579.342-2.373-.028.2-.057.394-.09.594.256-1.653.435-3.309.689-4.96-.033.2-.061.4-.09.59q.158-1.07.3-2.131c-.008.048-.016.095-.023.142.351-2.335.607-4.683.965-7.018-.01.06-.02.12-.029.18.331-2.4.7-4.779,1.067-7.171,0-.2.015-.47.04-.8,2.716-.093,4.855-.189,5.767-.2h-.073c.124,0,.248,0,.371,0l-.062,0c.307,0,.616,0,.923-.011h0c2.28-.841,7.922.848,10.875.187C118.977,169.588,123.825,191.888,102.707,189.579Z"/>
      <path d="M99.293,179.611l0,.023,0-.029Z"/>
      <path d="M102.917,153.879c-.031.206-.063.412-.094.618v.043C102.855,154.321,102.888,154.1,102.917,153.879Z"/>
      <path d="M108.63,153.491h0Z"/>
      <path d="M108.826,153.49h0Z"/>
    </g>
    <path d="M198.761,145c-.26-5.232-.527-10.642-.712-15.947h-.008c-.093-4.421.212-8.907.507-13.248.1-1.516.207-3.033.294-4.551h.023l.009-.535a31.446,31.446,0,0,0-.069-3.7c-.04-.69-.08-1.38-.092-2.071l-.71.017.66-.213a8.833,8.833,0,0,1,.142-2.906c.275-1.95.561-3.965-.519-5.135a2.677,2.677,0,0,0-2.254-.784l-.682.04-.21.651c-.03.091-.052.188-.081.281a2.835,2.835,0,0,0-1.414-1.116c-.332-.118-.661-.234-.9-.329a8.713,8.713,0,0,1-1.258-.8,32.836,32.836,0,0,1-2.52-2.73l-.459-.535c-.561-.649-1.138-1.28-1.719-1.907l-.5-.55c-.364-.4-.728-.806-1.106-1.19-.311-.319-.629-.628-.948-.937-.285-.277-.57-.554-.849-.837-.614-.625-1.2-1.269-1.789-1.922-.661-.736-1.344-1.452-2.026-2.169-.447-.467-.893-.935-1.331-1.407q-1.695-1.828-3.349-3.684l-.322-.363c-.471-.531-.941-1.06-1.438-1.563l-.584-.584c-.349-.348-.7-.7-1.043-1.055-.508-.526-1-1.059-1.5-1.6-.372-.4-.76-.786-1.15-1.172-.2-.2-.4-.4-.6-.595-.8-.815-1.579-1.654-2.355-2.494l-1.048-1.125c-.357-.375-.713-.751-1.039-1.153l-.662-.822c-.265-.329-.53-.659-.8-.987-.56-.685-1.133-1.358-1.705-2.032q-.644-.755-1.28-1.516c-1.156-1.388-2.265-2.66-3.393-3.89-.79-.861-1.562-1.74-2.333-2.618l-1.142-1.3c-.423-.477-.813-.981-1.225-1.514l-.218-.282c-.442-.574-.908-1.125-1.384-1.673l-.261-.3c-.935-1.078-1.869-2.154-2.817-3.219l-3.215-3.6c-.5-.567-1.009-1.134-1.488-1.717-.239-.292-.47-.592-.7-.891-.211-.274-.422-.548-.639-.817l-.486-.595c-.32-.386-.638-.772-.936-1.174l-.1-.141c-.427-.578-.853-1.155-1.3-1.712-.42-.531-.852-1.051-1.284-1.571-.644-.774-1.309-1.574-1.908-2.386a68.887,68.887,0,0,0-6.1-7.28c-.322-.331-.666-.643-1.01-.955l-.692-.636c-.3-.278-.6-.557-.907-.827-.572-.5-1.191-1.036-1.856-1.55-.455-.35-.9-.7-1.322-1.06-.671-.591-1.334-1.134-2.028-1.659l-.279-.212a19.733,19.733,0,0,0-1.8-1.271l-.421-.245c-.175-.1-.35-.2-.529-.31-.287-.174-.557-.368-.831-.563l-.825-.579c-.4-.276-.8-.552-1.182-.845-.567-.428-1.153-.87-1.783-1.262-.207-.13-.411-.264-.616-.4-.387-.254-.774-.507-1.175-.734l-.406-.226c-.159-.088-.319-.176-.476-.266-.241-.142-.472-.3-.7-.458l-.26-.177c-.6-.4-1.241-.783-1.945-1.161-.838-.45-1.668-.914-2.5-1.378l-.477-.266a11.452,11.452,0,0,1-1.17-.789l-.228-.167c-.328-.24-.648-.489-.97-.737l-.646-.5c-.392-.3-.8-.549-1.2-.794-.171-.106-.341-.21-.5-.316-.509-.33-1.006-.675-1.5-1.03A12.674,12.674,0,0,0,96.866.822a4,4,0,0,1-.358-.233A3.329,3.329,0,0,0,94.972.017,2.992,2.992,0,0,0,94.24.03l.022,1h0l-.095-1a2.538,2.538,0,0,0-1.26.543l-.095.066a2.509,2.509,0,0,0-1,1.739,7.9,7.9,0,0,0-1.263,1.488,10.034,10.034,0,0,1-.622.818l-.009-.007-.13.163,0,0C79.979,17.787,69.143,30.24,58.661,42.285c-3.8,4.375-7.734,8.89-11.576,13.383l-.02-.016-.12.148.016.013-.244.287-.011-.008-.426.519c-.178.216-.356.432-.533.65l-.122.148-.007.01v0h0l-.12.149h0l0,0,.011.009a51.032,51.032,0,0,1-7.794,8.672,73.715,73.715,0,0,0-6.05,6.269l0,0c-1.057,1.292-2.172,2.579-3.25,3.823-1.981,2.283-4.028,4.644-5.83,7.174l.569.408.01.009-.578-.415,0,.007h0l-.007.008-.282.347.021.017c-1.517,2.062-3.255,4.037-4.938,5.951-3.057,3.475-6.217,7.067-8.287,11.391h0c-.021.044-.04.089-.06.133-1.16,2.606-1.567,4.15-.463,4.816a1.266,1.266,0,0,0,.691.242c.628,0,1.679-.579,4.04-2.977-.222,2.362-.319,4.739-.4,7.067-.071,2.077-.145,4.225-.318,6.308h0c-.218,2.073-.484,4.179-.741,6.216-.323,2.557-.657,5.2-.9,7.819l-.14,1.228h0c-.158,1.391-.327,2.781-.495,4.17-.3,2.478-.616,5.04-.852,7.577h0c-.043.473-.08.947-.116,1.42-.047.595-.093,1.19-.153,1.784-.864,5.68-1.519,10.33-2.051,14.566H7.1l-.064.6h.009c-.533,5.779-1.253,11.637-1.95,17.308-1.054,8.572-2.143,17.433-2.613,26.228q-.26,2.163-.444,4.338H2.033l-.021.178.015,0c-.283,3.305-.463,6.612-.641,9.845-.072,1.315-.144,2.631-.223,3.947C1,225.514.8,227.2.537,228.93l-.021,0-.026.241v.015h0c-.129,1.037-1.5,13,1.032,13.447a1.6,1.6,0,0,0,.278.027c.742,0,1.287-.649,1.925-2.976a3.869,3.869,0,0,0,1.948.578c8.336.267,16.469-.964,24.764-1.3,8.1-.331,16.259-.037,24.371-.21,16.491-.352,32.8-1.964,49.3-1.219,15.426.7,31.2-1.467,46.654-1.834,4.122-.1,8.233.312,12.362.252,3.708-.055,7.175-.906,10.83-1.2,5.418-.44,9.579.049,13.215-4.669a3.827,3.827,0,0,0,.629-1.169c3.652-3.556,6.879-10.744,7.452-12.879C201.123,192.689,199.922,168.448,198.761,145ZM5.472,232.473a26.95,26.95,0,0,0,.736-4.088l.083-.717h0l.065-.628c.026-.258.051-.515.08-.773h0l.017-.174h0c.039-.379.084-.758.128-1.137l.02-.163h0a56.037,56.037,0,0,0,.307-6.075c.023-1.572.045-3.195.18-4.775.168-1.284.413-2.585.65-3.846a52.643,52.643,0,0,0,.831-5.479l.038-.361c.043-.39.085-.78.117-1.171h0q.06-.632.113-1.264l.008-.095c.225-1.757.5-3.538.77-5.262.43-2.759.875-5.612,1.119-8.465.024-.208.048-.415.071-.623.121-.927.181-1.857.239-2.757.037-.577.073-1.153.127-1.728l.069-.641h0l.03-.282c.136-1.285.327-2.594.512-3.861.175-1.189.355-2.416.492-3.641h0l.008-.089,0-.017c.74-7.148,1.748-14.4,2.724-21.409.017-.121.033-.243.05-.365l.084.009.011-.107,0-.027-.079,0c.1-.715.2-1.433.3-2.15l.039,0,.035-.325-.029,0c.691-4.983,1.369-10.018,1.944-15.087l.132.013.067-.631-.126-.019a209.478,209.478,0,0,0,1.5-26.55c1.145-7,.193-8.949-.77-9.672,3.547-4.142,8.51-10.251,15.532-19.229.835-1.068,1.471-1.88,1.838-2.341,12.1-12.489,24.743-26.879,39.715-45.215h0l.008-.01h0l.15-.182,0,0,0,0,.493-.6,0,0,.022-.025h0l.012-.013c.028-.037.057-.073.086-.11h0l.15-.187h0c1.687-2.109,3.5-4.168,5.251-6.164q1.131-1.285,2.254-2.579l0,0c2.738-2.9,5.222-6.051,7.626-9.1,1.292-1.64,2.624-3.33,3.984-4.967a3.313,3.313,0,0,0,.677-.652c.214.139.425.284.649.4l.133.07a16.8,16.8,0,0,1,1.864,1.092c.5.355,1.011.692,1.523,1.029l.726.48c.528.35,1.074.711,1.664,1.031.328.177.65.363.972.549.276.159.553.319.833.473l.166.091c.562.308,1.093.6,1.6.927.215.14.425.284.636.428.44.3.9.612,1.39.89.36.2.7.43,1.038.658.212.142.425.284.641.421.629.4,1.284.852,2,1.382.61.451,1.231.89,1.852,1.33l.473.335c.4.281.812.534,1.227.788.441.269.859.524,1.25.812.813.6,1.488,1.108,2.121,1.644.733.657,1.348,1.166,1.935,1.6.6.45,1.131.869,1.594,1.264.263.235.518.478.773.721s.517.491.781.728c.591.535,1.179,1.074,1.747,1.643.433.433.836.9,1.239,1.359l1.866,2.132c.487.562.973,1.123,1.435,1.7.2.254.4.515.591.776.28.376.56.752.862,1.11l.573.678c.871,1.027,1.772,2.089,2.581,3.177l.235.314c.383.517.766,1.031,1.174,1.528.455.555.888,1.13,1.31,1.708.736,1.012,1.558,1.952,2.352,2.862l4.4,5.106c.758.871,1.542,1.771,2.222,2.7l.411.563c.327.448.654.9.99,1.343.514.682,1.073,1.323,1.611,1.941,1.125,1.3,2.244,2.6,3.351,3.915.636.753,1.3,1.485,1.957,2.217.464.514.929,1.027,1.382,1.547,1.094,1.26,2.032,2.434,2.869,3.588.794,1.094,1.7,2.211,2.854,3.516.991,1.119,2.056,2.171,3.087,3.19l.132.13c.4.395.776.813,1.151,1.23l.4.446c.482.53.989,1.037,1.5,1.545l.069.069c.652.655,1.191,1.212,1.7,1.8l1.594,1.844c.977,1.132,2.122,2.443,3.369,3.677.32.315.644.624.969.933.268.255.536.511.8.769.417.407.809.84,1.2,1.271.191.21.381.419.571.623.366.394.736.782,1.105,1.17.777.816,1.581,1.66,2.31,2.527,1.024,1.216,2.117,2.508,3.241,3.747l.13.142a27.981,27.981,0,0,0,2.74,2.75,9.591,9.591,0,0,0,1.647,1.057,15.364,15.364,0,0,0,2.279.986,2.687,2.687,0,0,0,.9.154,2.824,2.824,0,0,0,1.238-.291c.021-.01.038-.026.058-.036a111.838,111.838,0,0,0-1.646,14.746c-.2,2.963-.405,6.026-.743,8.876l.608.071-.614-.014c-.373,7.718.506,15.441,1.356,22.908.93,8.183,1.892,16.64,1.173,25l-.037,0c-.22,3.493-.314,7.138-.405,10.663-.382,14.784-.783,30.028-10.177,41.3a4.058,4.058,0,0,0-3.1,1.627c-1.182,1.534-5.9.712-7.665.9-3.563.373-6.988,1.113-10.6,1.122-7.284.019-14.5-.108-21.8.054-14.709.328-29.195,1.564-43.911,1.183-14.846-.384-29.718,1.352-44.574,1.61-7.762.135-15.618-.236-23.356.319-7.643.548-15.179,1.384-22.857,1.138C5.6,232.457,5.541,232.472,5.472,232.473Z"/>
  </g>
</svg>
