<svg xmlns="http://www.w3.org/2000/svg" width="554.868" height="554.867" viewBox="0 0 554.868 554.867">
  <g>
    <path d="M360.078,218.457c-33.078,0-47.9,18.18-56.187,30.961V222.859H241.547c.816,17.6,0,187.575,0,187.575h62.344V305.684c0-5.606.4-11.207,2.051-15.215,4.507-11.2,14.765-22.8,31.988-22.8,22.558,0,31.586,17.2,31.586,42.418V410.434h62.34V302.879C431.856,245.266,401.1,218.457,360.078,218.457Z"/>
    <rect x="140.695" y="220.859" width="62.348" height="187.574"/>
    <path d="M172.285,130.434c-21.328,0-35.273,14-35.273,32.41,0,18,13.531,32.4,34.453,32.4h.406c21.742,0,35.274-14.4,35.274-32.4C206.738,144.438,193.613,130.434,172.285,130.434Z"/>
    <path d="M473.609,81.259a277.433,277.433,0,1,0-392.35,392.35,277.433,277.433,0,1,0,392.35-392.35ZM277.434,514.434A236.989,236.989,0,0,1,109.858,109.857,236.989,236.989,0,1,1,445.01,445.01,235.447,235.447,0,0,1,277.434,514.434Z"/>
  </g>
</svg>
