<svg xmlns="http://www.w3.org/2000/svg" width="554.868" height="554.867"  xmlns:v="https://vecta.io/nano"><path d="M360.078 218.457c-33.078 0-47.9 18.18-56.187 30.961v-26.559h-62.344c.816 17.6 0 187.575 0 187.575h62.344v-104.75c0-5.606.4-11.207 2.051-15.215 4.507-11.2 14.765-22.8 31.988-22.8 22.558 0 31.586 17.2 31.586 42.418v100.347h62.34V302.879c0-57.613-30.756-84.422-71.778-84.422zm-219.383 2.402h62.348v187.574h-62.348zm31.59-90.425c-21.328 0-35.273 14-35.273 32.41 0 18 13.531 32.4 34.453 32.4h.406c21.742 0 35.274-14.4 35.274-32.4-.407-18.406-13.532-32.41-34.86-32.41zm301.324-49.175a277.433 277.433 0 1 0-392.35 392.35 277.433 277.433 0 1 0 392.35-392.35zM277.434 514.434a236.989 236.989 0 0 1-167.576-404.577A236.989 236.989 0 1 1 445.01 445.01a235.447 235.447 0 0 1-167.576 69.424z"/></svg>