<svg xmlns="http://www.w3.org/2000/svg" width="259.552" height="346.217" viewBox="0 0 259.552 346.217">
  <defs>
    <style>
      .a {
        fill: #fff;
      }
    </style>
  </defs>
  <g>
    <polygon class="a" points="144.78 253.406 144.78 209.392 132.87 209.392 132.87 253.406 135.31 253.406 144.78 253.406"/>
    <path class="a" d="M258.765,91.165l.176-.247L131.654.005l-.079.112L131.493,0,.477,91.165H0V346.217H259.552V91.165Zm-8.213,246.052H9V96.2L131.5,10.958,250.552,95.986Z"/>
    <path class="a" d="M57.633,205.392a72.143,72.143,0,1,0,72.143-72.142A72.225,72.225,0,0,0,57.633,205.392Zm76.1-52.634h.044V141.387a63.756,63.756,0,0,1,32.6,11.371h.213v.156a64.129,64.129,0,0,1,27.193,48.478H166.589v8h27.193a64.133,64.133,0,0,1-27.193,48.48v.534h-.782A63.724,63.724,0,0,1,133.776,269.4V258.406h-8V269.4A64.22,64.22,0,0,1,65.77,209.392H94.589v-8H65.77a64.221,64.221,0,0,1,60.006-60v11.371h7.956Z"/>
    <path class="a" d="M165.683,258.406v-.534c-.259.181-.522.356-.782.534Z"/>
    <path class="a" d="M165.683,152.758h-.214c.072.05.142.1.214.156Z"/>
    <g>
      <polygon class="a" points="115.887 197.055 112.256 197.055 112.256 162.192 101.259 162.192 101.259 201.062 101.259 209.062 101.259 250.178 112.256 250.178 112.256 209.062 112.256 207.506 115.887 207.506 115.887 209.062 115.887 250.178 126.884 250.178 126.884 209.062 126.884 201.062 126.884 162.192 115.887 162.192 115.887 197.055"/>
      <polygon class="a" points="147.296 162.192 147.296 197.055 143.665 197.055 143.665 162.192 134.953 162.192 132.668 162.192 132.668 250.178 134.953 250.178 143.665 250.178 143.665 209.062 143.665 207.506 147.296 207.506 147.296 209.062 147.296 250.178 158.293 250.178 158.293 209.062 158.293 201.062 158.293 162.192 147.296 162.192"/>
    </g>
  </g>
</svg>
