<?xml version="1.0" encoding="utf-8"?>
<!-- Generator: Adobe Illustrator 25.0.1, SVG Export Plug-In . SVG Version: 6.00 Build 0)  -->
<svg version="1.1" id="Layer_1" xmlns="http://www.w3.org/2000/svg" xmlns:xlink="http://www.w3.org/1999/xlink" x="0px" y="0px"
	 viewBox="0 0 454.5 506.8" style="enable-background:new 0 0 454.5 506.8;" xml:space="preserve">
<style type="text/css">
	.st0{fill:#FFFFFF;}
</style>
<g>
	<path class="st0" d="M302.7,8.3l0.1,0.2c0.1,0.1,0.2,0.3,0.3,0.4L302.7,8.3z"/>
	<path class="st0" d="M178.7,320.9L178.7,320.9h0.1H178.7z"/>
	<path class="st0" d="M285.6,334.4c0,0-0.1,0-0.1,0c-0.1,0-0.2,0-0.3,0L285.6,334.4z"/>
	<path class="st0" d="M266.6,193.1c-0.1,0.3-0.1,0.5-0.2,0.8c0,0.2-0.1,0.3-0.1,0.5L266.6,193.1z"/>
	<path class="st0" d="M312.5,267.9c1.5,0.1,3,0,4.4-0.1c1-0.1,2-0.3,3-0.4c1-0.2,2-0.5,2.9-0.9c1.7-0.8,3.2-2.1,4.2-3.7
		c1.2-2,0.9-4.7-0.8-6.3c-0.6-0.5-1.3-1-1.9-1.5c-1.3-0.7-2.7-1.1-4.1-1.3c-1.7-0.2-3.4-0.3-5.1-0.3h-0.4c-1.5,0-2.9,0-4.4,0.1
		c-0.6,0-1.3,0.1-1.9,0.1c-0.1-1.5-0.2-3-0.3-4.5c-0.1-1.9-0.1-3.8-0.1-5.7c0-2.1,0.1-4.2,0.1-6.3c0-2.3,0.1-4.5,0.2-6.8
		c0.1-1.3,0.1-2.6,0.1-3.9c0-0.5-0.1-1-0.1-1.5c0-0.3,0-0.5,0-0.8c-0.1-0.6-0.2-1.2-0.5-1.8c-0.2-0.4-0.3-0.7-0.5-1.1
		c-0.4-0.8-0.8-1.7-1.3-2.5c-0.6-1.2-1.3-2.3-2.1-3.3c-1-1-2.1-2-3.3-2.9l0.3,0.2c-0.7-0.6-1.4-1.3-2.1-1.9
		c-0.9-0.7-1.7-1.5-2.6-2.2c-1.7-1.5-3.6-2.8-5.7-3.7c-1.6-0.6-3.1-1.2-4.7-1.7c-0.9-0.3-1.9-0.6-2.8-0.9c-1.3-0.4-2.6-0.6-3.9-0.9
		c-1.8-0.5-3.7-0.8-5.6-1c-1.8-0.2-3.6-0.3-5.4-0.7c-0.9-0.2-1.8-0.3-2.7-0.5c0.1-0.6,0.2-1.1,0.4-1.7c0.3-1.2,0.7-2.4,1-3.6
		c0.3-1.1,0.5-2.1,0.8-3.2c0.5-1.9,0.1-4.4-1.7-5.5c-0.9-0.6-1.9-0.9-2.9-1c-0.2,0-0.4,0-0.6,0c-1.2,0.2-2.3,0.8-3.1,1.8
		c-0.4,0.6-0.8,1.3-1.1,2c-0.3,0.5-0.5,1.1-0.7,1.6c-0.7,1.8-1.5,3.7-2.2,5.5c-0.3,0.7-0.5,1.3-0.8,2c-0.1,0-0.2-0.1-0.4-0.1
		c-1.7-0.4-3.5-0.7-5.3-0.9c-3.8-0.4-7.5-0.6-11.3-1.2c-2-0.3-4.1-0.6-6.1-0.8c-2.1-0.3-4.2-0.4-6.3-0.4c-2.1,0.1-4.1,0.2-6.2,0.4
		c-1.7,0.2-3.4,0.4-5.1,0.5c-3.7,0-7.3-0.3-10.9-0.7c-2.2-0.2-4.4-0.4-6.6-0.6c-1-0.1-2-0.2-3-0.3c-1.2-0.1-2.3-0.1-3.5,0l0.9,0
		c-1.2,0.1-2.4,0-3.6,0c-0.1,0-0.1,0-0.2,0c-1.1,0-2.2,0.3-3.1,1c-0.2-0.1-0.4-0.1-0.6-0.1c-0.1,0-0.3,0-0.4,0
		c-2.4,0-4.5,1.9-4.7,4.3c-0.4,4-0.6,8.1-0.7,12.1c0,2-0.2,4-0.3,6c-0.1,2.3-0.2,4.6-0.3,6.9s-0.4,4.6-0.6,6.9
		c-0.2,2.3-0.4,4.5-0.6,6.8c-0.4,4.4-0.8,8.8-1.2,13.2c-1.5,17.4-3.1,34.9-4.6,52.3c-0.7,7.8-1.4,15.6-2,23.5
		c-0.2,2.6,1.7,4.9,4.3,5.1c1.1,0.1,2.2-0.2,3.1-0.8c1.3-0.1,2.5-0.1,3.8-0.1c0.4,0,0.7,0,1.1,0c0.7,0,1.3,0,2,0.1
		c0.9,0,1.8,0,2.6,0c0.4,0,0.7,0,1.1,0l-1.2,0c1.4,0,2.8,0,4.3,0c1.3,0,2.6,0,3.9,0l-0.7,0c1.9,0,3.7,0,5.6,0.1s3.7,0.1,5.5,0.1
		c1.8,0,3.6-0.2,5.3-0.2c0.6,0,1.1,0,1.7,0c0.5,0,0.9,0,1.4,0c0.9,0,1.8,0,2.7,0c4.2,0.2,8.4,0.5,12.6,0.7c0.2,0,0.4,0,0.6,0
		c0,0.1,0,0.1,0,0.2c0-0.1,0-0.1,0-0.2l0,0c0,0.2,0,0.4,0,0.7c0,0.6-0.1,1.2-0.1,1.8c0,1,0,2,0,2.9c0,0.9,0,1.8,0,2.7
		c0,0.8,0.1,1.5,0.2,2.3c0.1,1.1,0.4,2.2,0.7,3.3c0.2,0.7,0.5,1.4,0.9,2.1c0.3,0.6,0.7,1.2,1.1,1.7c0.5,0.6,1,1.1,1.6,1.6
		c0.8,0.6,1.6,1.1,2.6,1.4c0.9,0.3,1.9,0.5,2.8,0.6c0.1,0,0.2,0.1,0.3,0.1c1,0.4,2.1,0.5,3.2,0.3c0.4-0.1,0.7-0.2,1-0.3
		c2.4,0.1,4.6-1.7,4.8-4.1c0-0.1,0-0.1,0-0.2c0.1-0.3,0.3-0.5,0.4-0.8c0.6-1.6,0.9-3.2,1-4.9c0.2-1.8,0.4-3.5,0.6-5.3
		c0.2-1.6,0.3-3.3,0.4-4.9c0.7,0.1,1.4,0.1,2.1,0.2c1.9,0.1,3.9,0.2,5.8,0.3l-0.3,0l2,0.1c1.4,0.1,2.7,0.2,4.1,0.3
		c1.7,0.1,3.3,0.2,5,0.2c1.4,0.1,2.9,0.2,4.3,0.4c1.7,0.2,3.3,0.3,5,0.4c2.9,0.2,5.8,0.5,8.7,0.6c1,0,2.1,0.1,3.1,0.1
		c1,0,2,0.1,3,0.1c1.3,0.1,2.7,0.3,4,0.4c2,0.2,4.1,0.2,6.1,0c1.3-0.1,2.5-0.8,3.2-1.8c0.8-0.8,1.2-1.8,1.3-2.9
		c0.2-2.4,0.1-4.7,0.2-7.1c0.1-2.1,0.3-4.2,0.4-6.3c0.1-4.5,0.4-9,0.8-13.5s0.4-9,0.5-13.5c0-2.2,0-4.4,0-6.6
		c-0.1-1.9-0.1-3.9-0.1-5.8c-0.1-2.3-0.1-4.6-0.1-6.8c0-0.9,0.1-1.9,0.1-2.8C309.5,267.9,311,267.8,312.5,267.9z M269.9,209.6
		c1.9,0.2,3.8,0.4,5.7,0.8c1.1,0.2,2.1,0.5,3.2,0.7c1.6,0.4,3.1,1,4.6,1.4c0.7,0.2,1.4,0.5,2,0.8c0.5,0.2,1,0.4,1.6,0.6
		c1.2,0.8,2.3,1.6,3.4,2.5c0.7,0.6,1.4,1.2,2.1,1.9c0.5,0.5,1.1,0.9,1.6,1.3c0.5,0.5,1,0.9,1.5,1.4c0.3,0.2,0.5,0.4,0.8,0.7
		c0.1,0.1,0.2,0.3,0.3,0.4c0.4,0.7,0.7,1.4,1.1,2c0.3,0.6,0.6,1.2,0.9,1.8c0,0.4,0,0.9,0.1,1.3c0,0.9-0.1,1.8-0.2,2.6
		c-0.1,1.1-0.1,2.2-0.2,3.4c-0.1,2.3,0,4.7-0.1,7c-0.1,2.3,0,4.5,0,6.8s0.2,4.5,0.3,6.7c0,0.3,0,0.5,0,0.8c-0.5,0-1,0.1-1.5,0.1
		c-2.3,0.1-4.6,0.3-6.9,0.3c-2.4,0.1-4.7,0-7.1,0.1c-4.2,0.1-8.4,0.4-12.6,0.5c-4.3,0-8.6,0.1-12.9,0.3c-1.1,0.1-2.3,0.1-3.4,0.2
		c0.3-2.7,0.7-5.4,1-8.2c0.4-3.4,0.9-6.8,1.5-10.2c0.3-1.7,0.7-3.5,1-5.2s0.5-3.5,0.8-5.3c0.3-1.8,0.8-3.6,1.1-5.5
		c0.3-1.7,0.7-3.4,1.1-5.1c0.2-0.9,0.4-1.8,0.6-2.6c0.2-1,0.5-2,0.7-3c0.2-0.7,0.3-1.5,0.5-2.2c0.4,0,0.7,0.1,1.1,0.1
		C265.9,208.8,267.9,209.4,269.9,209.6L269.9,209.6z M257.6,190.3c-0.1,0.2-0.1,0.5-0.2,0.7l0,0.1
		C257.5,190.8,257.6,190.5,257.6,190.3L257.6,190.3z M191.1,202.6l-1.3,0.1c1.2,0,2.4,0.1,3.7,0.2c1.3,0.1,2.6,0.2,3.8,0.3
		c3,0.3,5.9,0.5,8.9,0.8c3,0.3,6,0.3,8.9,0.2c1.5-0.1,2.9-0.3,4.4-0.5c1.3-0.1,2.5-0.3,3.8-0.4c0.9,0,1.8,0,2.8,0
		c1.4,0,2.7,0.2,4.1,0.3c2.7,0.3,5.4,0.7,8.2,1.1c4,0.6,8,0.6,12,1.3c-0.1,0.2-0.1,0.3-0.2,0.5c-1.8,4.3-3.4,8.7-4.9,13.1
		c-0.7,2-1.4,4-2,6c-0.6,1.8-1.3,3.6-1.9,5.4c-2.8,8.2-4.2,16.7-6,25.1c0,0.2-0.1,0.4-0.1,0.6c-1,0-1.9,0-2.9,0
		c-2.3,0-4.6,0.1-6.8,0.1c-2.2,0.1-4.4,0.4-6.6,0.7c-3.7,0.6-7.5,0.7-11.3,0.4c-1.9-0.3-3.9-0.4-5.8-0.5c-2.1,0-4.1,0.2-6.2,0.5
		c-2,0.2-4,0.4-5.9,0.5c-1,0.1-2,0.1-3,0.2c-0.9,0.1-1.9,0.2-2.8,0.3c-0.3,0-0.7,0.1-1,0.1c0.3-3.1,0.5-6.1,0.8-9.2
		c0.4-4.4,0.8-8.8,1.2-13.2c0.2-2.4,0.4-4.7,0.6-7.1c0.2-2.2,0.4-4.3,0.5-6.5c0.1-4.1,0.5-8.2,0.5-12.3c0-2.7,0.2-5.4,0.4-8.1
		C188.3,202.6,189.7,202.6,191.1,202.6L191.1,202.6z M225.2,321.6c-1.8-0.1-3.6-0.2-5.5-0.3c-2.4-0.1-4.8-0.3-7.2-0.3
		c-1.8,0-3.6,0-5.5,0c-1.7,0-3.4,0.2-5.1,0.2c-3.3,0-6.6,0-10-0.1l0.7,0c-1.6,0-3.2,0-4.8,0c-1,0-2,0-3,0h0.1c-0.4,0-0.8,0-1.1,0
		h0.1c-0.9,0-1.8,0-2.6,0l-0.4,0l-1.4,0l1.2,0c-0.7,0-1.4,0-2.1-0.1c-0.4,0-0.9,0-1.4,0c0.5-6.2,1.1-12.3,1.6-18.5
		c0.8-8.6,1.5-17.2,2.3-25.8c0.2-1.9,0.3-3.7,0.5-5.6c0.5,0.1,0.9,0.2,1.4,0.2c3-0.2,6.1-0.5,9.1-1c1.1-0.1,2.2-0.3,3.3-0.4
		c2-0.3,4.1-0.4,6.2-0.5c2.2,0,4.4-0.1,6.6-0.2c3.9-0.2,7.7-0.4,11.6-0.7c3.7-0.4,7.4-0.6,11.2-0.4c0.7,0.1,1.4,0.1,2.1,0.2
		c0,0.2,0,0.4-0.1,0.6c-0.6,4.6-1.2,9.2-1.8,13.9c-0.9,7.4-2,14.7-2.4,22.1c-0.1,1.9-0.4,3.8-0.7,5.7c-0.2,1.6-0.4,3.2-0.6,4.8
		c-0.2,1.7-0.4,3.5-0.6,5.2c0,0.5-0.1,0.9-0.1,1.4C226.5,321.7,225.8,321.6,225.2,321.6L225.2,321.6z M295,325.4
		c-1.8-0.2-3.7-0.2-5.5-0.3c-1.1,0-2.2,0-3.4-0.1l-0.2,0c-3-0.1-5.9-0.4-8.9-0.6c-1.8-0.1-3.5-0.3-5.3-0.5c-1.7-0.2-3.5-0.2-5.2-0.3
		c-2.7-0.1-5.3-0.4-8-0.5l0.6,0c-0.7,0-1.5,0-2.2-0.1c-2.6-0.1-5.2-0.3-7.8-0.5c0.1-1.6,0.4-3.3,0.5-4.9c0.2-2.4,0.2-4.7,0.4-7.1
		c0.2-2.1,0.2-4.2,0.2-6.3c0-2,0.1-4,0.2-6s0.1-4,0.2-6c0.1-2,0.3-3.9,0.4-5.9c0.1-2.2,0.4-4.3,0.5-6.5c0.1-2.1,0.3-4.2,0.5-6.3
		c0.3-2,0.5-4,0.8-6c1.3-0.1,2.6-0.1,3.8,0c2.1,0.1,4.3,0.2,6.4,0.3c2.3,0,4.5,0.1,6.8,0.1c1,0,2,0.1,3,0.1c1.1,0,2.2,0,3.2,0
		c2.1-0.1,4.3-0.2,6.4-0.2s4.3,0.1,6.4,0.2c2.3,0.1,4.5,0.4,6.8,0.5c0.8,0,1.7,0,2.5,0c0,1.5-0.1,3,0,4.4c0.1,2,0.1,4.1,0.1,6.1
		c0,1.9,0.1,3.8,0.1,5.7c0,2.3,0,4.6,0,7c0,4.5-0.3,9-0.7,13.5c-0.2,2-0.3,4.1-0.4,6.1c-0.1,1.9-0.1,3.8-0.2,5.8
		c-0.1,2-0.3,3.9-0.3,5.9c0,0.9,0,1.8,0,2.7C296.4,325.5,295.7,325.4,295,325.4L295,325.4z"/>
	<path class="st0" d="M454.4,207.8c0-0.8-0.1-1.7-0.3-2.5c-0.3-1.1-0.8-2.2-1.5-3.1c-1.2-1.8-3.2-2.9-5.4-3h-0.1
		c-1.1,0-2.2,0.2-3.2,0.6c-0.9-0.1-1.8,0-2.5,0.4c-1.1,0.6-2,1.5-2.4,2.6c-0.3,0.7-0.5,1.3-0.7,2c-0.3,0.9-0.6,1.7-0.8,2.6
		c-0.6,2.1-1,4.2-1.4,6.3l0,0.1c-0.4,1-0.7,2.1-1,3.2c-0.2,0.7-0.3,1.5-0.5,2.2c-0.3,0.9-0.5,1.8-0.8,2.7c-0.5,1.7-0.8,3.4-1.2,5.1
		c-0.4,1.8-0.8,3.6-1.2,5.4l0.1-0.3c-0.4,2.2-1,4.3-1.5,6.4c-0.5,2.3-1.1,4.5-1.8,6.8c-0.6,1.9-1.2,3.8-1.8,5.8c-0.6,2-1.2,4-1.8,6
		c-1.3,4.1-2.3,8.2-3.3,12.4c-0.5,2.2-0.9,4.3-1.4,6.5s-1.2,4.2-1.8,6.4c-0.8,3.2-1.7,6.4-2.4,9.6c-0.8,3.5-1.3,7-1.9,10.5l0-0.2
		c-0.1,0.8-0.3,1.5-0.4,2.3c0.1-0.4,0.2-0.8,0.2-1.2c-0.8,4.3-1.5,8.6-2.1,12.9c-0.3,2.1-0.6,4.3-0.8,6.5c-0.2,2.1-0.5,4.3-0.5,6.4
		c-0.1,1.9,0,3.8-0.1,5.8c-0.1,2.2-0.3,4.4-0.4,6.7c-0.2,4-0.5,8.1-0.7,12.1c-0.1,2.2-0.3,4.5-0.3,6.7c-0.1,2.2,0,4.4-0.1,6.6
		c-0.1,2.1-0.2,4.1-0.3,6.2c-0.1,2.3,0,4.6-0.1,7c-0.1,2,0,4-0.1,6.1c-0.1,1.9-0.2,3.7-0.3,5.6c-0.2,3.7-0.4,7.4-0.7,11.1l-2.2,36.2
		c-0.2,2.9-0.4,5.9-0.5,8.8c0,1,0,2,0.1,3c0,0.6,0.2,1.1,0.2,1.7c0.2,1.6,0.6,3.1,1.1,4.6l-0.4-1.2c0.1,0.3,0.2,0.5,0.3,0.8
		c0.1,0.6,0.3,1.1,0.6,1.7c0.4,0.8,1,1.5,1.8,2c0.4,0.6,1,1.1,1.5,1.6c0.6,0.5,1.4,0.9,2.2,1.1c1.2,0.3,2.4,0.3,3.7,0.2
		c0.8-0.1,1.6-0.4,2.3-0.8c0.7-0.3,1.3-0.7,1.9-1.2c1.4-1.4,2.3-3.3,2.5-5.3c0.1-0.9,0.2-1.8,0.2-2.6c0.1-0.9,0.1-1.8,0.1-2.6
		c0-0.9,0-1.8-0.2-2.7c0-0.4,0-0.8,0-1.2c0-0.8-0.1-1.6-0.2-2.3c0-0.3,0-0.7,0-1c0-0.8-0.1-1.5-0.1-2.3c0-0.4,0-0.7-0.1-1.1
		c0-0.5,0-1-0.1-1.5c0-0.5-0.1-0.9-0.1-1.4c0-0.6-0.1-1.3-0.1-1.9c0-1-0.1-2.1-0.2-3.1c0-0.9-0.1-1.8-0.2-2.7c0,0.4,0.1,0.8,0.1,1.3
		c0-0.6,0-1.3,0-1.9c0-0.6,0-1.1-0.1-1.7l0.3-3.9c0.2-2,0.2-4.1,0.3-6.1c0.1-2.1,0.3-4.2,0.3-6.2c0.1-2.2,0.1-4.4,0.2-6.6
		c0.1-2.2,0-4.5,0.1-6.7s0.1-4.4,0.2-6.7c0.1-4.4,0.1-8.8,0-13.1c-0.1-3.6-0.2-7.2-0.2-10.8c0.2-2.1,0.5-4.3,0.7-6.4
		c0.5-4.3,1.2-8.6,1.6-12.9c0.2-2.4,0.5-4.7,0.8-7c0.2-2,0.5-3.9,0.8-5.9c0.5-3.9,1.1-7.8,1.8-11.7c0.2-1.5,0.6-2.9,0.8-4.4
		c0.2-1.5,0.4-3.1,0.7-4.6c-0.1,0.4-0.2,0.8-0.2,1.2c0.4-1.8,0.6-3.5,0.9-5.3c0.3-1.8,0.6-3.7,0.8-5.5c0.2-1.9,0.6-3.9,1-5.8
		c0.3-1.7,0.5-3.4,0.8-5.1c0.2-1.2,0.5-2.3,0.7-3.5l0,0.1c0.8-3.8,1.8-7.5,2.7-11.3c0.2-0.8,0.4-1.5,0.6-2.3s0.3-1.6,0.5-2.3
		c0.5-2,1.1-4,1.7-6c1-3.8,2-7.6,3-11.4c1.1-4,2.1-8,3.2-12c0.9-3.5,1.9-7,3-10.5c0.5-1.7,1.2-3.4,1.7-5.1c0.5-1.7,1-3.5,1.4-5.2
		C452.5,218.9,454.8,213.5,454.4,207.8z"/>
	<path class="st0" d="M236.9,54.9l-0.1,0.1h0L236.9,54.9z"/>
	<path class="st0" d="M14.5,406.5l0,0.2c0,0.1,0,0.2,0,0.3C14.4,406.9,14.5,406.7,14.5,406.5z"/>
	<path class="st0" d="M442,169.5c-0.1-0.4-0.2-0.8-0.4-1.1c-0.3-0.8-0.7-1.6-1.1-2.3c-0.8-1.3-1.8-2.5-2.9-3.6c-0.9-1-1.8-2-2.7-3
		c-1.1-1.2-2.2-2.3-3.3-3.4c-1.1-1.2-2.3-2.4-3.5-3.5c-2.3-2.3-4.7-4.4-7-6.7c-2.5-2.5-5-5.1-7.5-7.7c-2.3-2.3-4.5-4.6-6.7-6.9
		c-1-1.1-1.9-2.2-2.9-3.2c-1.3-1.3-2.6-2.8-3.9-4.2c-1.3-1.5-2.7-2.9-4.1-4.3c-1.3-1.4-2.4-2.8-3.7-4.1c-1.2-1.3-2.5-2.5-3.7-3.7
		c-1-1.2-2-2.3-3-3.5c-2.2-2.9-4.5-5.8-6.9-8.7c-2.3-2.7-4.6-5.4-6.8-8.2c-1-1.3-2-2.6-3-3.9c-1-1.2-2-2.4-2.9-3.6
		c-0.8-1-1.5-2-2.3-3l-0.2-0.3c-0.2-0.2-0.3-0.5-0.5-0.7c0,0-0.1-0.1-0.1-0.1c-0.6-0.8-1.2-1.5-1.8-2.3c-0.9-1.2-1.8-2.3-2.7-3.5
		c-1.1-1.3-2.3-2.6-3.4-3.9c-2-2.3-4-4.6-5.9-7c-0.4-0.5-0.8-1.1-1.3-1.6l-0.2-0.2c-2-2.7-3.9-5.6-6.1-8.3c-1-1.3-2.1-2.5-3.1-3.8
		c-1-1.2-2-2.3-3-3.5c-1.2-1.7-2.5-3.3-3.8-4.9c-1.2-1.5-2.4-3.1-3.7-4.6c-1.1-1.2-2.3-2.3-3.5-3.3c-2.4-2.2-4.7-4.7-7-7
		c-2.3-2.3-4.2-4.9-6.4-7.2c-2.2-2.2-4.1-4.7-6.1-7.1c-0.8-1-1.5-2.1-2.3-3.1c-1.5-1.8-3-3.6-4.7-5.3c-0.3-0.3-0.7-0.6-1.1-0.8
		c0,0,0-0.1,0-0.1c-0.6-1.1-1.6-1.9-2.8-2.2c-0.4-0.1-0.8-0.1-1.3-0.2c-0.8,0-1.7,0.2-2.4,0.6l0,0c-0.1,0-0.2,0.1-0.3,0.2
		c-0.5,0.2-1.1,0.5-1.6,0.8c-1,0.6-2,1.1-3,1.6c-1.7,0.9-3.5,1.7-5.2,2.6c-1.8,1-3.5,2.1-5.2,3.2c-1.9,1.3-3.7,2.8-5.6,4
		c-3.6,2.3-7.3,4.3-11,6.4c-1.8,1.1-3.6,2.1-5.4,3.1c-0.8,0.5-1.5,0.9-2.3,1.5c-0.7,0.5-1.4,0.9-2.2,1.4c-1.4,0.9-2.8,2-4.2,2.9
		c-1.8,1.2-3.6,2.5-5.4,3.8c-3.1,2.3-6.4,4.2-9.6,6.3c-3.3,2.2-6.8,4.1-10.2,6.1c-3.6,2.3-7.1,4.9-10.4,7.7
		c-4.4,3.3-9.2,5.9-13.8,8.8c-2.9,1.8-5.6,3.7-8.3,5.7c-1.3,1-2.5,2.1-3.7,3.1c-1.3,1.1-2.6,2.2-4,3.3c-2.1,1.6-4.4,3-6.6,4.4
		c-2.3,1.5-4.7,2.9-7,4.3c-2,1.2-4,2.3-5.9,3.5c-2,1.3-4,2.8-5.9,4.3c-5.3,4-10.9,7.7-16.5,11.5c-1.5,1-3,2-4.6,2.9
		c-1.6,0.9-3.1,2-4.6,3.1c-3.1,2.2-6.1,4.5-9,6.9c-1.9,1.4-3.8,2.8-5.8,4.1c-2.4,1.6-4.7,3.3-7.1,4.9c-1.1,0.8-2.2,1.6-3.4,2.3
		c-1.2,0.7-2.4,1.4-3.6,2.2c-2.3,1.4-4.5,3-6.6,4.7l-1.2,0.9c-2.9,2.2-6,4.1-9,6.2c-3.3,2.3-6.7,4.3-10.1,6.4c-1.6,1-3.3,2-5,3
		c-1.9,1.2-3.7,2.4-5.5,3.7c-3.5,2.6-7.2,5-10.6,7.6l0.2-0.1c-0.9,0.7-1.9,1.4-2.9,2.1c-0.8,0.5-1.5,0.9-2.3,1.4
		c-1.4,0.9-2.8,2-4.2,2.9c-0.7,0.5-1.4,0.9-2.2,1.4c-0.5,0.3-1,0.6-1.5,0.8c0-0.2-0.1-0.5-0.1-0.7c-0.1-0.7-0.2-1.5-0.2-2.2
		c-0.1-1-0.3-2.1-0.5-3.1c0.1,0.3,0.1,0.6,0.2,0.9c-0.2-1.1-0.4-2.2-0.8-3.2c-0.1-0.4-0.3-0.7-0.5-1.1c-0.2-0.5-0.5-1.1-0.8-1.6
		c-0.6-0.8-1.3-1.4-2.1-1.8c-0.5-0.3-1.2-0.5-1.8-0.5c-0.4,0-0.8-0.1-1.2-0.1c-0.5,0-1,0.1-1.5,0.3c-0.5,0.2-1.1,0.5-1.6,0.8
		c-0.3,0.2-0.7,0.5-1,0.7c-0.7,0.2-1.4,0.6-1.9,1.1c-0.2,0.3-0.5,0.6-0.7,1c-0.4,0.6-0.6,1.3-0.6,2c-0.1,0.5-0.1,1-0.1,1.5
		c-0.1,0.5-0.2,0.9-0.3,1.4c-0.2,1.2-0.3,2.4-0.3,3.6c0,2,0,4-0.2,6c-0.2,1.3-0.4,2.6-0.5,3.9c-0.2,1.3-0.1,2.6-0.2,4
		c-0.1,0.5-0.2,1-0.3,1.5c-0.2,1.1-0.4,2.2-0.5,3.4c-0.2,1.4-0.4,2.8-0.5,4.3c-0.1,1.7-0.2,3.3-0.5,5c0-0.1,0-0.2,0-0.3
		c-0.1,1-0.2,2-0.3,3c0,0.9-0.1,1.9-0.2,2.8c-0.1,1.2-0.3,2.3-0.4,3.5c-0.1,0.9,0,1.9-0.1,2.9c-0.1,1.8-0.3,3.5-0.5,5.3
		c-0.2,1.8-0.3,3.7-0.5,5.5c-0.2,1.2-0.4,2.3-0.5,3.5c-0.1,1.1-0.2,2.2-0.3,3.3c-0.1,1.1-0.3,2.2-0.3,3.4c0,0.8-0.1,1.6-0.2,2.5
		c-0.2,1.4-0.5,2.7-0.7,4c-0.3,2.1-0.5,4.2-0.8,6.3c-0.4,3.7-0.7,7.5-1.1,11.2c-0.4,2.9-0.8,5.7-1,8.6c-0.2,2.6-0.6,5.2-0.9,7.8
		c-0.5,4.8-0.2,9.6-0.7,14.3c-0.3,2-0.6,4-0.8,6.1c-0.2,2.1-0.4,4.3-0.5,6.4c-0.1,1.9-0.3,3.8-0.5,5.7c-0.2,1.8-0.3,3.6-0.5,5.5
		c-0.3,1.8-0.6,3.7-0.8,5.5c-0.2,1.8-0.4,3.6-0.6,5.4c-0.3,2.1-0.5,4.2-0.7,6.3s-0.3,4.2-0.4,6.4c-0.1,2.1-0.4,4.2-0.6,6.3
		c-0.1,1-0.1,2-0.2,2.9c-0.1,1.1-0.3,2.1-0.3,3.2c-0.1,2.2-0.1,4.3-0.3,6.5c-0.2,2-0.4,4-0.4,6c0,4.2,0,8.4-0.5,12.6
		c-0.4,4.2-0.2,8.5-0.2,12.7v12.6c0,8.9,0,17.7,0,26.6c0,3-0.1,6-0.3,9c-0.1,1.4-0.3,2.8-0.4,4.2c-0.1,1.4-0.1,2.8-0.1,4.1
		c-0.1,1.5-0.2,3.1-0.4,4.6c-0.1,1.4-0.2,2.9-0.2,4.3c0,2.8-0.1,5.6-0.4,8.4c-0.2,1.3-0.3,2.5-0.3,3.8v2.9c0.1,0.4,0.1,0.7,0.2,1.1
		c0.1,0.5,0.2,0.9,0.4,1.4c0.1,0.2,0.1,0.4,0.2,0.6c0.1,0.1,0.4,0.8,0.1,0.2c0.2,0.4,0.4,0.8,0.6,1.2c0.1,0.2,0.2,0.4,0.4,0.6
		c0,0,0,0,0,0c0,0,0,0,0.1,0.1c0.2,0.2,0.3,0.4,0.5,0.5c0.1,0.1,0.5,0.5,0.3,0.2c-0.2-0.3,0,0,0.1,0.1c0.1,0.1,0.2,0.1,0.3,0.2
		c0.2,0.1,0.3,0.2,0.5,0.3c0,0,0.1,0.1,0.2,0.1c0,0,0.1,0,0.1,0c0.2,0.1,0.4,0.1,0.6,0.2c0.2,0,0.4,0.1,0.6,0.1c0.1,0,0.3,0,0.4,0
		c0.2,0,0.3,0,0.5,0c0.1,0,0.1,0,0.1,0c0.2,0,0.4-0.1,0.4-0.1c0,0,0,0,0.1,0c0,0,0,0,0,0c0.2-0.1,0.3-0.2,0.5-0.3c0,0,0,0,0,0
		c0.1-0.1,0.1-0.1,0.2-0.2c0.1-0.1,0.3-0.3,0.4-0.4c0,0,0,0,0,0c0,0,0,0,0.1-0.2c0.1-0.2,0.3-0.4,0.4-0.6c0.2-0.4,0.4-0.7,0.6-1.1
		c0-0.1,0.1-0.2,0.1-0.3c0.1-0.2,0.2-0.5,0.2-0.7c0.1-0.2,0.1-0.4,0.2-0.6v-0.3c-0.1-2.7,0-5.5,0.2-8.2c0,0.3-0.1,0.5-0.1,0.8
		c0.3-2.2,0.4-4.4,0.5-6.7c0.1-1.9,0-3.7,0.1-5.6c0-2.2,0.5-4.4,0.6-6.6c0.1-1.9,0.1-3.9,0.3-5.8c0.1-0.7,0.1-1.5,0.2-2.2
		c0.1-0.2,0.2-0.5,0.2-0.7c0.1-0.3,0.1-0.6,0.1-0.9c0.3-1.5,0.4-3,0.5-4.6c-0.1-1.3-0.2-2.5-0.2-3.8c0.1-0.5,0.2-1,0.2-1.5
		c0.1-1,0.1-2,0.2-3c0,0.2,0,0.3,0,0.5c0-0.7,0.1-1.3,0.1-2c0-0.3,0-0.6,0-0.9c0-0.4,0-0.7,0-1.1c0.1-1.1,0.1-2.2,0.2-3.3
		c0-0.4,0-0.7,0.1-1.1c0-0.7,0.1-1.3,0.1-2c0.1-1.2,0.2-2.5,0.3-3.7c0.1-1.2,0.3-2.3,0.5-3.5c0.3-1.4,0.4-2.9,0.4-4.3
		c0.2-2.3,0.6-4.6,0.8-6.8c0.4-3,0.2-6.1,0.3-9.2c0.3-2.7,0.7-5.4,1.2-8.1c0.3-1.5,0.3-2.9,0.5-4.4c0.2-1.5,0.6-2.9,0.7-4.4
		c0.1-1.5,0.4-3,0.7-4.5c0.3-1.5,0.5-3,0.6-4.5c0.2-1.7,0.6-3.5,0.7-5.2c0.1-1.9,0.4-3.7,0.8-5.6c0.4-1.7,0.8-3.4,1.1-5.1
		c0.4-2.2,0.7-4.3,1-6.5c0.3-1.9,0.4-3.9,0.8-5.8c0.4-1.8,0.7-3.5,0.9-5.3c0.4-3.6,0.7-7.1,1.2-10.7c0.6-4,1.3-7.9,1.9-11.9
		c0.4-3.2,0.9-6.5,1.2-9.8c0.1-1.9,0.2-3.8,0.2-5.6c0-1.4,0-2.7,0-4.1c0.2-2.7,0.6-5.5,0.9-8.2c0.3-3.5,0.5-7,0.9-10.5
		c0.2-1.5,0.3-3,0.5-4.5c0.3-2,0.4-4,0.4-6c0.1-3.5,0-7,0.2-10.5c0.1-1.2,0.1-2.4,0.2-3.6c0-0.3,0-0.6,0-0.8
		c0.2-3.7,0.5-7.5,0.9-11.2c0.2-1.8,0.3-3.7,0.5-5.5c0.2-1.9,0.4-3.7,0.5-5.6c0.2-3.7,0.5-7.3,0.7-11c0.1-1.6,0.2-3.2,0.4-4.8
		c0.2-1.9,0.4-3.7,0.5-5.6c0,0.4,0,0.8-0.1,1.2c0.1-2.4,0.4-4.7,0.9-7c0.2-0.7,0.3-1.5,0.4-2.2c2.1-1.3,4-2.8,6-4.1
		c3.1-2.1,6.2-4.1,9.3-6.3c0.6-0.3,1.1-0.7,1.7-1c1.5-0.9,2.9-2,4.4-3c1.9-1.2,3.7-2.3,5.6-3.5l-0.1,0c2-1.3,4.1-2.5,6.1-3.8
		c-0.4,0.2-0.7,0.5-1.1,0.7c1.8-1.1,3.6-2.2,5.4-3.2c1.8-1,3.5-2.1,5.3-3.1c1.8-1,3.5-2.2,5.3-3.2c1.8-1,3.8-1.9,5.7-2.9
		c3.8-1.9,7.3-4.1,10.9-6.3c1.7-1.1,3.6-1.9,5.4-2.9c1.7-0.9,3.4-1.7,5.1-2.7c5.2-2.9,10.4-5.9,15.4-9.1c1.2-0.7,2.3-1.4,3.5-2.1
		c1.5-1,3-2,4.5-3.1c1.7-1,3.4-2,5.1-3.1c2.1-1.3,4.2-2.6,6.3-3.8c2.2-1.3,4.3-2.7,6.5-4c2.1-1.3,4.1-2.7,6.1-4.1
		c2.4-1.5,4.9-2.9,7.4-4.5l-1.1,0.7c1.3-0.9,2.7-1.7,4-2.5h0l0,0c0.3-0.2,0.7-0.4,1-0.7c1-0.7,2-1.3,3-2c2.7-1.7,5.3-3.6,8-5.3
		c0.7-0.5,1.5-1,2.2-1.4c0.7-0.5,1.4-0.9,2.1-1.4c4.8-3.1,9.5-6.4,14.2-9.5c1.4-0.9,2.8-1.8,4.2-2.8c1.3-0.9,2.6-1.8,3.9-2.7
		c1.3-0.8,2.6-1.6,3.8-2.5s2.5-1.8,3.7-2.7c2.5-1.9,5.1-3.6,7.7-5.2c-0.4,0.2-0.7,0.5-1.1,0.7c3.5-2.2,6.7-4.7,10.1-7
		c1-0.6,2-1.2,2.9-1.9c0.7-0.4,1.3-0.9,2-1.3c1.5-1,3-1.9,4.4-2.9c1.4-1,2.8-2,4.2-2.9c1.9-1.2,3.7-2.5,5.5-3.7l-0.7,0.5
		c2.1-1.3,4-2.8,6.1-4.2c1.3-0.8,2.5-1.7,3.7-2.5c1.2-0.8,2.2-1.7,3.4-2.5c1.7-1.1,3.3-2.2,5-3.4c0.6-0.3,1.1-0.7,1.7-1
		c0.9-0.6,1.8-1.1,2.7-1.7c0.7-0.5,1.4-0.9,2.1-1.5c0.6-0.5,1.3-0.9,1.9-1.3l-1.1,0.7c1-0.6,1.9-1.3,2.9-2c0.6-0.4,1.3-0.7,1.9-1.1
		c0.8-0.5,1.5-1,2.3-1.5c0.7-0.5,1.5-0.9,2.2-1.4c0.9-0.5,1.7-1.1,2.5-1.7c0.4-0.3,0.8-0.6,1.2-0.9c0.1,0.1,0.1,0.2,0.2,0.2
		c1.1,1.2,2.1,2.5,3.1,3.8c1.2,1.5,2.4,2.9,3.6,4.4c1.3,1.6,2.6,3.1,4,4.6c1.3,1.4,2.5,2.9,3.9,4.4c1,1.2,1.9,2.4,2.7,3.7
		c2.3,3.1,4.8,6,7.3,9c1.2,1.4,2.4,2.7,3.6,4.1c1.2,1.4,2.5,2.6,3.8,3.9c1.2,1.3,2.3,2.7,3.5,4c1.2,1.3,2.4,2.6,3.5,4
		c1.1,1.4,2.3,2.8,3.5,4.1c1.3,1.4,2.4,2.8,3.6,4.3c2.1,2.6,4,5.3,6.1,7.8c2.3,2.7,4.4,5.5,6.8,8.1c1.3,1.4,2.5,2.9,3.8,4.3
		c1.2,1.3,2.4,2.7,3.6,4c2.7,3.1,5.3,6.2,8.1,9.3c2.4,2.7,4.8,5.4,7.2,8.1c2.1,2.4,4.2,4.8,6.1,7.3c0.9,1.1,1.8,2.3,2.7,3.4
		c1.1,1.3,2.2,2.4,3.3,3.7c2.3,2.5,4.6,4.9,6.9,7.3c2.2,2.4,4.7,4.5,6.9,6.8c0.8,0.9,1.6,1.9,2.4,2.8c1,1.1,2.1,2.2,3.1,3.2
		c1.2,1.2,2.4,2.5,3.6,3.7c1.1,1.1,2.1,2.2,3.2,3.3c1,1.1,2,2.1,3,3.2c0.9,1.1,1.8,2.2,2.7,3.3c1.8,2.3,3.6,4.7,5.4,7
		c0.6,0.7,1.1,1.5,1.7,2.2c0.6,0.7,1.3,1.4,2,2.1c1.2,1.2,2.4,2.5,3.7,3.7c0.6,0.5,1.2,1,1.8,1.4c0.4,0.2,0.7,0.4,1.1,0.6
		c1.3,0.8,2.8,1.3,4.3,1.5c0.8,0.1,1.5,0.1,2.3-0.1c1.5-0.3,2.8-1.2,3.6-2.5c0.5-1,0.9-2.1,1-3.2c0.1-0.7,0.2-1.4,0.3-2.1
		C443.8,171.9,443.1,170.4,442,169.5z M19.6,293.4c0.1-1.8,0.3-3.6,0.5-5.4l0,0c0.2-1.5,0.5-3,0.6-4.5
		C20.5,286.8,20,290.1,19.6,293.4z"/>
	<polygon class="st0" points="290.2,0.8 290.2,0.8 290.2,0.8 	"/>
	<path class="st0" d="M21.8,266.4c-0.1,1.1-0.2,2.2-0.4,3.2C21.5,268.5,21.7,267.5,21.8,266.4z"/>
	<path class="st0" d="M13.6,419.3c0-0.1,0-0.2,0-0.3v0C13.6,419.1,13.6,419.2,13.6,419.3L13.6,419.3z"/>
	<path class="st0" d="M347.8,469.3L347.8,469.3l0.1,0l0,0L347.8,469.3z"/>
	<path class="st0" d="M119,457.6L119,457.6l-0.5,0L119,457.6z"/>
	<path class="st0" d="M62.1,444.3c0.1,0,0.1,0,0.2,0c0.3,0,0.7-0.1,1-0.1C62.9,444.2,62.5,444.3,62.1,444.3z"/>
	<path class="st0" d="M407.8,463.5c-0.7-0.8-1.5-1.4-2.5-1.9l0.2,0.1c-0.1-0.1-0.2-0.1-0.3-0.2c-0.3-0.1-0.5-0.2-0.8-0.4l0.4,0.2
		c-1.6-0.7-3.3-1.3-5-1.9c-2.1-0.7-4.3-1.2-6.5-1.3c-2.1-0.1-4.2-0.4-6.4-0.6c-1.3-0.1-2.7-0.2-4-0.3c-1.5-0.1-3-0.2-4.4-0.4
		c-0.6-0.1-1.2-0.2-1.8-0.2l0.4,0.1l-0.3-0.1l-0.1,0h0c-0.6-0.1-1.2-0.2-1.8-0.3c0.4,0.1,0.8,0.1,1.2,0.2c-2.7-0.5-5.4-0.8-8.1-1.2
		c-0.3-0.1-0.6-0.1-1-0.2c-0.9-0.2-1.8-0.3-2.7-0.4c-1.1-0.1-2.2-0.2-3.3-0.3c-1.1-0.1-2.2-0.2-3.4-0.2c-0.5,0-1,0-1.5,0
		c-0.5,0-1.1,0-1.6,0c-1,0-1.9-0.1-2.9-0.1c-1,0-2,0-3.1-0.1c-2.3-0.2-4.5-0.2-6.8-0.6c0.4,0.1,0.8,0.1,1.2,0.2
		c-2.4-0.4-4.8-0.6-7.2-0.9c-1.1-0.1-2.2-0.2-3.3-0.2s-2.2,0-3.3-0.1c-2.1-0.1-4.1-0.2-6.2-0.5c-1.8-0.2-3.7-0.3-5.5-0.6l0.7,0.1
		c-1.7-0.3-3.3-0.5-5-0.7c-1.4-0.1-2.8-0.1-4.3-0.2c-1.5-0.1-3.1-0.2-4.6-0.2c-1.6-0.1-3.2,0-4.8-0.2c-2.2-0.2-4.3-0.4-6.5-0.5
		c-1.8-0.1-3.6-0.3-5.4-0.4c-2-0.2-4.1-0.3-6.1-0.4c-1.6-0.1-3.1-0.1-4.7-0.2c-6-0.4-11.9-0.4-17.9-0.4c-0.9,0-1.8,0-2.7,0
		c-1.9,0-3.8,0-5.7,0c-2.8,0.1-5.6,0.1-8.3,0.1c-3,0-6-0.2-9-0.5c-3.1-0.3-6.2-0.8-9.3-1c-1.6-0.1-3.2-0.1-4.8-0.3
		c-2-0.2-4-0.4-6-0.6c-3.1-0.2-6.2-0.6-9.3-1c-2.9-0.3-5.9-0.4-8.8-0.7c-1.5-0.2-3.1-0.5-4.6-0.7c-1.5-0.2-2.9-0.3-4.4-0.4
		c-3.2-0.3-6.3-0.3-9.5-0.7c-3.5-0.4-7.1-0.2-10.7-0.5c-3.4-0.3-6.9-0.2-10.3-0.4c-1.7-0.1-3.3-0.1-5-0.2c-1.5-0.1-3-0.2-4.5-0.2
		c-1.5-0.1-3.1-0.1-4.6-0.2c-1.6-0.2-3.3-0.2-4.9-0.2c-1.8,0.1-3.6,0.1-5.3,0c-1.9-0.1-3.8-0.3-5.7-0.3c-1.1,0-2.1,0-3.2,0.1
		c-1.2,0-2.4,0.1-3.6,0c-2.2,0-4.5,0-6.7,0.1c-1.8,0.1-3.6,0.2-5.4,0.2c-1.9,0-3.8,0.1-5.7,0.2l0.8-0.1c-3.1,0.3-6.2,0.3-9.3,0.2
		c-1.2-0.1-2.5-0.1-3.7-0.1c-1.8,0-3.5-0.1-5.2,0.1c-2.8,0.3-5.5,1-8.2,1.4c-1.4,0.2-2.8,0.5-4.2,0.6c-1.5,0.2-2.9,0.5-4.4,0.6
		c-0.3,0-0.7,0-1,0.1c-1,0.1-2.1,0.1-3.1,0.2c-1.2,0.1-2.4,0.2-3.6,0.4c-1.3,0.2-2.5,0.4-3.8,0.5c-0.6,0-1.1,0.1-1.7,0.2
		c-1,0.1-2,0.1-2.9,0.3c-0.9,0.1-1.8,0.3-2.7,0.4c-0.7,0-1.4,0.1-2,0.1l0.5,0c-0.3,0-0.6,0-0.8,0.1l-0.4,0l0.3,0
		c-2.7,0.2-5.4,0.8-8.1,1.1c-1.2,0-2.4-0.1-3.7-0.2c-0.7,0-1.4-0.1-2-0.1c-0.7,0-1.4,0-2.1,0.1c-0.8,0-1.6,0.1-2.4,0.3
		c-0.9,0.3-1.8,0.6-2.7,0.9l1.2-0.4c-1.1,0.4-2.2,0.8-3.3,1.2c-1,0.5-1.9,1-2.8,1.7c-1.5,1-2.5,2.6-2.6,4.4
		c-0.1,1.5,0.4,2.9,1.3,4.1c0.3,0.7,0.7,1.3,1.2,1.9c1.4,1.6,3.2,2.8,5.3,3.3c1.7,0.5,3.4,0.6,5.2,0.5c1.3-0.1,2.6-0.2,3.9-0.5
		c1-0.2,2.1-0.3,3.1-0.4c1.5-0.1,2.9-0.1,4.4-0.2c1.5-0.1,3-0.5,4.5-0.8c0.7,0,1.5,0.1,2.2,0.1c0.8,0.1,1.6,0.1,2.4,0.1
		c2.3,0,4.7-0.3,7-0.6c1.6-0.1,3.2-0.2,4.9-0.4c1.5-0.2,3-0.5,4.4-0.9c2.9-0.7,5.8-1.1,8.7-1.3l-0.7,0.1c4.1-0.3,8.2-0.8,12.3-1.2
		c2.6-0.2,5.2-0.4,7.9-0.5c1.4-0.1,2.9-0.2,4.3-0.3c1.3-0.1,2.6-0.1,3.9-0.1c1.3,0,2.6-0.1,3.9-0.2c1.3,0,2.7-0.1,4-0.1
		c1.4,0,2.8,0,4.2,0c1.4,0,2.8-0.1,4.2-0.2c2.7-0.2,5.4-0.5,8.1-0.8c4.3-0.2,8.6,0.1,13,0.2c4.4,0.2,8.8-0.2,13.2-0.2
		c2.3,0,4.7,0.2,7,0.5c2.1,0.2,4.2,0.3,6.3,0.4c2.1,0.1,4.3,0.2,6.4,0.1c2.3,0,4.5,0.1,6.8,0.3c4.5,0.3,9,1.1,13.6,1.3
		c2.3,0.1,4.6,0.1,6.9,0.2s4.6,0.3,6.9,0.5c4.3,0.3,8.6,0.6,12.9,0.6c2,0,4,0,6.1,0.1c2.2,0.1,4.5,0.3,6.7,0.5
		c4.6,0.4,9.1,0.6,13.7,0.5c2.2,0,4.5-0.1,6.8,0.1c2.2,0.1,4.4,0.5,6.6,0.7c2.1,0.2,4.2,0.2,6.3,0.2c2.3-0.1,4.5-0.2,6.8-0.1
		c4.1,0.1,8.3,0.5,12.4,0.7c3.6,0.2,7.1,0.7,10.7,1c1.6,0.1,3.2,0.2,4.8,0.3c1.8,0.2,3.5,0.4,5.3,0.5c3.5,0.3,6.9,0.2,10.4,0.3
		c1.8,0,3.7,0.2,5.5,0.4c1.2,0.1,2.4,0.2,3.7,0.4c1.5,0.3,3,0.7,4.6,1c2,0.4,4.1,0.7,6.1,0.8c2.9,0.1,5.7,0.3,8.6,0.6
		c0.9,0.2,1.9,0.3,2.8,0.5l-0.2,0l0.1,0l0.1,0l0.1,0l0,0h0l0.1,0l-0.1,0c0.4,0.1,0.8,0.2,1.2,0.2c1.2,0.2,2.4,0.4,3.6,0.6l1.3,0.2
		c1.1,0.2,2.2,0.5,3.3,0.6c0.9,0.1,1.8,0.1,2.7,0.1c1.6,0,3.2,0.2,4.8,0.3s3.2,0.1,4.8,0.3c1.7,0.2,3.3,0.4,5,0.7
		c3.2,0.6,6.4,1.3,9.7,1.6c1.1,0.1,2.2,0.1,3.3,0.2c1.1,0.1,2.1,0.1,3.2,0.1c0.8,0,1.7-0.1,2.5-0.1c0.7,0,1.5,0.2,2.2,0.2
		c0.9,0,1.9,0.1,2.8,0.2c1,0,1.9,0,2.9-0.2c0.4,0,0.7,0,1.1-0.1c0.6,0,1.2-0.1,1.7-0.2c0.6-0.1,1.1-0.3,1.7-0.6
		c0.3-0.1,0.6-0.2,0.9-0.3c0.6-0.2,1.1-0.5,1.5-0.9c0.7-0.6,1.3-1.5,1.5-2.4c0.3-1,0.3-2,0.1-3C409.3,465.6,408.7,464.5,407.8,463.5
		z"/>
	<path class="st0" d="M376.5,456.6l0.1,0h0L376.5,456.6z"/>
</g>
</svg>
