<svg xmlns="http://www.w3.org/2000/svg" width="454.451" height="506.797" viewBox="0 0 454.451 506.797">
  <defs>
    <style>
      .a {
        fill: #fff;
      }
    </style>
  </defs>
  <g>
    <path class="a" d="M302.676,8.292l.135.178q.164.207.324.417Z"/>
    <path class="a" d="M178.681,320.92l.091,0h.034Z"/>
    <path class="a" d="M285.557,334.433c-.043,0-.087,0-.131-.006-.1,0-.209,0-.313-.007Z"/>
    <path class="a" d="M266.611,193.142q-.1.384-.206.765c-.04.155-.081.311-.122.466Z"/>
    <path class="a" d="M312.485,267.9a28.521,28.521,0,0,0,4.442-.113c1.015-.121,2.031-.258,3.043-.441a13.54,13.54,0,0,0,2.878-.926A9.386,9.386,0,0,0,327,262.723a5.128,5.128,0,0,0-.832-6.313,12.7,12.7,0,0,0-1.949-1.457,10.826,10.826,0,0,0-4.129-1.289,34.978,34.978,0,0,0-5.11-.3h-.416c-1.474,0-2.948.021-4.416.121-.641.044-1.282.094-1.923.143-.072-1.517-.2-3.031-.291-4.547-.067-1.9-.1-3.809-.115-5.71-.016-2.1.132-4.2.129-6.305q-.006-3.381.238-6.754a31.575,31.575,0,0,0,.078-3.941c-.024-.5-.06-.993-.09-1.49q-.016-.4-.039-.807a6.442,6.442,0,0,0-.5-1.77c-.156-.379-.344-.738-.523-1.1-.407-.84-.848-1.668-1.3-2.485a16.459,16.459,0,0,0-2.121-3.339,41.721,41.721,0,0,0-3.3-2.9l.256.237q-1.05-.963-2.135-1.885c-.867-.731-1.684-1.52-2.555-2.246a21.451,21.451,0,0,0-5.719-3.7c-1.566-.61-3.125-1.2-4.714-1.743-.93-.316-1.883-.609-2.825-.879-1.294-.369-2.617-.595-3.934-.859a52.292,52.292,0,0,0-5.6-1.047c-1.816-.219-3.621-.324-5.414-.707-.9-.193-1.813-.34-2.727-.463.122-.567.244-1.134.38-1.7.332-1.19.671-2.378.995-3.571.273-1.051.528-2.1.78-3.155.461-1.907.071-4.36-1.707-5.492a5.365,5.365,0,0,0-2.925-.98,4.491,4.491,0,0,0-.645.046,4.891,4.891,0,0,0-3.09,1.812,12.166,12.166,0,0,0-1.117,1.977,16.514,16.514,0,0,0-.68,1.6q-1.113,2.764-2.183,5.546c-.252.656-.516,1.307-.778,1.958-.119-.03-.235-.07-.354-.1a44.206,44.206,0,0,0-5.3-.926c-3.762-.41-7.536-.621-11.27-1.239-2.023-.335-4.059-.578-6.1-.785a49.813,49.813,0,0,0-6.344-.351c-2.074.054-4.129.219-6.188.426-1.684.171-3.367.392-5.051.524a104.286,104.286,0,0,1-10.929-.689q-3.317-.292-6.633-.582-1.488-.133-2.969-.261a25.981,25.981,0,0,0-3.5-.024l.926-.043c-1.191.051-2.371.016-3.563-.023-.075,0-.15,0-.224,0a4.87,4.87,0,0,0-3.144,1.029,4.406,4.406,0,0,0-.6-.117c-.139-.012-.278-.018-.415-.018a4.819,4.819,0,0,0-4.729,4.334c-.446,4.012-.637,8.067-.7,12.1-.031,2.012-.179,4.008-.3,6.016-.133,2.3-.184,4.6-.266,6.9s-.367,4.629-.57,6.934q-.3,3.41-.6,6.824-.587,6.615-1.164,13.23-2.3,26.157-4.6,52.309c-.687,7.816-1.437,15.637-1.976,23.469a4.8,4.8,0,0,0,4.316,5.144,4.731,4.731,0,0,0,3.07-.837c1.267-.074,2.54-.114,3.806-.11.373.017.745.03,1.118.041.661.024,1.323.045,1.985.057q1.318.036,2.639.049c.367.01.735.019,1.1.025l-1.23-.035c1.418.043,2.836.031,4.254.015,1.308-.012,2.621-.023,3.933.008l-.652-.019c1.855.047,3.705.037,5.559.058s3.675.066,5.511.055c1.786-.012,3.563-.18,5.344-.207.563-.008,1.129,0,1.692.015.453.012.906.024,1.359.02.9-.006,1.788-.023,2.682-.02,4.19.207,8.378.546,12.572.684.186.006.372.024.558.032,0,.054,0,.109,0,.163,0-.055,0-.109,0-.163h0c0,.221,0,.441,0,.662-.018.6-.064,1.193-.08,1.79-.03.977-.008,1.957.016,2.936-.009.895-.033,1.79.011,2.685.039.754.121,1.5.172,2.258a13.51,13.51,0,0,0,.742,3.316,11.264,11.264,0,0,0,.9,2.094c.336.574.657,1.18,1.051,1.723a10.156,10.156,0,0,0,1.586,1.625,7.252,7.252,0,0,0,2.567,1.367,12.335,12.335,0,0,0,2.829.589c.111.045.223.085.335.122a5.815,5.815,0,0,0,3.168.3c.365-.091.687-.185.989-.291a4.677,4.677,0,0,0,4.843-4.119c.008-.065.014-.131.02-.2.134-.255.259-.522.374-.8a18.631,18.631,0,0,0,1.043-4.886c.223-1.774.442-3.543.629-5.317.173-1.631.285-3.266.381-4.9.7.056,1.4.115,2.1.154,1.948.107,3.895.217,5.848.281l-.262-.008,1.964.06c1.372.056,2.738.18,4.106.272,1.663.113,3.323.175,4.989.216,1.432.068,2.85.22,4.277.386,1.66.191,3.328.281,4.992.406,2.905.223,5.8.479,8.712.581q1.557.051,3.113.066c1,.029,2.008.052,3.014.075,1.348.069,2.685.284,4.032.391a33.2,33.2,0,0,0,6.137.008,4.778,4.778,0,0,0,3.245-1.824,4.576,4.576,0,0,0,1.333-2.855c.18-2.368.125-4.727.223-7.094.082-2.1.293-4.188.351-6.289.125-4.512.391-9,.762-13.5s.41-8.985.508-13.477c.047-2.183.047-4.39-.047-6.57-.086-1.938-.078-3.871-.117-5.809-.051-2.277-.149-4.554-.125-6.832.011-.928.054-1.855.089-2.782C309.457,267.881,310.975,267.843,312.485,267.9Zm-42.576-58.341a53.1,53.1,0,0,1,5.749.776c1.062.239,2.127.456,3.19.681,1.566.408,3.1.96,4.64,1.442.7.218,1.367.515,2.046.777.52.2,1.05.393,1.562.617a32.228,32.228,0,0,1,3.368,2.481c.723.586,1.391,1.238,2.09,1.851.515.453,1.051.875,1.566,1.324.5.463,1,.921,1.52,1.352.267.218.535.433.8.654.12.134.234.272.343.416.375.67.709,1.368,1.078,2.039.322.588.644,1.185.927,1.8.024.434.05.868.075,1.3,0,.886-.1,1.767-.159,2.65-.082,1.121-.136,2.242-.175,3.364-.079,2.336-.036,4.668-.121,7-.086,2.257.035,4.5.039,6.757s.214,4.469.342,6.7c.007.258,0,.515,0,.773-.5.03-1,.064-1.5.088-2.3.11-4.582.274-6.879.34-2.351.066-4.7.047-7.051.106-4.187.1-8.363.421-12.554.46-4.313.043-8.625.094-12.934.286q-1.693.075-3.383.191.516-4.08,1.036-8.158c.442-3.407.86-6.817,1.469-10.2.313-1.742.711-3.468.961-5.222s.48-3.52.8-5.266c.332-1.84.812-3.644,1.129-5.488.3-1.731.691-3.438,1.09-5.149.2-.878.371-1.765.578-2.644.23-1.008.519-2,.746-3.008.16-.724.318-1.451.48-2.177.352.039.7.069,1.056.111C265.866,208.838,267.859,209.362,269.909,209.557Zm-12.274-19.3c-.066.247-.131.494-.2.742l-.022.083Q257.524,190.669,257.635,190.256Zm-66.5,12.305-1.273.059a29.281,29.281,0,0,1,3.66.211c1.277.113,2.554.222,3.832.336,2.957.257,5.91.527,8.867.765a60.035,60.035,0,0,0,8.945.188c1.461-.1,2.914-.328,4.375-.457,1.271-.117,2.539-.26,3.809-.355.922-.027,1.843-.033,2.766-.013,1.367.032,2.73.207,4.085.344,2.747.278,5.45.711,8.176,1.121,3.979.6,8.043.579,12.006,1.3-.072.174-.147.348-.218.523-1.758,4.3-3.363,8.691-4.938,13.066-.714,1.981-1.371,3.985-2.047,5.977-.617,1.82-1.285,3.621-1.9,5.437-2.765,8.176-4.191,16.707-6,25.125-.041.193-.077.386-.117.579-.968-.014-1.937-.03-2.907-.03q-3.417.006-6.828.145c-2.206.083-4.4.373-6.581.667a49.5,49.5,0,0,1-11.256.418,56.659,56.659,0,0,0-5.827-.491,45.437,45.437,0,0,0-6.176.472c-1.977.227-3.957.422-5.946.535-1,.059-2,.09-3,.153-.943.061-1.877.2-2.813.336-.327.033-.655.055-.983.075q.405-4.608.81-9.216.587-6.615,1.164-13.234.316-3.562.629-7.121c.187-2.164.406-4.324.457-6.5.1-4.094.473-8.172.535-12.266.044-2.691.165-5.4.375-8.087C188.258,202.647,189.682,202.629,191.132,202.561Zm34.047,119.023c-1.82-.117-3.637-.226-5.461-.328-2.387-.133-4.785-.293-7.18-.3-1.816,0-3.648-.039-5.464-.007-1.707.027-3.411.191-5.122.2-3.316.023-6.644-.02-9.96-.078l.69.019c-1.6-.04-3.192-.03-4.788-.019-.984.007-1.973.015-2.961.007l.1,0c-.377-.01-.754-.018-1.132-.026l.149,0c-.88-.021-1.758-.034-2.637-.05l-.383-.009-1.352-.043,1.234.035c-.715-.021-1.428-.049-2.141-.071-.45-.011-.9-.015-1.35-.017.494-6.17,1.075-12.335,1.616-18.5q1.137-12.908,2.269-25.816.248-2.8.492-5.595a4.113,4.113,0,0,0,1.405.185,91.326,91.326,0,0,0,9.1-1.049c1.094-.141,2.189-.293,3.283-.443a61.1,61.1,0,0,1,6.176-.477c2.2-.039,4.407-.106,6.6-.219,3.871-.2,7.742-.43,11.605-.73a66.051,66.051,0,0,1,11.176-.368q1.055.1,2.106.176c-.024.194-.045.39-.07.584q-.873,6.931-1.75,13.863c-.925,7.352-1.961,14.7-2.39,22.1-.114,1.9-.418,3.793-.653,5.68q-.3,2.389-.59,4.785c-.21,1.734-.41,3.469-.554,5.211-.04.463-.051.927-.076,1.39C226.507,321.655,225.843,321.627,225.179,321.584Zm69.836,3.789c-1.834-.187-3.669-.237-5.509-.276-1.121-.031-2.241-.049-3.361-.074l-.191-.006c-2.966-.125-5.925-.424-8.888-.632-1.766-.125-3.52-.293-5.278-.5-1.735-.2-3.474-.238-5.215-.276-2.669-.134-5.329-.377-8-.465l.627.018q-1.113-.039-2.223-.07c-2.588-.094-5.168-.3-7.75-.467.146-1.642.379-3.282.506-4.924.188-2.367.25-4.742.426-7.11.16-2.105.191-4.214.227-6.328.035-2,.136-4.007.2-6.007s.086-4.02.183-6.028c.094-1.976.325-3.949.438-5.922.125-2.16.351-4.308.5-6.468.145-2.1.277-4.184.539-6.274q.381-3.012.759-6.024a37.362,37.362,0,0,1,3.846-.044c2.136.1,4.261.242,6.4.254,2.273.012,4.543.054,6.816.058,1,0,2,.094,3,.133,1.074.039,2.156,0,3.234-.043,2.141-.094,4.281-.238,6.426-.211s4.285.117,6.418.246c2.261.141,4.523.4,6.785.461.842.023,1.688.006,2.533-.029-.044,1.477-.08,2.954-.039,4.434.055,2.047.118,4.094.141,6.141.023,1.9.113,3.793.121,5.687.008,2.325-.008,4.645-.035,6.969-.047,4.508-.324,9.008-.672,13.5-.16,2.047-.305,4.1-.406,6.149-.1,1.921-.094,3.843-.18,5.765-.09,1.953-.266,3.9-.344,5.856-.035.9-.021,1.8-.023,2.7Q296.015,325.476,295.015,325.373Z"/>
    <path class="a" d="M454.413,207.838a11.67,11.67,0,0,0-.3-2.5,9.143,9.143,0,0,0-1.543-3.141,6.861,6.861,0,0,0-5.4-2.953h-.059a8.631,8.631,0,0,0-3.2.565,4.232,4.232,0,0,0-2.545.409,5.114,5.114,0,0,0-2.422,2.636,16.617,16.617,0,0,0-.711,2.028c-.293.863-.563,1.734-.8,2.617-.559,2.073-.965,4.181-1.392,6.284l-.014.061c-.361,1.046-.721,2.092-1.01,3.166-.195.726-.328,1.469-.535,2.2-.254.9-.519,1.809-.773,2.715-.473,1.695-.844,3.426-1.25,5.14-.428,1.816-.841,3.623-1.209,5.448l.052-.268c-.437,2.16-1,4.285-1.5,6.426-.535,2.281-1.117,4.527-1.8,6.766-.589,1.929-1.207,3.847-1.8,5.777-.621,2.012-1.192,4.039-1.844,6.039-1.324,4.055-2.324,8.2-3.289,12.352-.5,2.152-.938,4.32-1.422,6.476s-1.2,4.25-1.754,6.383c-.828,3.18-1.695,6.355-2.422,9.562-.785,3.465-1.273,6.989-1.941,10.477l.048-.244q-.22,1.137-.427,2.279c.082-.418.164-.836.246-1.25-.844,4.266-1.512,8.563-2.148,12.867-.321,2.149-.61,4.313-.805,6.477-.191,2.144-.473,4.269-.543,6.422-.066,1.922,0,3.843-.121,5.769q-.2,3.328-.4,6.66-.37,6.058-.735,12.122c-.129,2.234-.258,4.464-.34,6.7-.082,2.2-.019,4.406-.148,6.6-.121,2.059-.246,4.113-.309,6.172-.07,2.32-.031,4.633-.125,6.953-.082,2.02.024,4.047-.1,6.063q-.171,2.806-.34,5.6-.334,5.549-.672,11.094l-2.192,36.152c-.179,2.945-.406,5.895-.5,8.844a29.242,29.242,0,0,0,.11,3.031c.043.559.168,1.11.219,1.664a18.9,18.9,0,0,0,1.113,4.574l-.41-1.16c.095.267.186.536.277.805a8.156,8.156,0,0,0,.6,1.668,6.405,6.405,0,0,0,1.754,2.014,9.005,9.005,0,0,0,1.546,1.572,5.706,5.706,0,0,0,2.215,1.1,9.981,9.981,0,0,0,3.668.164,6.9,6.9,0,0,0,2.305-.786,9.415,9.415,0,0,0,1.937-1.207,8.576,8.576,0,0,0,2.5-5.257,25.971,25.971,0,0,0,.18-2.645c.055-.879.1-1.758.125-2.641a20.474,20.474,0,0,0-.154-2.69c0-.406.029-.814.029-1.22a22.764,22.764,0,0,0-.152-2.333c0-.325.009-.651,0-.975-.014-.759-.061-1.515-.117-2.272-.02-.36-.042-.72-.064-1.08a4.843,4.843,0,0,0-.1-1.48q-.05-.678-.108-1.355c-.038-.643-.064-1.286-.069-1.927-.01-1.037-.094-2.072-.177-3.106-.05-.889-.1-1.773-.167-2.663.031.426.062.848.094,1.273-.043-.636-.024-1.273-.04-1.914-.013-.569-.046-1.137-.086-1.7l.346-3.938c.18-2.032.227-4.059.289-6.1.063-2.082.258-4.156.344-6.234.09-2.184.109-4.372.2-6.551.094-2.227.031-4.453.121-6.676s.078-4.441.152-6.656c.149-4.391.083-8.762,0-13.149-.063-3.616-.186-7.232-.161-10.849.221-2.127.474-4.251.746-6.378.55-4.317,1.222-8.6,1.585-12.938.2-2.351.547-4.683.766-7.031.188-1.976.535-3.926.789-5.89.508-3.907,1.117-7.8,1.758-11.684.238-1.457.555-2.906.754-4.367.2-1.524.414-3.059.707-4.567-.082.418-.164.836-.246,1.25.351-1.761.586-3.523.883-5.3.3-1.824.578-3.664.812-5.5.25-1.941.629-3.871.969-5.8.294-1.685.533-3.384.84-5.07.243-1.159.488-2.319.722-3.481l-.019.094c.765-3.8,1.758-7.543,2.695-11.3.192-.762.414-1.52.61-2.281s.328-1.555.519-2.329c.5-2.027,1.137-4.019,1.656-6.042q1.471-5.719,3.024-11.411c1.1-4,2.086-8.031,3.176-12.035.949-3.5,1.925-7,2.957-10.476.507-1.7,1.187-3.356,1.7-5.059.527-1.73.988-3.484,1.445-5.238C452.518,218.889,454.772,213.5,454.413,207.838Z"/>
    <path class="a" d="M236.9,54.891l-.124.08-.006,0Z"/>
    <path class="a" d="M14.462,406.524l-.015.226c-.006.1-.007.2-.014.3C14.443,406.877,14.452,406.7,14.462,406.524Z"/>
    <path class="a" d="M16.889,377.233c.253-2.732.714-5.425,1.212-8.121.27-1.457.277-2.93.5-4.391s.555-2.9.7-4.382a44.135,44.135,0,0,1,.653-4.454c.3-1.507.476-3.007.64-4.539.192-1.746.555-3.464.688-5.218a37.393,37.393,0,0,1,.808-5.555c.391-1.7.766-3.387,1.051-5.113.356-2.164.668-4.34,1.02-6.5.316-1.934.441-3.891.824-5.813.351-1.754.656-3.511.871-5.289.43-3.551.664-7.129,1.184-10.664.578-3.969,1.32-7.914,1.855-11.89.434-3.239.914-6.489,1.156-9.75.137-1.879.211-3.758.235-5.641.016-1.369,0-2.744.042-4.113.219-2.746.62-5.475.864-8.219.3-3.484.531-6.977.918-10.457.164-1.488.336-2.977.547-4.461a50.063,50.063,0,0,0,.441-6.02c.058-3.488-.009-6.972.153-10.46.058-1.2.106-2.4.157-3.595q.023-.416.043-.831c.238-3.732.523-7.452.932-11.164.2-1.825.328-3.653.5-5.481.172-1.871.364-3.738.481-5.613.23-3.656.523-7.309.734-10.969.09-1.586.25-3.172.434-4.75.219-1.875.39-3.726.48-5.617-.019.41-.043.82-.062,1.23a47.661,47.661,0,0,1,.871-7.027c.161-.747.279-1.5.382-2.247,2.068-1.261,3.991-2.762,6.019-4.088,3.137-2.051,6.25-4.125,9.3-6.293.569-.343,1.138-.688,1.7-1.042,1.487-.942,2.9-1.988,4.358-2.967,1.854-1.168,3.713-2.323,5.556-3.506l-.055.035c2.031-1.262,4.09-2.457,6.094-3.762-.356.231-.711.461-1.07.692,1.777-1.141,3.6-2.195,5.437-3.235,1.8-1.011,3.543-2.109,5.336-3.136s3.484-2.211,5.285-3.223c1.848-1.039,3.778-1.945,5.676-2.891,3.77-1.875,7.348-4.07,10.934-6.261,1.722-1.055,3.574-1.938,5.359-2.883,1.7-.9,3.422-1.746,5.109-2.672,5.239-2.872,10.421-5.872,15.44-9.116,1.16-.721,2.349-1.4,3.506-2.126,1.534-.969,2.985-2.044,4.484-3.059,1.684-1.05,3.412-2.037,5.113-3.051,2.106-1.257,4.184-2.554,6.278-3.824,2.183-1.316,4.339-2.679,6.511-4.019,2.09-1.291,4.091-2.7,6.129-4.06,2.45-1.512,4.95-2.93,7.364-4.5l-1.071.695c1.331-.853,2.673-1.682,4-2.534l-.005,0,.01-.006c.347-.223.692-.446,1.035-.672q1.5-.978,2.992-1.962c2.681-1.744,5.311-3.558,7.987-5.309q1.1-.714,2.191-1.437,1.056-.68,2.112-1.363c4.793-3.085,9.468-6.356,14.2-9.531,1.417-.9,2.843-1.794,4.217-2.755,1.282-.892,2.56-1.8,3.862-2.664,1.28-.819,2.56-1.631,3.818-2.484s2.461-1.789,3.668-2.719c2.461-1.887,5.1-3.559,7.695-5.25q-.533.345-1.07.691c3.454-2.219,6.72-4.7,10.128-6.981.984-.625,1.97-1.245,2.947-1.88.671-.439,1.338-.883,2.009-1.324,1.5-.953,3-1.9,4.436-2.944,1.379-1,2.8-1.963,4.23-2.9,1.857-1.209,3.676-2.475,5.531-3.688l-.7.452c2.061-1.344,4.026-2.825,6.071-4.187,1.257-.806,2.478-1.653,3.707-2.5,1.165-.8,2.245-1.717,3.412-2.52,1.682-1.088,3.319-2.231,4.979-3.353.558-.337,1.125-.656,1.68-1q1.359-.846,2.693-1.717c.723-.462,1.442-.929,2.127-1.451.625-.476,1.277-.918,1.938-1.348l-1.071.7c.971-.629,1.9-1.3,2.854-1.95.626-.371,1.269-.709,1.888-1.093.766-.472,1.5-.978,2.251-1.478.728-.459,1.456-.916,2.18-1.384a23.869,23.869,0,0,0,2.468-1.685c.387-.313.783-.61,1.183-.9.061.075.12.153.182.228,1.051,1.25,2.075,2.527,3.083,3.812,1.156,1.489,2.378,2.918,3.57,4.379,1.293,1.59,2.609,3.125,4,4.629,1.32,1.426,2.535,2.938,3.855,4.363a39.789,39.789,0,0,1,2.723,3.668c2.269,3.121,4.773,6.028,7.269,8.969,1.176,1.387,2.446,2.7,3.641,4.066s2.5,2.606,3.762,3.9c1.238,1.269,2.324,2.7,3.5,4.031s2.367,2.637,3.492,4.012c1.148,1.4,2.324,2.777,3.547,4.109,1.273,1.387,2.437,2.84,3.617,4.305,2.078,2.578,4.016,5.269,6.141,7.809,2.265,2.707,4.39,5.527,6.793,8.121,1.289,1.39,2.48,2.867,3.761,4.265,1.211,1.324,2.4,2.664,3.594,4,2.719,3.067,5.324,6.231,8.063,9.277q3.632,4.038,7.246,8.094c2.125,2.379,4.16,4.828,6.136,7.332.9,1.137,1.782,2.3,2.715,3.407,1.063,1.257,2.207,2.449,3.321,3.66,2.265,2.465,4.609,4.851,6.851,7.336,2.172,2.41,4.688,4.468,6.918,6.812.844.883,1.555,1.883,2.391,2.774q1.528,1.639,3.113,3.23c1.215,1.219,2.367,2.5,3.6,3.695,1.1,1.071,2.144,2.2,3.179,3.328.992,1.079,2.012,2.137,2.981,3.231.945,1.066,1.832,2.172,2.718,3.285,1.836,2.3,3.586,4.66,5.422,6.957.59.738,1.125,1.531,1.746,2.242.641.739,1.332,1.422,2.032,2.1,1.238,1.2,2.379,2.508,3.672,3.652a13.819,13.819,0,0,0,1.792,1.438c.352.222.711.437,1.075.64a12.458,12.458,0,0,0,4.316,1.508,5.276,5.276,0,0,0,2.262-.14,5.571,5.571,0,0,0,3.621-2.528,9.209,9.209,0,0,0,1.031-3.222c.121-.684.192-1.375.274-2.067a4.471,4.471,0,0,0-1.7-3.9c-.1-.378-.216-.756-.355-1.132a13.384,13.384,0,0,0-1.109-2.277,20.588,20.588,0,0,0-2.86-3.582c-.933-.969-1.793-1.992-2.687-2.992-1.059-1.184-2.211-2.29-3.317-3.426-1.148-1.184-2.3-2.356-3.457-3.532-2.269-2.316-4.722-4.437-7.019-6.73-2.539-2.531-5-5.145-7.531-7.684q-3.411-3.415-6.7-6.945c-.984-1.058-1.879-2.207-2.9-3.238-1.324-1.348-2.578-2.778-3.856-4.176-1.343-1.469-2.746-2.887-4.1-4.348-1.254-1.351-2.434-2.769-3.723-4.089-1.222-1.257-2.465-2.491-3.7-3.73-1.008-1.163-2.011-2.33-2.971-3.53q-3.344-4.4-6.867-8.679c-2.251-2.745-4.588-5.416-6.809-8.186-.99-1.311-1.976-2.622-2.992-3.911-.961-1.219-1.977-2.388-2.949-3.6-.752-1-1.5-2-2.273-2.982l-.217-.282q-.26-.339-.523-.676c-.041-.053-.082-.107-.124-.16l.071.091c-.616-.788-1.243-1.567-1.862-2.354-.885-1.17-1.771-2.341-2.709-3.467-1.105-1.332-2.257-2.625-3.39-3.934-2-2.309-4.025-4.574-5.909-6.977-.424-.548-.85-1.095-1.273-1.641l-.164-.214c-2.04-2.741-3.933-5.6-6.08-8.258-1.02-1.257-2.055-2.5-3.082-3.753-.981-1.2-2.047-2.311-3.024-3.51-1.238-1.65-2.506-3.276-3.776-4.9-1.192-1.548-2.406-3.081-3.665-4.574a34.506,34.506,0,0,0-3.5-3.308c-2.445-2.2-4.687-4.657-6.992-7-2.254-2.293-4.188-4.864-6.426-7.172-2.174-2.245-4.108-4.671-6.068-7.1-.757-1.023-1.487-2.065-2.256-3.081A57.563,57.563,0,0,0,298.1,3.215a4.619,4.619,0,0,0-1.092-.783c-.015-.026-.022-.054-.037-.08a4.786,4.786,0,0,0-2.84-2.184c-.418-.055-.84-.113-1.262-.168a4.759,4.759,0,0,0-2.4.648l-.039.016a2.388,2.388,0,0,0-.317.165c-.539.24-1.067.5-1.589.792-1,.567-2.016,1.094-3.047,1.609C283.756,4.1,282,4.9,280.3,5.824c-1.781.973-3.516,2.067-5.191,3.207-1.907,1.3-3.711,2.75-5.649,4.012-3.551,2.309-7.328,4.262-10.984,6.391-1.809,1.054-3.633,2.082-5.446,3.128-.777.45-1.527.934-2.257,1.45-.7.492-1.442.922-2.157,1.394-1.422.934-2.777,1.965-4.2,2.906-1.832,1.211-3.637,2.493-5.394,3.8-3.082,2.3-6.4,4.2-9.61,6.3-3.336,2.172-6.84,4.078-10.25,6.121a96.46,96.46,0,0,0-10.355,7.729c-4.357,3.261-9.19,5.871-13.793,8.755a98.707,98.707,0,0,0-8.266,5.735c-1.269.984-2.453,2.07-3.68,3.105-1.323,1.118-2.639,2.243-3.985,3.331-2.123,1.573-4.363,2.958-6.6,4.368q-3.486,2.21-7.035,4.3c-1.968,1.157-3.953,2.305-5.871,3.547-2.049,1.334-3.977,2.792-5.905,4.282-5.335,4.046-10.937,7.707-16.482,11.453-1.492,1.007-3,1.976-4.554,2.89-1.594.934-3.113,2.008-4.625,3.067-3.094,2.171-6.076,4.532-9.045,6.873-1.885,1.42-3.8,2.781-5.756,4.1-2.375,1.6-4.668,3.309-7.059,4.883-1.14.754-2.246,1.57-3.421,2.273-1.2.715-2.4,1.446-3.594,2.176a70.017,70.017,0,0,0-6.625,4.683l-1.18.909c-2.919,2.189-6.024,4.084-9.019,6.162-3.274,2.27-6.719,4.258-10.09,6.379-1.633,1.027-3.313,1.969-4.961,2.969-1.9,1.152-3.719,2.426-5.516,3.734-3.528,2.562-7.164,4.963-10.638,7.6l.173-.134q-1.413,1.048-2.854,2.057c-.758.463-1.514.93-2.259,1.416-1.428.936-2.784,1.979-4.2,2.934-.726.464-1.45.93-2.171,1.4-.5.3-1.012.575-1.527.845-.038-.231-.074-.462-.112-.694-.122-.71-.168-1.457-.219-2.179a22.28,22.28,0,0,0-.485-3.059c.067.306.133.613.2.922a19.67,19.67,0,0,0-.8-3.2c-.141-.371-.289-.738-.465-1.094a11.729,11.729,0,0,0-.84-1.555,5.716,5.716,0,0,0-2.129-1.789,4.231,4.231,0,0,0-1.769-.492c-.436-.024-.83-.062-1.218-.062a3.649,3.649,0,0,0-1.481.281,16.51,16.51,0,0,0-1.571.809,5.318,5.318,0,0,0-.952.735,4.731,4.731,0,0,0-1.914,1.141c-.246.32-.5.64-.742.961a4.707,4.707,0,0,0-.624,2.032,5.146,5.146,0,0,0-.116,1.474c-.088.462-.191.923-.3,1.384a15.985,15.985,0,0,0-.3,3.555,57.108,57.108,0,0,1-.168,5.968c-.187,1.3-.39,2.595-.547,3.9s-.132,2.639-.249,3.956c-.086.5-.181,1-.278,1.5-.217,1.113-.367,2.238-.5,3.365a42.1,42.1,0,0,0-.516,4.252c-.078,1.664-.246,3.321-.461,4.973.011-.084.022-.168.034-.253-.126,1-.225,1.989-.272,3-.047.945-.125,1.887-.227,2.828-.121,1.16-.293,2.324-.371,3.488-.066.95-.043,1.907-.078,2.86-.07,1.762-.285,3.523-.488,5.273-.21,1.826-.32,3.661-.518,5.486-.176,1.157-.374,2.308-.529,3.467-.145,1.106-.207,2.223-.332,3.329-.129,1.132-.262,2.25-.3,3.386-.032.82-.088,1.637-.174,2.452-.209,1.353-.47,2.693-.662,4.048-.293,2.094-.539,4.2-.789,6.3-.442,3.719-.691,7.46-1.142,11.177-.394,2.871-.784,5.739-.975,8.636-.168,2.6-.594,5.183-.859,7.777-.485,4.771-.205,9.584-.731,14.349-.306,2.021-.64,4.036-.843,6.073-.215,2.133-.383,4.258-.54,6.39-.14,1.9-.32,3.789-.476,5.684-.151,1.824-.262,3.645-.469,5.466-.275,1.846-.568,3.688-.773,5.546-.2,1.787-.36,3.581-.572,5.369-.284,2.108-.547,4.209-.729,6.334s-.3,4.25-.43,6.379c-.133,2.105-.426,4.195-.613,6.3-.086.98-.121,1.961-.227,2.941-.113,1.055-.261,2.109-.324,3.168-.129,2.168-.109,4.332-.289,6.5-.168,2-.414,4-.426,6.016-.019,4.2-.05,8.39-.468,12.574s-.231,8.461-.231,12.68v12.636c0,8.871.043,17.743-.031,26.614-.027,3-.086,6-.324,8.992-.114,1.41-.293,2.812-.391,4.226-.094,1.371-.074,2.754-.137,4.133-.07,1.539-.242,3.067-.418,4.6a41.316,41.316,0,0,0-.156,4.281,77.132,77.132,0,0,1-.353,8.369,27.908,27.908,0,0,0-.33,3.823v12.144a125.282,125.282,0,0,1-.412,14.318c-.119.81-.241,1.618-.307,2.432-.059.664-.047,1.336-.071,2-.038,1.215-.111,2.426-.248,3.634a40.044,40.044,0,0,0-.49,4.378c-.058,1.664-.14,3.328-.219,4.992a4.776,4.776,0,0,0,4.75,4.75,4.814,4.814,0,0,0,4.75-4.75c.1-2.18.089-4.4.329-6.573.218-1.5.438-2.992.539-4.5.105-1.559.05-3.129.242-4.68l-.02.145a69.084,69.084,0,0,0,.6-7.344c.062-2.5.051-4.992.054-7.485v-8.324a61.942,61.942,0,0,1,.231-8.211c-.035.265-.071.532-.107.8a64.915,64.915,0,0,0,.5-6.658c.051-1.863.043-3.727.075-5.59.035-2.191.457-4.363.554-6.551.09-1.949.09-3.89.285-5.828.078-.749.134-1.5.193-2.247a5.236,5.236,0,0,0,.232-.715,4.166,4.166,0,0,0,.084-.872,27.606,27.606,0,0,0,.483-4.569c-.077-1.279-.182-2.547-.151-3.829.067-.487.179-.969.229-1.461.109-.992.148-1.984.183-2.98-.008.17-.016.34-.025.51.03-.663.052-1.325.077-1.988q.027-.444.049-.889c.018-.351.035-.7.049-1.052.073-1.116.135-2.229.182-3.345q.036-.53.069-1.059c.042-.672.069-1.343.092-2.013.086-1.232.2-2.458.281-3.691v0a27.789,27.789,0,0,1,.535-3.45,25.743,25.743,0,0,0,.388-4.326c.174-2.286.552-4.569.815-6.846C16.913,383.38,16.785,380.3,16.889,377.233ZM290.218.785l-.02.009-.008,0ZM21.8,266.39c-.1,1.078-.222,2.152-.35,3.225C21.544,268.539,21.664,267.464,21.8,266.39Zm-1.717,21.64c.226-1.5.452-3,.637-4.512-.244,3.313-.7,6.61-1.144,9.9C19.711,291.62,19.864,289.823,20.078,288.03Zm-6.462,131.3c0-.085.007-.17.01-.255l0-.037C13.626,419.138,13.621,419.236,13.616,419.333Z"/>
    <path class="a" d="M347.77,469.3l-.029,0,.135.023h0Z"/>
    <path class="a" d="M119.026,457.638l-.1.007-.405.032Z"/>
    <path class="a" d="M62.072,444.283c.066-.006.132-.009.2-.014.337-.027.675-.059,1.012-.084C62.88,444.216,62.474,444.251,62.072,444.283Z"/>
    <path class="a" d="M407.8,463.482a7.039,7.039,0,0,0-2.463-1.87l.158.073c-.106-.052-.212-.1-.319-.152-.255-.123-.52-.243-.8-.368l.4.188c-1.64-.731-3.337-1.283-5.035-1.879a25.279,25.279,0,0,0-6.543-1.293c-2.125-.148-4.238-.4-6.363-.566-1.332-.1-2.66-.25-3.992-.344-1.484-.106-2.961-.195-4.438-.367-.607-.069-1.21-.152-1.813-.246l.4.07-.317-.056-.085-.015h-.007c-.615-.108-1.231-.214-1.845-.323.4.071.8.141,1.195.215-2.675-.488-5.369-.792-8.052-1.209q-.483-.087-.965-.17c-.912-.163-1.828-.316-2.749-.422-1.082-.125-2.175-.195-3.261-.3-1.114-.106-2.235-.219-3.356-.247-.512-.011-1.023.008-1.535.028-.539.023-1.078.043-1.617.023-.957-.031-1.91-.1-2.871-.074a24.916,24.916,0,0,1-3.055-.094c-2.254-.218-4.527-.215-6.762-.578.4.07.8.145,1.2.215-2.387-.43-4.77-.641-7.18-.879-1.094-.109-2.184-.207-3.281-.226s-2.2,0-3.3-.059c-2.067-.1-4.137-.25-6.192-.484-1.828-.207-3.675-.305-5.5-.586l.707.128c-1.653-.289-3.29-.525-4.964-.667-1.415-.122-2.84-.059-4.258-.2-1.539-.148-3.106-.191-4.649-.246-1.6-.051-3.187,0-4.781-.16-2.168-.215-4.336-.383-6.516-.469-1.8-.07-3.574-.285-5.367-.441-2.039-.176-4.074-.34-6.117-.426-1.562-.062-3.125-.086-4.684-.183-5.972-.364-11.941-.4-17.921-.387-.907,0-1.817-.008-2.723-.02-1.9-.023-3.809-.05-5.7.043-2.778.137-5.563.137-8.34.114-3.027-.028-6.035-.235-9.043-.512-3.094-.285-6.16-.781-9.258-1-1.613-.113-3.219-.141-4.828-.309-2-.207-4-.437-6-.582-3.1-.219-6.176-.64-9.266-.969-2.925-.308-5.878-.367-8.8-.746-1.536-.2-3.059-.461-4.59-.683-1.465-.215-2.934-.313-4.41-.442-3.161-.281-6.336-.293-9.489-.668-3.543-.421-7.109-.211-10.66-.535-3.433-.312-6.887-.246-10.332-.394-1.668-.075-3.34-.063-5.008-.153-1.484-.082-2.972-.168-4.461-.23-1.547-.063-3.1-.063-4.64-.16a44.864,44.864,0,0,0-4.914-.231c-1.778.086-3.551.094-5.328.012-1.9-.086-3.778-.32-5.68-.32-1.055,0-2.11.027-3.164.054-1.207.032-2.418.063-3.625.047-2.242-.019-4.485-.011-6.723.059-1.812.055-3.621.164-5.437.164q-2.86.006-5.718.223l.827-.067a66.65,66.65,0,0,1-9.34.184c-1.242-.086-2.492-.09-3.738-.1-1.758-.012-3.477-.086-5.231.074-2.769.258-5.472.981-8.214,1.41-1.411.223-2.825.45-4.239.637-1.47.192-2.923.477-4.4.647q-.522.035-1.044.074c-1.041.073-2.083.127-3.124.207-1.192.1-2.386.208-3.57.357-1.271.157-2.53.4-3.8.527q-.837.07-1.674.152c-.979.06-1.957.1-2.929.251-.909.135-1.819.279-2.734.387-.682.039-1.363.077-2.045.125l.455-.035c-.279.017-.558.039-.836.063l-.375.03.257-.02c-2.717.248-5.391.8-8.1,1.09-1.214.038-2.447-.075-3.656-.156-.679-.043-1.355-.086-2.031-.125a14.94,14.94,0,0,0-2.135.071,9.915,9.915,0,0,0-2.431.289c-.907.273-1.793.57-2.688.886l1.16-.41c-1.113.391-2.238.77-3.328,1.231a15.1,15.1,0,0,0-2.773,1.711,5.8,5.8,0,0,0-2.641,4.383A6.348,6.348,0,0,0,17.7,459.15a7.86,7.86,0,0,0,1.192,1.914,10.611,10.611,0,0,0,5.316,3.324,16.444,16.444,0,0,0,5.157.543,26.13,26.13,0,0,0,3.941-.52c1.023-.195,2.054-.312,3.089-.413,1.462-.081,2.921-.088,4.384-.219,1.519-.137,3-.547,4.508-.77.742,0,1.481.063,2.222.129a21.318,21.318,0,0,0,2.4.121c2.348-.049,4.69-.344,7.029-.557,1.625-.112,3.247-.214,4.869-.369a29.954,29.954,0,0,0,4.4-.879,55.071,55.071,0,0,1,8.743-1.308l-.684.053c4.1-.325,8.194-.8,12.3-1.167,2.624-.191,5.25-.351,7.873-.5,1.43-.086,2.859-.192,4.289-.289,1.305-.09,2.613-.079,3.922-.1,1.289-.019,2.578-.137,3.867-.18,1.336-.043,2.672-.062,4.008-.093,1.414-.036,2.828-.016,4.242-.028,1.395-.013,2.774-.089,4.163-.192,2.688-.213,5.367-.494,8.05-.75,4.334-.2,8.647.057,12.979.235,4.394.184,8.769-.156,13.16-.222a55.342,55.342,0,0,1,6.992.55c2.09.231,4.18.282,6.273.375,2.141.094,4.282.164,6.426.145,2.266-.02,4.524.1,6.781.258,4.547.308,9.047,1.074,13.606,1.269,2.305.1,4.613.129,6.922.211s4.629.3,6.941.488c4.3.34,8.609.579,12.918.594,2.024.008,4.043.043,6.066.117,2.243.082,4.461.336,6.7.524,4.566.375,9.14.566,13.722.527,2.247-.019,4.512-.058,6.754.059,2.2.117,4.368.465,6.551.652a54.545,54.545,0,0,0,6.3.164c2.277-.074,4.535-.211,6.816-.144,4.149.121,8.293.523,12.442.746,3.562.187,7.1.722,10.652,1.008,1.613.128,3.234.164,4.848.3,1.761.156,3.515.406,5.281.547,3.473.281,6.949.238,10.426.313,1.836.035,3.652.23,5.476.433,1.221.137,2.442.22,3.66.395,1.528.315,3.039.705,4.571,1.008a41.558,41.558,0,0,0,6.137.757,80.524,80.524,0,0,1,8.573.611c.933.164,1.866.318,2.8.472l-.177-.032.136.024.07.012.054.009.044.008.007,0,.144.025-.143-.025a4.639,4.639,0,0,0,1.173.19c1.2.189,2.4.361,3.6.563l1.317.222c1.1.22,2.2.46,3.3.611a21.7,21.7,0,0,0,2.711.117c1.6.012,3.2.207,4.8.34s3.207.1,4.8.3c1.663.2,3.319.4,4.972.666,3.217.614,6.426,1.312,9.685,1.634,1.1.11,2.2.129,3.3.192,1.075.058,2.145.148,3.223.125.836-.024,1.656-.078,2.492-.055.746.024,1.485.16,2.235.168.929.008,1.859.125,2.789.172a18.163,18.163,0,0,0,2.9-.173c.356-.012.711-.028,1.068-.054a13.514,13.514,0,0,0,1.746-.187,8.276,8.276,0,0,0,1.684-.577c.289-.089.58-.18.883-.286a5.779,5.779,0,0,0,1.539-.938,4.988,4.988,0,0,0,1.516-2.379,5.813,5.813,0,0,0,.066-3.047A9.013,9.013,0,0,0,407.8,463.482Z"/>
    <path class="a" d="M376.494,456.64l.1.017h.006Z"/>
  </g>
</svg>
