<svg xmlns="http://www.w3.org/2000/svg" width="1400.786" height="1400.787" viewBox="0 0 1400.786 1400.787">
  <defs>
    <style>
      .a {
        fill: #666;
      }
    </style>
  </defs>
  <g>
    <g>
      <circle class="a" cx="700.393" cy="700.393" r="674.393"/>
      <path d="M700.393,1400.787A700.572,700.572,0,0,1,427.76,55.051,700.568,700.568,0,0,1,973.026,1345.736,696.038,696.038,0,0,1,700.393,1400.787ZM700.393,52A648.571,648.571,0,0,0,448.017,1297.843a648.568,648.568,0,0,0,504.752-1194.9A644.317,644.317,0,0,0,700.393,52Z"/>
    </g>
    <g>
      <g>
        <path d="M1100,541.576a434.893,434.893,0,0,0-219.24-225.653,52.989,52.989,0,0,0-11.791,1.533,22.629,22.629,0,0,0-9.25,4.357,10.383,10.383,0,0,0-3.732,7.789,19.6,19.6,0,0,0,1.663,7.843,1.706,1.706,0,0,1,.342.831c.488,1.106,1.036,2.187,1.615,3.237a401.432,401.432,0,1,1-320.977,1.116,37.883,37.883,0,0,0,3-7.257c1.411-4.817,2-10.471.014-14.97-2.252-5.1-7.387-7.317-12.842-7.713a2.056,2.056,0,0,1-.919-.285A433.547,433.547,0,1,0,1100,541.576Z"/>
        <path d="M700.393,1170.085A459.772,459.772,0,0,1,517.536,288.551l12.224-5.3,7.43,4.432c12.876,2.755,23.181,10.759,28.241,22.226,4.227,9.577,4.625,20.91,1.151,32.773a64.185,64.185,0,0,1-5.04,12.235l-4.236,7.9-8.2,3.612a375.423,375.423,0,1,0,300.19-1.044l-8.17-3.53-4.293-7.8c-.621-1.127-1.188-2.221-1.712-3.3l-.265-.351-.832-2.039-1.413-3.2-.075-.662a44.192,44.192,0,0,1-2.54-15.554,36.425,36.425,0,0,1,12.527-26.634c5.21-4.595,11.933-7.973,19.98-10.04a78.264,78.264,0,0,1,17.452-2.337l6.085-.189,5.535,2.531a460.894,460.894,0,0,1,232.372,239.169h0a459.569,459.569,0,0,1-423.55,638.638ZM530.677,286.757l.052,0Z"/>
      </g>
      <path d="M703.053,677.74a38.5,38.5,0,0,1-38.5-38.5V169.692a38.5,38.5,0,0,1,77,0V639.24A38.5,38.5,0,0,1,703.053,677.74Z"/>
    </g>
  </g>
</svg>
