<?xml version="1.0" encoding="utf-8"?>
<!-- Generator: Adobe Illustrator 25.0.1, SVG Export Plug-In . SVG Version: 6.00 Build 0)  -->
<svg version="1.1" id="Layer_1" xmlns="http://www.w3.org/2000/svg" xmlns:xlink="http://www.w3.org/1999/xlink" x="0px" y="0px"
	 viewBox="0 0 1400.8 1400.8" style="enable-background:new 0 0 1400.8 1400.8;" xml:space="preserve">
<style type="text/css">
	.st0{fill:#666666;}
</style>
<g>
	
		<image style="overflow:visible;opacity:0.77;" width="6288" height="6290" xlink:href="E8E96BA00A3156CC.png"  transform="matrix(0.24 0 0 0.24 -17.76 -18.573)">
	</image>
	<g>
		<g>
			<g>
				<circle class="st0" cx="700.4" cy="700.4" r="674.4"/>
				<path d="M700.4,1400.8C313.5,1400.5,0,1086.7,0.3,699.8C0.4,418.5,168.8,164.7,427.8,55.1c356.4-150.6,767.4,16.3,918,372.7
					s-16.3,767.4-372.7,918l0,0C886.8,1382.2,794,1401,700.4,1400.8z M700.4,52C342.2,52.2,52,342.8,52.3,701
					c0.2,260.3,156,495.4,395.8,596.8c330.1,139.1,710.4-15.7,849.6-345.7c139-329.7-15.3-709.7-344.8-849.2
					C872.9,69.2,787.1,51.8,700.4,52z"/>
			</g>
			<g>
				<g>
					<path d="M1100,541.6c-42.4-99.9-120.6-180.4-219.2-225.7c-4,0.1-7.9,0.6-11.8,1.5c-3.4,0.7-6.5,2.2-9.2,4.4
						c-2.3,1.9-3.7,4.8-3.7,7.8c0,2.7,0.6,5.4,1.7,7.8c0.2,0.2,0.3,0.5,0.3,0.8c0.5,1.1,1,2.2,1.6,3.2
						c203.5,87.9,297.2,324.2,209.3,527.7s-324.2,297.2-527.7,209.3S244,754.3,331.9,550.8c40.2-93,114-167.4,206.7-208.2
						c1.2-2.3,2.3-4.7,3-7.3c1.4-4.8,2-10.5,0-15c-2.3-5.1-7.4-7.3-12.8-7.7c-0.3,0-0.6-0.1-0.9-0.3
						c-219.6,95.4-320.4,350.7-225,570.3s350.7,320.4,570.3,225C1091.2,1013.1,1192.4,760.6,1100,541.6z"/>
					<path d="M700.4,1170.1c-253.9-0.1-459.7-206-459.6-460c0.1-183.1,108.8-348.7,276.7-421.6l12.2-5.3l7.4,4.4
						c12.9,2.8,23.2,10.8,28.2,22.2c4.2,9.6,4.6,20.9,1.2,32.8c-1.3,4.2-2.9,8.3-5,12.2l-4.2,7.9l-8.2,3.6
						C359.3,450,273.3,671.6,356.8,861.3s305.1,275.9,494.9,192.3s275.9-305.1,192.3-494.9C1005.8,472,936.3,403,849.3,365.4
						l-8.2-3.5l-4.3-7.8c-0.6-1.1-1.2-2.2-1.7-3.3l-0.3-0.4l-0.8-2l-1.4-3.2l-0.1-0.7c-1.8-5-2.6-10.3-2.5-15.6
						c0.2-10.2,4.8-19.9,12.5-26.6c5.2-4.6,11.9-8,20-10c5.7-1.4,11.6-2.2,17.5-2.3l6.1-0.2l5.5,2.5
						c104.6,47.9,187.5,133.2,232.4,239.2l0,0c98.9,233.8-10.4,503.4-244.2,602.3C823,1157.8,762,1170.1,700.4,1170.1L700.4,1170.1z
						 M530.7,286.8L530.7,286.8L530.7,286.8z"/>
				</g>
				<path d="M703.1,677.7c-21.3,0-38.5-17.2-38.5-38.5V169.7c0-21.3,17.2-38.5,38.5-38.5s38.5,17.2,38.5,38.5v469.5
					C741.6,660.5,724.3,677.7,703.1,677.7z"/>
			</g>
		</g>
	</g>
</g>
</svg>
