<?xml version="1.0" encoding="utf-8"?>
<!-- Generator: Adobe Illustrator 25.0.0, SVG Export Plug-In . SVG Version: 6.00 Build 0)  -->
<svg version="1.1" id="Layer_1" xmlns="http://www.w3.org/2000/svg" xmlns:xlink="http://www.w3.org/1999/xlink" x="0px" y="0px"
	 viewBox="0 0 256.9 378.8" style="enable-background:new 0 0 256.9 378.8;" xml:space="preserve">
<style type="text/css">
	.st0{fill:#FFFFFF;}
</style>
<g>
	<path class="st0" d="M124.4,200.8v96.4h-12.1v-46.8h-4v46.8h-12v-96.4h12.1V239h4v-38.2H124.4z"/>
	<path class="st0" d="M158.8,200.8v96.4h-12.1v-46.8h-4v46.8h-12v-96.4h12V239h4v-38.2H158.8z"/>
</g>
<g>
	<path class="st0" d="M256.6,126.5v-1.3h-1.3L131.7,1.7L131,2.3L128.7,0L3.5,125.3H0v253.6h256.6V127.3l0.4-0.4L256.6,126.5z
		 M250.6,372.8H6V131.2L129.4,7.9L250.6,129V372.8z"/>
	<path class="st0" d="M49.5,249c0,43,34.5,78,77.3,78.8v0.2h3v-0.2c42.8-0.8,77.3-35.8,77.3-78.8c0-43.5-35.4-78.8-78.8-78.8
		C84.8,170.2,49.5,205.5,49.5,249z M129.8,176.2c39,0.8,70.5,32.3,71.3,71.3h-29.6v3h29.6c-0.8,39-32.3,70.5-71.3,71.3v-14.5h-3
		v14.5c-39-0.8-70.5-32.3-71.3-71.3h28.3v-3H55.5c0.8-39,32.3-70.5,71.3-71.3v17.9h3V176.2z"/>
</g>
</svg>
