<svg xmlns="http://www.w3.org/2000/svg" width="259.552" height="346.217" viewBox="0 0 259.552 346.217">
  <defs>
    <style>
      .a {
        fill: #fff;
      }
    </style>
  </defs>
  <g>
    <path class="a" d="M258.765,91.165l.176-.247L131.654.005l-.079.112L131.493,0,.477,91.165H0V346.217H259.552V91.165ZM9,337.217V96.2L131.5,10.958,250.552,95.986V337.217Z"/>
    <g>
      <path class="a" d="M69.965,150.487V269.221H188.7V150.487ZM180.7,205.853H159.672v8H180.7v47.368H133.332v-3.252h-8v3.252H77.965V213.853H96.638v-8H77.965V158.487h47.367v5.5h8v-5.5H180.7Z"/>
      <g>
        <polygon class="a" points="114.266 201.846 110.635 201.846 110.635 166.983 99.638 166.983 99.638 205.853 99.638 213.853 99.638 254.969 110.635 254.969 110.635 213.853 110.635 212.297 114.266 212.297 114.266 213.853 114.266 254.969 125.263 254.969 125.263 213.853 125.263 205.853 125.263 166.983 114.266 166.983 114.266 201.846"/>
        <polygon class="a" points="145.675 166.983 145.675 201.846 142.044 201.846 142.044 166.983 133.332 166.983 131.047 166.983 131.047 254.969 133.332 254.969 142.044 254.969 142.044 213.853 142.044 212.297 145.675 212.297 145.675 213.853 145.675 254.969 156.672 254.969 156.672 213.853 156.672 205.853 156.672 166.983 145.675 166.983"/>
      </g>
    </g>
  </g>
</svg>
