<?xml version="1.0" encoding="utf-8"?>
<!-- Generator: Adobe Illustrator 25.0.1, SVG Export Plug-In . SVG Version: 6.00 Build 0)  -->
<svg version="1.1" id="Layer_1" xmlns="http://www.w3.org/2000/svg" xmlns:xlink="http://www.w3.org/1999/xlink" x="0px" y="0px"
	 viewBox="0 0 214.5 275" style="enable-background:new 0 0 214.5 275;" xml:space="preserve">
<style type="text/css">
	.st0{fill:#4E4E4E;}
	.st1{fill:#3D3D3D;}
	.st2{opacity:0.75;}
	.st3{fill:#2B2B2B;}
	.st4{fill:#F49000;}
	.st5{fill:#FFFFFF;}
</style>
<g>
	
		<image style="overflow:visible;opacity:0.77;" width="1345" height="1345" xlink:href="8ED5E2A2AD938BD4.png"  transform="matrix(0.24 0 0 0.24 -36 5.72)">
	</image>
	<g>
		<circle class="st0" cx="107.3" cy="140.2" r="107.3"/>
	</g>
</g>
<g>
	<circle class="st1" cx="107.5" cy="138.4" r="78.2"/>
	<g>
		<g class="st2">
			<circle class="st3" cx="107.5" cy="138.4" r="78.2"/>
		</g>
	</g>
</g>
<g>
	<rect x="89" y="18" class="st4" width="35" height="239"/>
</g>
<g>
	<path class="st5" d="M79,102.9l1.6-1.1L68.2,83.2l1.9-1.3l12.4,18.7l1.6-1.1l1.2,1.8l-5.1,3.4L79,102.9z"/>
	<path class="st5" d="M65.8,89.8l11.4,12.4c2,2.1,2,3.7,0.6,5.1c-1.5,1.4-3,1.1-4.9-1L61.4,93.9c-2-2.1-2-3.7-0.6-5.1
		C62.3,87.4,63.8,87.7,65.8,89.8z M62.6,91.8L75,105.2c0.6,0.6,1,0.7,1.3,0.4s0.3-0.7-0.3-1.3L63.6,90.8c-0.6-0.6-1-0.7-1.3-0.4
		S62,91.1,62.6,91.8z"/>
	<path class="st5" d="M64.4,106.9l5.4,4.2c0.7,0.5,1.1,0.5,1.3,0.2s0.1-0.7-0.5-1.2L56,98.7c-0.5-0.4-1-0.4-1.2-0.1
		c-0.3,0.3-0.2,0.8,0.5,1.3l7.5,5.7l-1.4,1.8l-10-7.6l1-1.3l1.9,1.4l0.1-0.1c-1.4-1.2-1.5-2.2-0.8-3.2c0.8-1.1,2-1.2,3.8,0.2
		l14.2,10.8c2.3,1.8,2.6,3.3,1.4,4.9c-1.3,1.7-2.7,1.6-5-0.1l-4.8-3.7L64.4,106.9z"/>
	<path class="st5" d="M59.7,114.6l6.1,3.2c0.7,0.4,1.2,0.3,1.3-0.1s0-0.8-0.7-1.1L50,107.9c-0.6-0.3-1-0.3-1.2,0.1s0,0.8,0.7,1.2
		l8.3,4.4l-1.1,2l-11.1-5.8l0.7-1.4l2.1,1.1l0.1-0.2c-1.6-1-1.9-1.9-1.3-3c0.6-1.2,1.8-1.5,3.8-0.5l15.8,8.3
		c2.6,1.3,3.2,2.8,2.2,4.6c-1,1.9-2.4,2.1-5,0.7l-5.4-2.8L59.7,114.6z"/>
	<path class="st5" d="M44.3,119.5l-2.1-0.7l1.4-4l23.3,8l-0.8,2.2l-21.2-7.3L44.3,119.5z"/>
	<path class="st5" d="M42.3,128.3l-2.1-0.4l0.9-4.7l24.2,4.8l-0.9,4.5l-2.1-0.4l0.4-2.2l-7.6-1.5l-0.4,2.1l-2.1-0.4L53,128l-10.1-2
		L42.3,128.3z"/>
	<path class="st5" d="M60.3,143.4l-2.1,0.1c-2.7,0.1-4-0.9-4.1-3.1V140l-14.7,0.7l-0.1-2.3l24.6-1.1l0.1,2.8
		C64.2,142.4,63,143.3,60.3,143.4z M60.6,141.1c1,0,1.2-0.3,1.2-1v-0.4L56,140v0.4c0,0.7,0.3,0.9,1.3,0.9L60.6,141.1z"/>
	<path class="st5" d="M65.7,150.3l-24,5.3l-0.5-2.3l12.2-2.7l-0.3-1.5l-12.2,2.7l-0.5-2.3l24-5.3l0.5,2.3l-9.7,2.1l0.3,1.5l9.7-2.1
		L65.7,150.3z"/>
	<path class="st5" d="M46.9,159.5l15.6-6.4c2.7-1.1,4.2-0.6,4.9,1.2c0.8,1.9,0,3.2-2.7,4.3L49.1,165c-2.7,1.1-4.2,0.6-4.9-1.2
		C43.5,161.9,44.2,160.6,46.9,159.5z M47.6,163.2l17-7c0.8-0.3,1-0.7,0.8-1.1s-0.6-0.5-1.3-0.2l-17,7c-0.8,0.3-1,0.7-0.8,1.1
		S46.9,163.5,47.6,163.2z"/>
	<path class="st5" d="M70,164l-1-1.6l-19.2,11.7l-1.2-2l19.2-11.7l-1-1.7l1.9-1.1l3.2,5.3L70,164z"/>
	<path class="st5" d="M56.4,176.8l12.8-10.9c2.2-1.9,3.8-1.9,5.1-0.4c1.4,1.6,1,3-1.2,4.9l-12.8,10.9c-2.2,1.9-3.8,1.9-5.1,0.4
		C53.8,180.1,54.2,178.7,56.4,176.8z M58.2,180.1l14-11.9c0.6-0.5,0.7-0.9,0.5-1.3s-0.7-0.3-1.3,0.2l-14,11.9
		c-0.6,0.5-0.7,0.9-0.5,1.3S57.5,180.6,58.2,180.1z"/>
	<path class="st5" d="M63.6,184.7l2.4-2.9l1.8,1.5l-2.9,3.5c-0.5,0.6-0.6,1.1-0.2,1.3c0.3,0.3,0.7,0.2,1.2-0.5l0.8-0.9
		c3.6-4.3,3.4-9.8,7.3-14.4l0.4-0.5c1.8-2.2,3.4-2.5,4.9-1.2c1.6,1.3,1.5,2.8-0.4,5l-2.4,2.9l-1.8-1.5l2.9-3.5
		c0.5-0.6,0.6-1.1,0.2-1.3c-0.3-0.3-0.7-0.2-1.3,0.5l-0.8,0.9c-3.6,4.3-3.4,9.8-7.3,14.4l-0.4,0.5c-1.8,2.2-3.4,2.5-4.9,1.2
		C61.7,188.4,61.8,186.9,63.6,184.7z"/>
</g>
<polygon class="st5" points="105.8,21.8 93.6,42.9 118,42.9 "/>
</svg>
