<svg xmlns="http://www.w3.org/2000/svg" width="1237.053" height="375.106" viewBox="0 0 1237.053 375.106">
  <defs>
    <style>
      .a {
        fill: #ecf000;
      }
    </style>
  </defs>
  <g>
    <rect class="a" width="1237.053" height="375.106"/>
    <g>
      <path d="M437.864,85.947H418.717V311.086H395.555V85.947H376.1V64.02h61.766Z"/>
      <path d="M510.437,64.02,495,311.086H457.008L441.259,64.02h23.47l10.193,217.109H477.7L488.511,64.02Z"/>
      <path d="M580.847,164.082V95.521c0-8.338-2.47-11.736-6.795-11.736s-6.794,3.4-6.794,11.736V281.129c0,6.795,2.47,10.192,6.486,10.192,4.324,0,7.1-3.4,7.1-11.736v-94.5H604.01v126H587.949V287.615H586.1c-1.237,18.839-8.34,25.633-20.384,25.633-13.9,0-21.619-8.647-21.619-31.5V102.933c0-29.03,10.191-41.075,30.266-41.075,21,0,29.649,12.045,29.649,41.075v61.149Z"/>
      <path d="M619.758,272.173V64.02H642.92V279.585c0,8.339,2.471,11.736,6.794,11.736,4.016,0,6.486-3.4,6.486-11.736V64.02h23.163V272.173c0,29.031-9.884,41.075-30.266,41.075C628.1,313.248,619.758,301.2,619.758,272.173Z"/>
      <path d="M696.04,64.02H719.2V311.086H696.04Z"/>
      <path d="M797.027,103.551V271.556c0,27.486-10.5,39.53-33.046,39.53H737.113V64.02h27.795C788.379,64.02,797.027,76.064,797.027,103.551Zm-23.163-4.942c0-9.574-2.779-12.662-9.574-12.662h-4.014V289.159h4.014c6.8,0,9.574-3.088,9.574-12.662Z"/>
      <path d="M860.954,289.159v21.927h-47.56V64.02H859.41V85.947H836.556v77.517h21.31v21.927h-21.31V289.159Z"/>
    </g>
  </g>
</svg>
