<?xml version="1.0" encoding="utf-8"?>
<!-- Generator: Adobe Illustrator 25.0.0, SVG Export Plug-In . SVG Version: 6.00 Build 0)  -->
<svg version="1.1" id="Layer_1" xmlns="http://www.w3.org/2000/svg" xmlns:xlink="http://www.w3.org/1999/xlink" x="0px" y="0px"
	 viewBox="0 0 256.7 381.3" style="enable-background:new 0 0 256.7 381.3;" xml:space="preserve">
<style type="text/css">
	.st0{fill:#FFFFFF;}
</style>
<g>
	<path class="st0" d="M259,126.9l-0.3-0.3v-0.9h-0.9L130.8-1.2l-0.6,0.6l-2.3-2.3L-0.6,125.7h-1.3v1.3l-0.9,0.9l0.9,0.9v254.4h260.6
		V127.2L259,126.9z M248.7,130.8v242.5H8.1V131.1L128.6,10.7L248.7,130.8z"/>
	<path class="st0" d="M139,91.6V221h-16.2v-62.8h-5.3V221h-16.2V91.6h16.2v51.3h5.3V91.6H139z"/>
	<path class="st0" d="M160.7,220.9v129.4h-16.2v-62.8h-5.3v62.8H123V220.9h16.2v51.3h5.3v-51.3H160.7z"/>
</g>
</svg>
