<svg xmlns="http://www.w3.org/2000/svg" width="259.552" height="346.217" viewBox="0 0 259.552 346.217">
  <defs>
    <style>
      .a {
        fill: #fff;
      }
    </style>
  </defs>
  <g>
    <g>
      <path class="a" d="M90.794,148.126V260.62H76.733V206.062H72.09V260.62H58.03V148.126H72.09V192.7h4.643V148.126Z"/>
      <path class="a" d="M115.285,217.031H109.52l-1.832,43.589H94.612l6.75-112.494h22.779l6.75,112.494H116.974Zm-.424-12.664-1.689-42.181h-1.265l-1.826,42.181Z"/>
      <path class="a" d="M152.147,217.031h-5.765L144.55,260.62H131.475l6.749-112.494H161l6.749,112.494H153.836Zm-.423-12.664-1.689-42.181H148.77l-1.827,42.181Z"/>
      <path class="a" d="M170.587,240.514V226.878h14.06v18.136c0,2.53.705,3.378,1.97,3.378s1.969-.848,1.969-3.378v-6.046c0-24.468-18-40.784-18-68.206v-2.53c0-15.045,5.347-21.228,16.31-21.228,11.393,0,15.749,6.183,15.749,21.228V181.88h-14.06V163.732c0-2.53-.7-3.378-1.969-3.378s-1.97.848-1.97,3.378v6.045c0,24.469,18,40.785,18,68.207v2.53c0,15.045-5.341,21.228-16.31,21.228C174.949,261.742,170.587,255.559,170.587,240.514Z"/>
    </g>
    <path class="a" d="M258.765,91.165l.176-.247L131.654.005l-.079.112L131.493,0,.477,91.165H0V346.217H259.552V91.165ZM9,337.217V96.2L131.5,10.958,250.552,95.986V337.217Z"/>
  </g>
</svg>
