<svg xmlns="http://www.w3.org/2000/svg" width="291.319" height="291.319" viewBox="0 0 291.319 291.319">
  <defs>
    <style>
      .a {
        fill: #69b6e8;
      }

      .b {
        fill: #fff;
      }
    </style>
  </defs>
  <g>
    <path class="a" d="M145.659,0A145.66,145.66,0,1,1,0,145.66,145.66,145.66,0,0,1,145.659,0Z"/>
    <path class="b" d="M63.726,118.348c13.619-10.87,32.983-34.74,48.086-34.74,15.085,0,18.79,17.816,20.848,33.975,2.085,16.159,8.011,51.509,15.986,51.509,7.993,0,26.191-31.271,25.154-43.352-1.02-12.081-14.2-10.269-21.448-6.8,6.664-24.161,22.049-37.007,41.722-37.007S218.5,95.834,218.5,112.9c0,25.982-52.665,105.585-84.483,105.585-19.682,0-24.562-29-28.549-43.361-4-14.338-11.844-51.964-21.02-54.377-3.56-.592-13.61,7.392-13.61,7.392Z"/>
  </g>
</svg>
